<?xml version="1.0" encoding="utf-8"?>
<!-- Generator: Adobe Illustrator 16.0.0, SVG Export Plug-In . SVG Version: 6.00 Build 0)  -->
<!DOCTYPE svg PUBLIC "-//W3C//DTD SVG 1.1//EN" "http://www.w3.org/Graphics/SVG/1.1/DTD/svg11.dtd">
<svg version="1.1" id="Layer_1" xmlns="http://www.w3.org/2000/svg" xmlns:xlink="http://www.w3.org/1999/xlink" x="0px" y="0px"
	 width="429px" height="158.003px" viewBox="0 0 429 158.003" enable-background="new 0 0 429 158.003" xml:space="preserve">
<g id="Shape_9_1_" enable-background="new    ">
	<g id="Shape_9">
		<g>
			<path d="M235.977,85.68c-0.231-2.234-1.305-5.41-1.305-5.41s0.698-0.099,0.52-0.938c-0.18-0.847-0.978-0.593-0.978-0.593
				s-0.438-1.248-0.563-1.782c-0.116-0.539-0.174-0.845-0.166-1.827c0.02-0.981-0.573-1.614-0.883-1.698
				c-0.164-0.025-0.582,0.003-0.826,0.099c-0.243,0.097-0.27,0.129-0.637,0.452c-0.367,0.335-0.328,0.67-0.328,0.67l-0.354,0.251
				c0,0-0.498-1.157-1.238-2.935c-0.738-1.77-1.365-4.231-1.801-7.145c-0.439-2.918-0.164-5.825-0.164-5.825
				s0.368-0.014,0.357-0.195c-0.004-0.186,0.658-5.974,0.658-5.974s1.064-0.107,1.097-0.407c0.024-0.294,0.041-3.213,0.097-4.066
				c0.059-0.857,0.317-1.489,0.438-1.719c0.115-0.232,0.615-0.827,0.623-0.962c0-0.133,0.035-1.728,0.016-1.832
				c-0.021-0.102,0.072-0.168,0.084-0.304c0.001-0.133,0.063-1.126,0.059-1.308c-0.014-0.188-0.117-0.482-0.117-0.482
				s-0.049-3.859-0.066-3.965c-0.021-0.096,0.053-0.271,0.107-0.412c0.056-0.145,0.004-0.582-0.02-1.135
				c-0.008-0.249-0.109-0.354-0.109-0.354s0-0.45-0.024-0.739c-0.025-0.285-0.648-0.676-0.981-1.041
				c-0.331-0.363-0.463-0.951-0.64-1.663c-0.179-0.708-1.25-4.33-1.456-5.059c-0.211-0.732-0.875-3.266-1.038-3.419
				c-0.158-0.166-0.202-0.098-0.416-0.11c-0.144-0.189-0.496-0.127-0.633,0.008c-0.144,0.124-0.398,0.438-0.521,0.938
				c-0.123,0.498-1.93,10.75-1.93,10.75s-1.436,0.26-1.709,0.654c-0.271,0.391-0.381,0.857,0.046,1.283
				c0.418,0.433,1.236-0.031,1.236-0.031l-0.396,3.596c0,0-0.789,0.026-1.224,0.27c-0.435,0.232-0.681,0.648-0.599,1.109
				c0.082,0.464,0.897,0.582,1.037,0.451c0.136-0.126,0.551-0.016,0.551-0.016s-0.137,2.063-0.188,2.333
				c-0.063,0.279,0.136,0.326,0.484,0.34c0.012,0.237,0.52,0.411,0.737,1.193c0.149,0.539,0.276,1.411,0.252,2.152
				c-0.028,0.746-0.182,3.29-0.168,3.524c0.016,0.239,0.636,0.259,0.636,0.259s-0.968,5.313-0.972,5.575
				c-0.067,0.357,0.41,0.382,0.41,0.382s0.063,0.359,0,0.895c-0.062,0.547-0.16,3.395-0.076,4.761
				c0.082,1.358,0.558,5.517,1.019,7.365c0.47,1.855,2.55,7.895,2.55,7.895s-0.111-0.039-0.277,0.521
				c-0.164,0.563,0.142,1.086,0.502,2.375c0.362,1.287,0.853,3.875,0.492,6.322c-0.363,2.447-2.175,4.594-3.638,5.922
				c-1.457,1.318-3,1.273-3.442,1.322c-0.438,0.057-0.881-0.021-1.315,0.346c-0.438,0.365-0.183,0.904-0.183,0.904
				s-0.598,0.08-0.776-0.047c-0.18-0.127-0.611-0.285-0.611-0.285s-0.204-0.732-0.383-1.443c-0.181-0.711-0.812-1.553-1.242-1.768
				c-0.438-0.215-1.546-0.494-2.188-0.217c-0.641,0.271-1.174,1.16-1.174,1.16l-0.342-0.021c0,0-0.175-0.521-0.53-0.588
				c-0.313-0.063-0.479-0.155-0.837,0.226c-0.243-0.619-0.434-0.531-0.879-0.349c-0.444,0.187-0.754,0.562-0.754,0.562l-0.683,0.013
				c0,0,0.364-0.324-0.146-0.949c-0.509-0.625-1.314,0.021-1.314,0.021s-9.646-0.741-11.565-0.823
				c-1.922-0.082-9.748-0.599-11.248-0.701c-1.502-0.101-5.549-0.356-6.896-0.49c-1.354-0.131-5.167-0.323-5.167-0.323
				s-0.223-0.468-0.721-0.449c-0.506,0.009-0.502,0.142-0.725,0.259c-0.217,0.119-0.301,0.508-0.301,0.508s-0.479,0.027-1.17-0.01
				c-0.694-0.033-2.002-0.226-3.033-0.354c-1.029-0.14-3.097-0.459-3.824-0.513c-0.725-0.06-1.518,0.106-1.518,0.106
				s-0.397-0.144-1.232-0.099c-0.841,0.043-1.615,0.314-2.253,0.589c-0.644,0.269-0.974,0.938-0.974,0.938l-6.129-0.496
				l-0.179-0.847c0,0,0.537-1.021-0.733-1.144c-1.004,0.287-0.794,1.021-0.524,1.345c-0.225,0.063-0.267,0.576-0.267,0.576
				s-3.559-0.188-3.794-0.177c-0.233,0.021-0.318,0.457-0.318,0.457l-0.232,0.019c0,0-0.024-0.604-0.18-0.715
				c-0.216-0.146-0.425-0.156-0.542-0.062c-0.111,0.104-0.259,0.182-0.238,0.598c-0.449,0.138-0.403,0.521-0.403,0.521
				s-0.366,0.067-0.667-0.011c-0.037-0.334-0.732-1.146-1.159-1.438c-0.425-0.293-1.806-1.207-3.963-1.276
				c-2.159-0.066-2.861,1.463-2.861,1.463l-6.448-0.49l-0.102-0.885c0.003-0.002,0.023-0.045,0.149-0.347
				c0.203-0.479-0.444-1.127-1.142-0.748c-0.654,0.353-0.358,0.968-0.182,1.357c-0.404,0.256-0.14,0.575-0.14,0.575
				s-3.296-0.229-3.42-0.185c-0.126,0.054-0.105,0.289-0.105,0.289l-0.451-0.004c0,0-0.014-0.367-0.123-0.531
				c-0.106-0.17-0.713-0.139-0.733,0.023c-0.023,0.161-0.064,0.403-0.064,0.403l-0.36,0.013c0.016-0.009,0.081-0.076,0.369-0.591
				c0.356-0.649,0.407-1.244-0.053-2.063c-0.462-0.817-1.739-1.123-2.563-0.838c-0.817,0.274-1.244,1.201-1.309,1.871
				c-0.066,0.678,0.331,1.397,0.331,1.397s-0.438-0.082-0.967-0.041c-0.521,0.047-0.934,0.381-0.934,0.381
				s-13.715-0.974-15.107-1.095c-1.399-0.125-11.223-0.68-12.091-0.788c0.069-0.808-0.131-1.168-0.274-1.408
				c-0.015-0.366-0.419-0.56-0.419-0.56s-0.759-0.528-1.587-0.75c-0.833-0.223-2.496-0.616-2.814-0.612
				c-0.064-0.095-0.777-0.231-0.854-0.056c-0.81-0.069-2.943-0.166-3.623-0.104c-0.672,0.069-2.281,0.438-2.768,0.942
				c-0.289,0.302-0.567,1.722-0.567,1.722l-2.691-0.209c0,0,0.771-0.592,1.257-1.733c0.48-1.146,0.451-2.838,0.192-3.826
				c-0.258-0.981-1.046-2.301-1.721-2.233c-0.676,0.063-1.135,0.651-1.054,1.515c0.069,0.862,1.443,3.08,1.657,3.545
				c-0.219,0.385-1.047,0.797-1.727,0.86c-0.678,0.069-5.254-0.385-5.254-0.385s0.083-0.255-0.812-0.521
				c-1.536-0.443-2.563-0.257-4.335-0.232c-1.761,0.025-4.063,0.809-4.297,1.007c-0.229,0.198-0.187,0.903-0.187,0.903
				s-1.508-0.021-2.175-0.166c-0.444-0.719-0.796-0.021-0.796-0.021s-4.266-0.323-6.243-0.396
				c-1.967-0.071-12.001-0.772-12.001-0.772s-0.005-0.638-0.217-0.653c-0.219-0.008-0.919-0.101-1.289-0.084
				c0.001-0.131-0.105-0.885-0.15-1.14c0.091-0.069,0.119-0.498,0.119-0.498s0.276,0.058,0.352-0.12
				c0.073-0.168-0.187-1.345-0.328-1.396c-0.138-0.055-0.444,0.056-0.444,0.056s-0.475-2.087-0.603-2.668
				c-0.133-0.588-0.473-1.455-0.751-1.379c-0.282,0.072-2.373,0.372-2.707,0.401c-0.345,0.035-0.719-0.005-1.262,0.066
				c-0.543,0.071-0.359,0.065-1.329,0.29c-0.963,0.226-4.013,0.662-5.5,0.931c-1.492,0.26-4.963,0.854-5.588,1.043
				c-0.63,0.189-0.365,0.781-0.294,1.457c0.068,0.674,0.336,3.063,0.336,3.063s-0.233,0.068-0.395,0.182
				c-0.104,0.204,0.204,1.447,0.341,1.502c0.144,0.053,0.574,0.082,0.574,0.082s0.213,1.051,0.045,1.295
				c-0.169,0.238-1.451,0.918-1.786,1.268c-0.335,0.354-0.86,0.842-0.86,0.842s-0.06-0.043-1.708,1.686
				c-1.658,1.727-4.177,4.951-4.177,4.951s-0.185-0.307-0.317,0.01c-0.143,0.125-0.815,1.229-1.982,4.193
				c-1.166,2.959-1.475,6.434-1.52,8.109c-0.046,1.68,0.254,4.27,0.669,6.135c0.409,1.859,1.698,4.648,2.854,6.85
				c1.165,2.207,4.017,5.086,6.122,6.646c2.104,1.559,4.13,2.258,4.333,2.354c0.206,0.1,0.641,0.314,0.912,0.186
				c1.032,0.445,3.407,1.166,5.363,1.582c1.958,0.422,10,0.686,10.597,0.736c0.585,0.047,1.046,0.23,1.284,0.223
				c0.231-0.021,0.742,0.023,1.253,0.068c0.514,0.037,1.086-0.143,1.449-0.207c0.354-0.064,8.752,0.346,11.738,0.637
				c2.994,0.287,11.973,1.203,14.64,1.574c2.665,0.371,8.592,1.229,10.813,1.646c2.222,0.428,7.503,1.553,10.83,2.521
				c3.321,0.971,6.991,2.674,8.124,3.24c1.138,0.566,3.813,2.115,5.619,3.316c1.8,1.195,3.638,2.77,4.837,4.777
				c1.29,2.152,0.83,5.055,0.83,5.055s-1.663,2.166-2.143,2.941c-0.479,0.771-0.945,1.793-0.736,2.391
				c0.21,0.602,0.978,0.746,1.85,0.479c0.873-0.256,1.771-0.682,2.988-1.355c1.226-0.672,2.935-1.797,4.911-3.172
				c1.979-1.381,6.985-5.295,8.816-6.83c1.82-1.545,6.68-5.889,9.68-8.896c2.997-3.006,4.981-5.818,5.402-6.457
				c0.412-0.643,1.186-2.646-0.802-2.598c-1.913,0.328-4.276,1.668-4.571,1.969c-0.65,0.027-1.818-0.336-2.418-0.637
				c-0.603-0.301-2.261-1.518-3.042-2.15c-0.791-0.643-3.904-3.17-5.827-4.424c-1.915-1.246-7.001-4.043-9.177-5.021
				c-2.17-0.973-7.08-2.779-7.198-2.863c-0.118-0.08-0.646-0.361-1.628-0.717c-0.983-0.356-3.349-1.041-3.349-1.041
				s-0.016-1.67,0.027-2.328c0.035-0.656,0.465-1.438,0.86-1.914c0.387-0.479,1.033-1.614,1.033-1.614s4.347,0.003,5.122,0.009
				c0.78,0.004,11.854,0.021,12.667,0.021c0.813-0.001,7.281-0.043,7.569-0.026c0.287,0.024,1.141,0.051,1.424,0.065
				c0.092,0.209,0.062,0.674-0.04,0.875c-0.206,0.424-0.396,0.354-0.481,0.649c-0.092,0.295,0.135,1.142,0.42,1.067
				c0.287-0.065,0.713-0.76,0.938-1.078c0.227-0.325,0.34-0.756,0.372-0.885c0.138,0.063,0.2,0.146,0.506-0.033
				c0.308-0.18,0.438-0.543,0.438-0.543s0.234,0.354,0.843,0.382c0.609,0.038,0.738-0.324,0.738-0.324s0.132,0.063,0.533-0.285
				c0.387-0.358,0.198-0.639,0.198-0.639l6.962,0.028c0,0,0.26,0.66,0.608,0.638c0.344-0.027,0.544-0.615,0.544-0.615
				s1.152-0.028,1.514,0.065c0.462,0.711,1.375,0.642,1.784,0.021c0.531-0.801-0.262-1.387-0.262-1.387l-0.016-0.578
				c0,0,0.616,0.103,0.813,0.033c0.375,0.286,0.842,0.342,1.055,0.252c0.217-0.091,0.108-0.371-0.019-0.525
				c-0.139-0.149-0.836-0.188-0.836-0.188s0.035-0.128,0.275-0.564c0.24-0.43,0.556-0.93,0.798-1.27
				c0.113,0.26,0.396,0.377,0.694,0.588c-0.359,0.197-0.284,0.34-0.153,0.48c-0.137,0.131-0.188,0.33-0.083,0.705
				c0.102,0.369,0.583,0.449,0.583,0.449s0.124,0.401,0.515,0.676c0.393,0.275,0.599,0.369,1.739,0.533
				c1.145,0.176,3.698-0.203,4.188-0.445c0.482-0.25,0.861-0.797,1.173-0.979c0.313-0.188,0.962-0.857,0.962-0.857
				s-0.021,0.488,0.566,0.794c1.022,0.532,1.967,0.206,2.188,0.272c0.227,0.063,0.48,0.019,1.231-0.086
				c0.752-0.109,1.348-0.187,2.106-0.375c1.533,0.756,2.771,0.403,2.771,0.403s0.856,0.646,2.148,0.599
				c1.291-0.041,2.422-0.828,3.01-1.226c0.594-0.396,1.192-0.608,2.125-0.854c0.938-0.25,1.466-0.289,2.055-0.232
				c0.592,0.054,0.858-0.207,1.479-0.184c0.606,0.021,1.686,0.279,2.167,0.438c0.475,0.15,0.982,0.199,1.476-0.057
				c0.224,0.518,1.442,0.383,1.311-0.521c0.327-0.086,0.811-0.063,1.434-0.12c0.625-0.062,4.545-0.204,5.209-0.19
				c0.667,0.02,1.021-0.682,1.021-0.682s3.438-0.025,4.32,0.002c0.376,0.938,1.243,0.471,1.514,0.02
				c0.549,0.432,1.172,0.508,2.213,0.559c1.044,0.053,2.328-0.629,2.328-0.629s0.173,0.08,1.22,0.447
				c1.043,0.373,2.104,0.076,2.617-0.336c0.51-0.41,0.475-1.061,0.331-1.385c0.505,0.123,0.875-0.338,0.875-0.338
				s4.998,0.111,5.384,0.205c0.038,0.07,0.331,0.102,0.598,0.104c0.271,0.002,3.716,0.025,3.861,0.08
				c0.137,0.055,1.024,0.137,1.024,0.137s0.112,0.031,0.173,0.207c-0.212,0.035-0.801,0.305-0.961,0.727
				c-0.162,0.432,0.248,0.939,0.582,1.035c0.337,0.098,0.725,0.057,0.725,0.057s0.103,0.117,0.706,0.09
				c0.604-0.029,1.063-0.295,1.063-0.295s0.36,0.699,0.592,0.949c0.228,0.248,0.788,0.418,1.158-0.041
				c0.363-0.463-0.543-2.447-0.771-2.836c0.501-0.008,1.104-0.354,1.176-0.396c0.073-0.035,2.147-0.114,2.91-0.172
				c1.174,0.061,2.623,0.033,3.602-0.141c1.205,0.207,2.307,0.041,3.447-0.293c1.64-0.484,3.246-1.826,3.856-2.57
				c0.61-0.74,1.479-1.936,1.479-1.936s0.131,0.141,0.266,0.008c0.144-0.131,0.359-0.518,0.586-0.896
				c0.222-0.387-0.082-0.463-0.082-0.463s0.101-0.148,0.273-0.523c0.172-0.375,0.358-0.516,0.609-0.748
				c0.25-0.227,0.555-1.184,0.846-3.143C236.087,91.643,236.215,87.914,235.977,85.68z M88.012,105.396
				c0.302-0.688-0.016-1.719-0.016-1.719l1.81,0.049c0,0-0.225,0.383-0.297,1.002c-0.077,0.625,0.068,1.131,0.496,1.607
				c0.435,0.479,1.252,0.785,1.252,0.785l-4.887-0.086C86.369,107.035,87.716,106.083,88.012,105.396z M85.989,109.068
				c0.606-0.029,6.629,0.035,6.629,0.035s-0.187,0.588-0.16,0.875c-0.657,0.039-6.9,0.088-6.9,0.088s-0.071-0.275-0.112-0.346
				C85.639,109.626,85.857,109.382,85.989,109.068z M74.743,106.432c0,0,0.201-0.166,0.293,0.03c0.09,0.197,0.783,0.543,0.783,0.543
				l-1.094-0.037L74.743,106.432z M74.725,107.234c0,0,1.223,0.039,1.624,0.055c0.182,0.123,1.11,0.463,1.11,0.463l-2.748,0.014
				L74.725,107.234z M74.493,109.5c0.253-0.006,3.407,0.063,6.134,0.115c0.127,0.006,0.221,0.17,0.341,0.174
				c0.147,0.002,0.318-0.158,0.456-0.156c1.79,0.045,3.221,0.07,3.221,0.07s0.064,0.359-0.063,0.355
				c-0.136-0.002-0.514-0.043-0.514-0.043s-0.116-0.217-0.486-0.205c-0.366,0.016-0.415,0.211-0.415,0.211l-8.59-0.063
				C74.574,109.96,74.448,109.691,74.493,109.5z M71.725,105.275l0.767-0.004l0.007,1.533l-1.052-0.104L71.725,105.275z
				 M71.442,106.968l1.054,0.105l-0.04,0.643l-0.979,0.043l-0.144-0.236L71.442,106.968z M69.311,107.259
				c0,0,0.265-0.077,0.506-0.213l0.063,0.492c0,0-0.188,0.137-0.245,0.28c-0.13,0-0.338-0.202-0.338-0.202L69.311,107.259z
				 M68.875,109.361c0.242-0.02,0.476-0.479,0.476-0.479l0.395,0.002c0,0,0.349,0.474,0.903,0.455
				c0.556-0.022,0.776-0.405,0.776-0.405l1.001-0.017c0,0,0.019,0.229,0.137,0.315c0.124,0.086,0.48,0.601,0.48,0.601l-5.563,0.041
				c0,0-0.009-0.237-0.109-0.351c0.224-0.069,0.334-0.354,0.132-0.582c0.371-0.012,0.854,0.009,0.854,0.009
				S68.638,109.378,68.875,109.361z M68.332,107.541l0.016,0.189l-1.271-0.016C67.075,107.716,68.036,107.669,68.332,107.541z
				 M61.194,107.203l1.888,0.48c0,0-0.606-0.035-0.74-0.066c-0.122-0.027-0.659,0.047-0.938,0.063
				c-0.034-0.024-0.222-0.152-0.222-0.152L61.194,107.203z M61.261,108.779c0.497,0.021,3.461-0.014,3.461-0.014
				s0.066,0.557,0.488,0.586c0.43,0.029,0.545-0.521,0.545-0.521l1.179,0.074c0,0-0.345,0.449,0.042,0.625
				c-0.493,0.021-2.709,0.184-3.68,0.162c-0.975-0.02-2.534-0.061-2.534-0.061S61.312,109.271,61.261,108.779z M59.358,105.925
				c0.235,0.313,0.915,0.791,0.915,0.791l-1.015-0.086C59.258,106.63,59.322,106.232,59.358,105.925z M60.352,107.041l-0.074,0.572
				l-1.057,0.018l-0.016-0.699L60.352,107.041z M57.202,105.109l0.25,0.029c0,0,0.09,1.709,0.138,1.895
				c0.057,0.188,0.075,0.285,0.075,0.285s-0.213,0.309-0.258,0.334c-0.053,0.023-0.216-0.033-0.276-0.166
				C57.072,107.357,57.202,105.109,57.202,105.109z M57.31,108.693c0,0,0.452,0.594,1.089,0.584
				c0.632-0.008,0.868-0.508,0.868-0.508l1.006,0.01c0,0,0.035,0.389,0.359,0.826c-0.599,0-3.563-0.27-3.783-0.305
				C57.065,109.125,57.31,108.693,57.31,108.693z M52.741,105.656c0.127-0.266,0.168-0.539,0.168-0.539s0.572,0.033,0.649-0.029
				s0.099-0.229,0.356-0.471c0.258-0.24,0.356-0.256,0.938-0.236l0.032,3.227l-1.286,0.035c0,0-0.082-0.479-0.224-0.574
				c0.182-0.09,0.342-0.75-0.292-0.742c-0.441,0.021-0.438,0.412-0.438,0.412l-0.852-0.025
				C51.797,106.708,52.61,105.93,52.741,105.656z M51.555,106.93h1.109c0.03,0.165,0,0.473-0.058,0.644
				c-0.223,0.051-1.59,0.032-2.429,0.041C50.542,107.514,51.555,106.93,51.555,106.93z M43.422,108.658l1.726,0.066
				c0,0-0.057,0.68,0.311,0.932c-0.679,0.072-2.021-0.025-2.021-0.025s-0.157-0.598-0.295-0.652
				C43.356,108.884,43.422,108.658,43.422,108.658z M32.292,79.067c0.213,0.292,0.57,1.837,0.557,1.951
				c-0.015,0.11-0.226,0.147-0.299,0.032c-0.066-0.106-0.314-0.782-0.947-1.381C31.589,79.423,32.002,79.052,32.292,79.067z
				 M27.624,80.732c0.292-0.334,1.021-0.783,1.805-0.869c0.78-0.086,2.072,0.938,2.276,1.162c0.195,0.23,0.778,0.938,0.778,0.938
				l0.746,2.468c-0.221,0.18-0.123,0.342-0.221,0.396c-0.092,0.049-0.272,0.223-0.551,0.362c-0.272,0.133-1.171,0.138-1.505,0.09
				c-0.32-0.049-0.902-0.243-1.073-0.389c0.063-0.144-0.035-0.515-0.096-0.849c0.557-0.031,0.813-0.396,0.898-0.513
				c0.079-0.122,0.066-0.584-0.126-0.776c-0.189-0.201-0.493-0.19-1.047-0.131c-0.554,0.061-2.335,0.258-2.726,0.254
				C26.81,82.71,27.328,81.066,27.624,80.732z M18.201,85.643c0.021,0.135,0.346,0.149,0.346,0.149s0.187,0.16,0.298,0.211
				c0.122,0.045,1.004-0.058,1.004-0.058l0.066,0.591c0,0-0.664,0.403-0.78,0.478c-0.111,0.069-0.229,0.284-0.229,0.284
				s-0.465,0.154-0.706,0.199c-0.237,0.043-0.831-0.015-0.831-0.015s0.005-0.053-0.008-0.295c0-0.248-0.123-0.728-0.258-1.299
				c-0.143-0.568-0.309-1.412-0.24-1.813c0.071-0.402,0.372-1.093,0.833-1.67c0.467-0.574,0.912-0.652,1.421-0.74
				c0.516-0.092,0.919,0.188,1.417,0.627c0.504,0.44,1.485,1.572,1.485,1.572s-1.795,0.426-2.367,0.563
				c-0.581,0.138-1.466,0.363-1.455,0.492C18.206,85.041,18.18,85.507,18.201,85.643z M23.656,83.453
				c-0.103,0.019-0.164,0.027-0.164,0.027s-0.701-1.02-1.229-1.514c-0.526-0.486-0.64-0.629-0.586-0.828
				c0.051-0.205,1.067-0.363,1.067-0.363s0.084,0.602,0.146,0.641c0.059,0.043,2.418-0.383,2.508-0.416
				c0.081-0.023-0.061-0.689-0.061-0.689s0.44-0.203,0.613-0.057c0.168,0.145,0.143,0.311-0.092,0.6
				c-0.229,0.291-0.593,1.236-0.593,1.236s-0.393-0.123-0.661,0.135C24.333,82.484,23.814,83.02,23.656,83.453z M33.236,112.473
				l-0.183-0.976l0.633-0.011l0.005,1.021L33.236,112.473z M33.732,110.173c0,0-0.235-0.133-0.521-0.063
				c-0.225-0.243-1.122-0.935-1.843-0.151c-0.797,0.86-0.133,1.478,0.051,1.69c0.005,0.244-0.062,0.767-0.062,0.767
				s-3.024,0.349-4.303-0.238c-1.263-0.586-2.556-2.086-2.743-3.229c-0.188-1.152-0.025-2.15,0.593-3.22
				c0.624-1.065,2.033-2.093,3.181-2.401c1.144-0.31,3.733-0.084,3.733-0.084s0.161,0.2,0.482,0.217
				c0.326,0.014,2.074,0.125,2.165,0.035c0.092-0.086,0.253-0.185,0.253-0.185l3.093,0.116c0,0-0.01,1.345,0.104,1.697
				c0.114,0.348,1.107,1.762,3.589,2.472c0,0-0.188,0.647,0.061,0.938c0.243,0.291,0.412,0.313,0.396,0.463
				c-0.006,0.139-0.335,0.479-0.438,0.711c-0.1,0.231-0.072,0.487-0.072,0.487l-6.612-0.062c0,0-0.461-0.495-0.527-0.571
				C34.249,109.482,33.732,110.173,33.732,110.173z M53.914,113.248c0,0-8.25-0.324-9.042-0.311c-0.789,0.018-1.659-0.02-1.659-0.02
				s-0.4-0.248-0.764-0.201c-0.362,0.049-0.545,0.098-0.632,0.221c-0.21,0.092-2.067-0.127-2.219-0.17
				c-0.154-0.045-0.425-0.174-0.808-0.178c-0.396,0-1.479-0.07-1.807-0.027c-0.333,0.039-0.478,0.115-0.776,0.115
				c-0.301,0.004-1.563-0.035-1.563-0.035l0.06-1.16l7.246,0.143c0,0,0.108,0.225,0.296,0.266c0.187,0.037,0.635,0.078,0.833,0.01
				c0.196-0.068,0.399-0.316,0.399-0.316l6.103,0.357c0,0,0.2,0.104,0.474,0.146c0.271,0.043,0.563-0.08,0.563-0.08l0.373-0.014
				c0,0-0.016,0.313,0.144,0.307c0.317-0.106,0.684,0,0.684,0l0.021-0.192c0,0,0.271,0.009,0.333-0.039
				c0.061-0.049,0.104-0.196,0.104-0.196l1.757,0.024c0,0,0.027,0.084,0.131,0.151C54.064,112.395,53.914,113.248,53.914,113.248z
				 M54.953,109.835l-2.91,0.043c0,0-0.083-0.178-0.33-0.172c-0.241,0.01-0.88,0.104-0.995,0.146
				c-0.118,0.039-0.164,0.187-0.164,0.187s-0.269-0.22-0.395-0.211c-0.119,0.004-0.429,0.231-0.429,0.231s0-0.261-0.328-0.254
				c-0.34,0.004-3.511-0.14-3.511-0.14s0.361-0.646,0.406-0.92c0.334-0.009,8.667-0.006,8.667-0.006L54.953,109.835z
				 M58.285,113.482c-0.287-0.059-2.559-0.021-2.559-0.021s-0.142-1.354-0.116-1.396c0.029-0.039,0.812-0.063,0.988-0.506
				c0.479,0,2.257-0.017,2.257-0.017s0.14,0.097,0.243,0.166l0.044,0.838C59.144,112.548,58.383,113.341,58.285,113.482z
				 M72.521,114.479c-1.479-0.162-8.278-0.685-9.439-0.737c-1.157-0.058-3.204-0.138-3.204-0.138s0.126-1.168,0.086-1.231
				c-0.046-0.063-0.059-0.521,0.032-0.69c0.333-0.132,7.593-0.017,8.72-0.039c1.126-0.021,4.295,0.028,4.295,0.028
				s0.379,0.146,0.698,0.162c0.322,0.014,0.659-0.172,0.659-0.172l8.745,0.139c0,0,0.177,1.597,0.108,1.777
				c-0.073,0.19-1.138,1.848-1.138,1.848S74,114.641,72.521,114.479z M88.763,116.173c-1.062-0.022-5.563-0.6-5.563-0.6
				s0.813-1.548,0.967-1.894c0.146-0.347-0.024-1.904-0.024-1.904l8.666,0.021c0,0,0.43,0.797,1.09,1.66
				c0.658,0.867,0.896,1.611,0.968,2.16c0.069,0.543,0.117,1.115,0.117,1.115S89.941,115.781,88.763,116.173z M104.992,105.568
				c0.519,0.715,1.119,0.836,1.119,0.836l-1.22-0.014C104.894,106.393,104.925,105.88,104.992,105.568z M101.152,105.104
				c0.177-0.177,0.073-0.756,0.073-0.756l1.595-0.269l0.148,2.198l-1.563-0.131c0,0-0.195-0.313-0.432-0.33
				C101.081,105.682,101.18,105.359,101.152,105.104z M102.933,110.15c-0.216-0.027-1.719-0.063-1.719-0.063
				s-0.138-1.437-0.813-2.453c0.354,0.13,0.771-0.116,0.936-0.36c0.309,0.037,1.69,0.16,1.69,0.16l0.18,2.373
				C103.207,109.807,102.978,110.003,102.933,110.15z M116.069,110.141c-0.42,0.006-11.184,0.058-11.184,0.058
				s-0.126-0.302-0.295-0.357c0.006-0.268,0.139-2.391,0.139-2.391l2.381,0.194c0,0,0.095,0.511,0.316,0.578
				c0.227,0.063,0.812,0.086,1.012,0.017c0.195-0.072,0.234-0.382,0.234-0.382s0.452-0.431,0.229-0.976
				c0.825-0.028,3.452-0.528,4.6-0.961c1.14-0.432,1.659-0.879,1.79-1.057c0.127-0.188,0.069-0.671,0.069-0.671l0.483,0.035
				l0.54,5.414C116.385,109.646,116.105,109.957,116.069,110.141z M122.009,108.896l-2.397,0.031l0.116-0.85
				c0,0,0.271,0.219,0.717,0.348C120.888,108.563,122.009,108.896,122.009,108.896z M118.217,109.9
				c-0.118-0.168-0.258-0.236-0.419-0.266c-0.044-0.232-0.008-0.334-0.008-0.334l0.685-0.031l0.005,0.217
				C118.479,109.486,118.26,109.666,118.217,109.9z M118.712,107.041l-0.202,1.926l-0.662-0.041l0.021-2.566
				c0,0,0.221-0.318,0.233-0.553c0.011-0.227,0.068-0.604,0.157-0.73c0.168-0.025,0.633-0.008,0.633-0.008s-0.29,0.494-0.341,0.965
				C118.494,106.5,118.712,107.041,118.712,107.041z M118.158,88.755c0.082-0.33,0.584-1.057,1.295-1.008
				c0.858,0.058,1.068,0.924,1.049,1.299c-0.025,0.373-0.376,1.267-1.296,1.129C118.275,90.041,118.075,89.089,118.158,88.755z
				 M124.91,109.898l-5.417-0.063l0.032-0.604l5.427,0.035C124.823,109.417,124.91,109.898,124.91,109.898z M126.207,109.869
				c0,0-0.232,0.08-0.29-0.049c-0.062-0.133-0.145-0.52-0.145-0.52s0.27,0,0.554,0.02
				C126.09,109.484,126.207,109.869,126.207,109.869z M127.217,109.884c-0.149,0.052-0.296,0.005-0.296,0.005
				s0.072-0.277-0.121-0.562c0.11-0.076,0.262-0.119,0.369-0.019C127.277,109.414,127.441,109.742,127.217,109.884z
				 M132.347,107.859c0,0-0.199-0.141-0.25-0.32c-0.05-0.191-0.406-0.408-0.406-0.408l-0.01-1.445l0.397,0.031
				c0,0,0.016,0.229,0.071,0.746c0.061,0.521,0.493,0.854,0.493,0.854L132.347,107.859z M139.618,107.535
				c0.654-0.291,1.438-0.941,1.601-1.432c0.162-0.488-0.004-1.326-0.101-1.449c-0.095-0.125-0.144-0.127-0.144-0.127l0.399-0.025
				l0.385,4.266c0,0-0.766,0.148-0.891,0.24c-0.123,0.1-0.226,0.236-0.226,0.236s0.104-0.619-0.015-1.002
				C140.508,107.857,139.973,107.542,139.618,107.535z M141.751,109.982l-1.34,0.025c0,0-0.116-0.053-0.209-0.123
				c0.096-0.049,0.389-0.475,0.389-0.475s0.065,0.076,0.143,0.221c0.081,0.145,0.371-0.012,0.371-0.012l0.692-0.061
				c0,0-0.004,0.146,0.057,0.277C141.822,109.884,141.751,109.982,141.751,109.982z M144.139,106.643
				c-0.38,0.724-0.701,1.313-0.743,1.371c-0.043,0.062-0.101-0.158-0.098-0.373c-0.005-0.216-0.079-3.197-0.079-3.197l1.83-0.133
				C145.049,104.311,144.524,105.921,144.139,106.643z M150.437,108.576c0,0-0.092-0.34-0.121-0.477
				c0.146,0.008,0.651-0.199,0.651-0.199c-0.043,0.145,0.153,0.645,0.153,0.645L150.437,108.576z M154.797,105.805
				c-0.518,0.688-1.072,1.229-1.354,1.428c-0.224-0.067-0.915,0.021-0.915,0.021l-0.086-0.096c0,0,0.811-0.604,0.985-1.107
				c0.174-0.514,0.027-1.029-0.068-1.277c0.313-0.111,0.514-0.48,0.514-0.48l1.78,0.076
				C155.654,104.363,155.309,105.111,154.797,105.805z M166.646,108.585c-0.592,0.248-1.009,0.156-1.477,0.013
				c0.531-0.554,0.11-1.111-0.031-1.248c0.138-0.021,0.488-0.228,0.845-0.485c0.389,0.391,0.872,0.184,1.007-0.017
				c0.254,0.017,1.289,0.603,1.289,0.603C167.971,107.802,167.24,108.337,166.646,108.585z M168.866,105.875
				c0,0,0.017-0.498,0.049-0.537c0.025-0.039,0.308-0.02,0.308-0.02l0.192,0.756C169.291,106.289,168.866,105.875,168.866,105.875z
				 M170.071,92.932c-0.063,0.224-0.309,1.038-0.309,1.038s-0.682,0.035-0.758,0.104c-0.077,0.065-4.47-0.334-4.47-0.334
				l-0.089-0.271c0,0,0.629,0.053,0.667-0.313c0.337-0.092,2.712-0.445,3.682-0.459c0.689-0.088,1.324-0.094,1.324-0.094
				S169.985,92.746,170.071,92.932z M171.764,92.395c0.116-0.123,8.996,0.556,8.996,0.556s-0.062,0.438,0.036,0.504
				c-0.411-0.052-8.21-0.783-8.496-0.802c-0.287-0.021-0.702,0.022-0.702,0.022l-0.008-0.161
				C171.59,92.514,171.717,92.458,171.764,92.395z M186.042,104.848c-0.074,0.063-0.498-0.019-0.58-0.074
				c-0.086-0.062-0.189-0.071-0.364-0.08c-0.18,0.005-3.076-0.012-3.076-0.012s-0.088-0.181,0.051-0.205
				c0.142-0.026,3.943-0.065,4.006,0.062C186.135,104.671,186.118,104.779,186.042,104.848z M191.093,104.738
				c0,0-3.269,0.004-3.433-0.021c-0.164-0.023-0.402,0.145-0.402,0.145l0.016-0.355l3.922,0.041
				C191.139,104.626,191.093,104.738,191.093,104.738z M191.725,95.02c0,0-0.102,0.229-0.266,0.386
				c-0.606-0.035-0.817,0.182-0.817,0.182l-18.812-1.307c0,0-0.189,0.049-0.266-0.189c-0.071-0.231,0.041-1.172,0.041-1.172
				s1.177,0.041,1.991,0.104c1.178,0.039,7.052,0.813,7.052,0.813s0.015,0.156-0.021,0.252c-0.032,0.094,0.176,0.215,0.464,0.231
				c0.287,0.021,0.313-0.284,0.269-0.469c0.182,0.039,0.313-0.024,0.335-0.101c0.021-0.16-0.024-0.172-0.309-0.242
				c0.217-0.178,0.159-0.481,0.159-0.481l10.404,0.687C191.104,94.316,191.725,95.02,191.725,95.02z M195.541,95.824l-2.152-0.092
				c0,0-0.229-0.191-0.403-0.195c0.003-0.176,0.021-0.25,0.069-0.275c0.049-0.027,0.098,0.031,0.279-0.141
				c0.419-0.041,1.961,0.115,1.961,0.115s-0.07,0.396,0.032,0.41c0.115,0.021,0.234,0.014,0.234,0.014L195.541,95.824z
				 M195.472,94.244c0,0-1.569-0.066-1.991-0.104c-0.118-0.229-0.55-0.381-0.55-0.381l2.709,0.156
				C195.474,94.068,195.472,94.244,195.472,94.244z M198.653,96.134l-1.688-0.159l-0.188-0.673l1.937,0.154L198.653,96.134z
				 M198.896,94.449c-0.298,0.006-2.181-0.084-2.181-0.084s-0.146-0.279-0.278-0.346c0.308-0.082,2.604,0.104,2.604,0.104
				S198.935,94.355,198.896,94.449z M205.896,96.574c0,0-0.52-0.068-0.769-0.059c-0.243,0.008-5.023-0.357-5.023-0.357l0.017-0.621
				l6.102,0.396C205.779,96.1,205.896,96.574,205.896,96.574z M208.843,96.607c-0.164-0.045-0.554-0.092-0.686,0.039
				c-0.263,0.047-0.432-0.051-0.432-0.051s-0.063-0.229-0.169-0.305c0.223-0.139,0.377-0.359,0.448-0.584
				c0.313-0.021,0.989,0.104,0.989,0.104S208.84,96.287,208.843,96.607z M212.91,96.699l0.112-0.865c0,0,2.029,0.246,2.226,0.291
				c0.189,0.047,0.543-0.199,0.543-0.199l0.236,0.885L212.91,96.699z M224.578,103.313c2.752-1.049,4.184-2.705,4.501-2.979
				c0.381,0.045,0.928-0.477,1.183-0.658c0.451,0.006,0.795-0.301,0.795-0.301C228.609,103.016,226.105,103.121,224.578,103.313z
				 M230.372,99.391c0,0,0.28-0.341,0.521-0.621c0.021,0.103,0.33,0.185,0.33,0.185C230.673,99.738,230.372,99.391,230.372,99.391z
				 M231.053,76.173l0.5-0.198c0,0,0.133,0.192,0.395,0.147c0,0,0.35,0.333,0.604,1.139c0.25,0.802,0.535,1.677,0.535,1.677
				l-0.802,0.248L231.053,76.173z M234.841,89.246c-0.128,1.082-0.651,2.736-0.94,3.479c-0.295,0.735-0.644,1.17-0.644,1.17
				s0.601-2.271,0.726-3.679c0.121-1.396,0.199-3.771-0.271-5.854c-0.481-2.084-0.862-3.473-0.862-3.473l0.66-0.175
				c0,0,1.049,2.938,1.227,4.365C234.912,86.501,234.968,88.167,234.841,89.246z"/>
		</g>
	</g>
</g>
<g id="Shape_10_1_" enable-background="new    ">
	<g id="Shape_10">
		<g>
			<path d="M184.247,18.394c-0.778-11.676-4.048-15.412-7.006-14.167c-2.957,1.245-4.202,6.694-4.202,6.694
				c-6.072,6.694-9.812,6.54-24.912,7.783c-15.103,1.245-52.271,1.946-52.271,1.946c-0.078-0.778,0.232-1.557,0.232-1.557
				c0.585-1.283,1.83-1.868,3.269-1.868c1.44,0,1.053-0.467,1.053-0.467c-0.43-0.429-2.513-0.487-3.833,0.429
				c-1.84,1.269-1.656,3.444-1.656,3.444H92.03l-0.087-0.526c-0.263-0.642-2.306-0.525-2.306-0.525v-4.418h1.625
				c0.258,0,0.467-0.209,0.467-0.467v-1.323c0-0.259-0.208-0.468-0.467-0.468h-4.398c-0.258,0-0.468,0.209-0.468,0.468v1.323
				c0,0.258,0.209,0.467,0.468,0.467h1.46v4.418c0,0-1.692-0.059-2.248,0.352c-0.556,0.408-0.438,1.547-0.438,1.547h-1.111
				c-0.026-0.788-0.074-0.943-0.074-0.943c-0.272-0.855-2.376-0.896-2.376-0.896v-4.478h1.438c0.258,0,0.468-0.209,0.468-0.467
				v-1.323c0-0.259-0.209-0.468-0.468-0.468H79.12c-0.26,0-0.47,0.209-0.47,0.468v1.323c0,0.258,0.209,0.467,0.47,0.467h1.282v4.478
				c0,0,0,0-0.737,0c-0.74,0-1.521,0.271-1.832,0.739c-0.312,0.467-0.312,1.129-0.312,1.129H76.91
				c-0.028-1.257-0.526-1.373-0.905-1.636c-0.379-0.263-1.693-0.175-1.693-0.175v-4.535h1.306c0.258,0,0.467-0.209,0.467-0.467
				v-1.323c0-0.259-0.208-0.468-0.467-0.468h-4.398c-0.258,0-0.468,0.209-0.468,0.468v1.323c0,0.258,0.21,0.467,0.468,0.467h1.277
				v4.535c-0.292,0-1.861-0.059-2.389,0.643c-0.524,0.7-0.379,1.479-0.379,1.479s-28.479,0.078-31.594,0
				c-3.115-0.078-6.385,1.791-6.385,1.791l-9.885,0.078L8.964,23.61c-0.112-0.13-0.313-0.351-0.646-0.701
				c-1.32-1.4-3.734-1.012-3.893-1.635c-0.156-0.623-1.868-0.467-2.802-0.545c-0.935-0.078-0.896,3.854-0.976,4.399
				c0,0-0.075,1.09,0.079,2.684c0.159,1.628,0.352,1.753,1.52,1.753s1.945,0.116,2.103-0.351c0.155-0.467,1.089,0.077,2.569-0.389
				c1.479-0.47,1.868-1.56,1.868-1.56h5.682l7.318,0.078l5.512,0.311c-0.083,0.005-0.553,0.161-2.087,2.881
				c-1.712,3.037-1.635,8.721,1.012,13.469c2.646,4.749,8.251,6.617,10.198,6.617c1.946,0,11.443,0.154,11.443,0.154
				s1.243,1.09,3.346,1.09s16.348-0.155,18.217-0.155h0.077v7.707c0,0.516,0.418,0.935,0.935,0.935h4.903
				c0.517,0,0.934-0.419,0.934-0.935V54.59h1.015v4.905c0,0.516,0.418,0.935,0.935,0.935h5.062c0.515,0,0.933-0.419,0.933-0.935
				V54.59h0.856v4.75c0,0.515,0.418,0.934,0.935,0.934h4.749c0.515,0,0.935-0.419,0.935-0.934v-8.72
				c1.799-0.015,36.552-0.313,38.144-0.389c1.635-0.078,1.4-0.701,1.4-0.701c2.023,0,9.283-0.231,9.283-0.231l1.867-0.291
				c0,0,0,0,0.059,0.522c0.06,0.525,1.109,0.467,1.109,0.467c6.654-0.231,8.699-6.129,8.99-9.105c0.293-2.979-0.353-3.795-0.7-3.795
				s0,0.877-0.233,3.094c-0.232,2.22-2.394,4.516-2.394,4.516l-1.245-1.012c0,0,1.012-2.336,1.559-6.149
				c0.544-3.813-1.093-9.188-1.093-9.188s2.336-0.311,12.302,1.09c9.965,1.402,11.833,6.229,11.833,6.229s1.242,10.433,6.069,7.007
				C183.469,39.257,185.025,30.07,184.247,18.394z M70.051,41.048H51.29c0,0-3.424,0.389-4.903,2.725c0,0-0.701,1.09-0.623,2.567
				c0,0-7.083,0.467-9.497,0.156c-2.413-0.311-5.292-2.102-7.005-5.139c-1.713-3.034-1.246-7.628-0.079-9.886
				c1.168-2.258,3.736-3.738,3.736-3.738h37.132V41.048z M145.56,36.22c0,2.258,0.078,4.28-1.713,6.694s-4.049,2.299-4.049,2.299
				l-6.616,0.037c0,0,0.623-1.635-0.428-3.426c-1.247-2.125-6.422-2.102-6.422-2.102h-22.241c0.306-0.103,0.602-0.229,0.874-0.39
				h20.511v-1.401h-5.631v-0.776h-2.258v-0.623h1.09v-0.936h-3.035v0.936h1.09v0.623h-2.258v0.776h-8.063
				c0.427-0.668,0.677-1.461,0.677-2.313c0-2.381-1.938-4.318-4.32-4.318s-4.317,1.938-4.317,4.318c0,1.911,1.245,3.534,2.971,4.104
				h-9.417V28.279h0.779c0,0,40.478,0,46.781,0C145.87,28.279,145.56,33.963,145.56,36.22z M102.768,39.475
				c-2.125,0-3.853-1.729-3.853-3.854c0-2.123,1.728-3.853,3.853-3.853s3.854,1.729,3.854,3.853
				C106.621,37.745,104.893,39.475,102.768,39.475z"/>
		</g>
	</g>
</g>
<g id="Shape_11_1_" enable-background="new    ">
	<g id="Shape_11">
		<g>
			<path d="M428.036,67.238c-0.021-0.337-0.08-0.637-0.18-0.902c-0.172-0.498-0.454-0.862-0.863-1.142
				c0.553-2.218,0.764-4.195,0.751-6.056c-0.019-2.98-1.095-3.778-1.81-4.188c-0.971-0.558-1.404-0.769-2.049-1.065h-0.021
				c-2.512-7.233-49.022-7.378-50.949-0.804c-0.122,0.029-0.246,0.063-0.372,0.102l-0.19-0.003
				c-2.284,1.005-3.553,1.442-3.592,4.398c-0.001,0.106-0.001,0.211,0,0.315c-0.17-0.139-0.355-0.271-0.563-0.402
				c-0.075-0.063-0.146-0.121-0.206-0.176c-0.041-0.021-0.102-0.038-0.174-0.051c-0.793-0.439-1.658-0.731-2.553-0.998h-0.018
				c-4.66-6.285-41.729-5.239-44.334,0.891c-0.035,0.012-0.071,0.022-0.108,0.034c-0.791,0.234-1.601,0.549-2.439,1.037
				c-0.085,0.074-0.172,0.153-0.258,0.239c-0.956,0.766-1.592,1.92-1.563,3.843c0.021,1.662,0.29,3.109,1.756,3.921l0.14,3.637
				c-0.043,1.9,0.701,3.744,1.889,5.701c0.924,1.522,1.367,2.732,1.57,4.147l0.405,7.31l0.257,0.283l-0.159-0.004l0.02,0.219
				c-0.031-0.022-0.063-0.047-0.086-0.075c-0.014,0.096,0.024,0.17,0.099,0.225l0.01,0.113c-0.001-0.004-0.003-0.006-0.004-0.011
				c-0.054,0.097-0.039,0.168,0.021,0.22l0.004,0.049c-0.475,0.144-0.917,0.33-0.915,0.465c-0.004,0.033-0.002,0.066,0.005,0.101
				c-0.007-0.021-0.012-0.041-0.016-0.063l0.238,4.201c-0.022,0.104-0.014,0.196,0.045,0.272c-0.039,0.041-0.062,0.082-0.061,0.125
				c0,0.032,0.014,0.063,0.038,0.097c-0.03,0.034-0.048,0.071-0.047,0.108c0,0.088,0.094,0.17,0.256,0.239l0.012,1.177l0.539,0.42
				l0.107,1.944c0.563,1.359,2.426,0.896,2.559-0.045l-0.087-1.903c0.001-0.002,0.002-0.002,0.003-0.002c-0.001,0-0.002,0-0.003,0
				l-0.001-0.029l0.225-0.11l-0.009,0.696c1.086,1.349,3.506,2.308,6.618,2.921l-0.047,1.463c0.12,0.086,0.247,0.162,0.379,0.229
				c-0.053,0.045-0.082,0.092-0.082,0.142c0,0.032,0.015,0.065,0.038,0.096c-0.029,0.035-0.048,0.072-0.048,0.108
				c0,0.089,0.093,0.173,0.254,0.244v1.177l0.533,0.424l0.088,1.945c0.552,1.363,2.417,0.916,2.561-0.021l-0.065-1.904
				c0,0,0.001,0,0.002,0c-0.001,0-0.002,0-0.002,0l-0.003-0.027l0.508-0.248l-0.021-1.387c0.109-0.063,0.173-0.129,0.173-0.201
				c0-0.031-0.014-0.064-0.038-0.096c0.031-0.035,0.051-0.072,0.051-0.107c0-0.063-0.042-0.117-0.117-0.172
				c0.034-0.02,0.065-0.035,0.102-0.057l1.455-0.898c8.146,0.537,17.953-0.49,22.55-2.613l2.225,0.188
				c0,0.002-0.001,0.004-0.001,0.006c-0.005,0.09,0.083,0.178,0.239,0.258l-0.059,1.176l0.514,0.451l-0.007,1.945
				c0.481,1.393,2.366,1.035,2.558,0.105l0.024-1.906c0,0,0.002,0,0.003,0c-0.001,0-0.002,0-0.002,0v-0.029l0.52-0.223l0.048-1.385
				c0.111-0.059,0.18-0.123,0.184-0.193c0.001-0.033-0.012-0.063-0.033-0.1c0.033-0.031,0.054-0.066,0.056-0.104
				c0.002-0.045-0.021-0.09-0.063-0.133c0.041-0.033,0.077-0.068,0.107-0.107l0.022-4.426c0.019-0.049,0.021-0.104,0.015-0.158
				c0-0.002-0.001-0.006-0.003-0.006c0-0.027-0.003-0.063-0.01-0.092l-0.001,0.063c-0.063-0.178-0.321-0.299-0.688-0.394
				c0.003-0.039-0.01-0.078-0.043-0.121l-0.001-0.063c0.073-0.078,0.084-0.174-0.011-0.282c0.001,0.002,0,0.006,0,0.008
				l-0.005-0.149c0.023-0.039,0.04-0.08,0.047-0.125c0.02-0.01,0.037-0.021,0.059-0.027l0.123-0.016
				c0.033-1.162,0.021-2.188,0.011-3.188l0.043-2.617l6.586-0.563l0.118,2.082c-0.023,0.104-0.013,0.197,0.046,0.274
				c-0.04,0.041-0.062,0.082-0.062,0.125c0,0.031,0.014,0.063,0.037,0.097c-0.029,0.035-0.048,0.069-0.048,0.108
				c0.001,0.088,0.096,0.17,0.258,0.239l0.012,1.177l0.539,0.42l0.105,1.946c0.564,1.357,2.428,0.895,2.562-0.047l-0.064-1.432
				c0.893,2.146,4.643,3.643,9.613,4.532l-0.043,1.336c0.121,0.087,0.247,0.162,0.379,0.229c-0.053,0.046-0.08,0.095-0.08,0.142
				c0,0.033,0.015,0.063,0.037,0.099c-0.03,0.035-0.049,0.069-0.049,0.106c0,0.09,0.093,0.172,0.254,0.244v1.176l0.535,0.427
				l0.089,1.946c0.552,1.36,2.417,0.916,2.561-0.021l-0.066-1.906c0,0,0.001,0,0.002,0c-0.001,0-0.002,0-0.002,0l-0.001-0.028
				l0.506-0.248l-0.021-1.383c0.108-0.063,0.173-0.132,0.173-0.203c0-0.032-0.014-0.063-0.036-0.097
				c0.029-0.034,0.048-0.071,0.048-0.108c0-0.06-0.041-0.114-0.117-0.168c0.034-0.021,0.066-0.038,0.102-0.06l1.248-0.771
				c9.329,0.803,20.47-0.014,25.939-2.223v0.074l2.841,0.24c0,0.002-0.001,0.004-0.001,0.006c-0.005,0.088,0.083,0.176,0.241,0.256
				l-0.061,1.178l0.516,0.447l-0.007,1.951c0.479,1.391,2.365,1.033,2.556,0.104l0.025-1.905c0.001-0.002,0.003-0.002,0.004-0.002
				h-0.004l0.001-0.027l0.519-0.226l0.049-1.383c0.112-0.058,0.179-0.121,0.184-0.192c0.002-0.031-0.012-0.064-0.032-0.099
				c0.032-0.033,0.052-0.067,0.054-0.104c0.002-0.047-0.02-0.09-0.063-0.135c0.041-0.031,0.077-0.068,0.107-0.107l0.023-4.424
				c0.018-0.051,0.021-0.104,0.014-0.16c0-0.002-0.002-0.004-0.003-0.006c0-0.026-0.003-0.06-0.009-0.09l-0.001,0.063
				c-0.063-0.18-0.325-0.301-0.688-0.396c-0.004-0.025-0.018-0.054-0.037-0.082l0.001-0.063c0.067-0.065,0.088-0.146,0.03-0.244
				c0.048-0.013,0.097-0.021,0.145-0.033l0.413-7.146c0.208-1.292,0.657-2.488,1.479-3.572c0.813-1.076,1.34-2.143,1.688-3.198
				c0.513-1.44,0.69-2.84,0.756-4.229c0.006-0.059,0.011-0.118,0.017-0.177C428.069,68.235,428.077,67.698,428.036,67.238z
				 M324.052,87.878c-0.002-0.002-0.004-0.002-0.006-0.006l-0.014-0.103c0.063-0.076,0.063-0.158-0.024-0.246v0.009l-0.02-0.148
				c0.029-0.059,0.043-0.12,0.029-0.188c-0.038,0.054-0.085,0.103-0.135,0.146l-0.096-0.004l0.207-0.366l-0.003-0.052
				c0.009-0.008,0.017-0.014,0.021-0.021l-0.37-5.94l-0.069-1.209c-0.006-0.074-0.012-0.146-0.02-0.219
				c-0.115-1.896-1.014-3.448-1.87-4.971c-0.725-1.285-1.361-2.406-1.465-3.583c-0.092-1.046-0.245-2.492-0.334-3.644
				c0.353,0.099,0.747,0.012,1.083-0.205l1.312,0.392l2.708,20.388L324.052,87.878z M325.386,92.811h-0.002l0.005-0.3
				L325.386,92.811z M325.409,91.085v-0.008l0.002,0.01C325.41,91.087,325.41,91.087,325.409,91.085z M364.247,91.087
				c-0.027-0.026-0.057-0.057-0.077-0.086c-0.021,0.097,0.012,0.172,0.077,0.231l-0.001,0.11c-0.001-0.002-0.003-0.006-0.004-0.01
				c-0.015,0.024-0.022,0.049-0.028,0.07l-1.915-0.263v-1.285c-0.001,0.007-0.004,0.013-0.009,0.019l0.438-4.483l0.258-0.021
				l0.108,0.021l0.002-0.029l1.06-0.09c-0.048,1.838-0.09,3.674-0.138,5.513l0.021,0.008v0.015c0.07,0.043,0.143,0.08,0.214,0.11
				L364.247,91.087z M365.728,91.027l-0.044-0.006c0.028-0.01,0.059-0.02,0.086-0.027C365.755,91.005,365.74,91.018,365.728,91.027z
				 M369.32,66.669c0.225-1.033,0.396-2.05,0.542-3.083c0.126,1.061,0.257,2.141,0.386,3.028L369.32,66.669z M371.535,66.538
				c-0.206-1.238-0.393-2.531-0.447-3.771c0.334,0.104,0.699,0.021,0.999-0.247c0.604,0.209,1.241,0.398,1.865,0.572l0.335,3.284
				L371.535,66.538z M425.863,64.207c0.006,0,0.014,0.003,0.02,0.008c0.046,0.104,0.079,0.251,0.073,0.504
				c-0.063-0.021-0.132-0.04-0.199-0.06c-0.013,0.319-0.019,0.64-0.014,0.965c-0.005,0.001-0.008,0.003-0.013,0.005
				c0.005,0.001,0.008,0.002,0.013,0.003c0.001,0.095,0.004,0.19,0.009,0.287c-0.006-0.004-0.012-0.009-0.016-0.014
				c-0.012-0.161-0.018-0.33-0.019-0.488C425.713,64.814,425.747,64.207,425.863,64.207z M425.937,66.708
				c-0.013,0.032-0.025,0.05-0.043,0.05c-0.019,0-0.036-0.029-0.054-0.079c0.015,0.002,0.026,0.005,0.042,0.01
				c0.001,0.001,0.002,0.003,0.003,0.005c0.011,0.002,0.021,0.005,0.027,0.007C425.92,66.703,425.928,66.706,425.937,66.708z
				 M426.271,67.755c-0.008,0.001-0.013,0.002-0.019,0.003c0.017,0.621-0.081,1.222-0.133,1.834
				c-0.217,2.654-0.449,3.488-1.638,5.123c-0.021,0.027-0.043,0.055-0.063,0.081c-0.372,0.443-0.696,0.912-0.978,1.403
				c-0.659,1.092-1.104,2.267-1.185,3.326c-0.02,0.1-0.036,0.197-0.054,0.299l-0.438,7.25c0.048,0.026,0.096,0.049,0.143,0.071
				l-0.004,0.099c-0.001-0.004-0.003-0.007-0.004-0.011c-0.022,0.039-0.038,0.074-0.043,0.104l-2.099-0.287l0.01-0.141l0.002-0.002
				c1.412-7.361,2.256-15.224,2.887-22.65c0.643,0.116,1.063,0.628,1.618,1.948c0.114,0.272,0.199,0.513,0.274,0.722l-0.465-1.033
				l0.011-0.007l-0.166-0.34l-0.129-0.287l-0.011,0.005l-0.016-0.029l-0.91,0.532c0.018,0.041,0.029,0.081,0.046,0.121
				c0.097,0.714,0.398,1.234,0.843,1.63l0.82-0.517c0.229,0.644,0.354,0.974,0.934,1.009c0.271,0.017,0.522-0.192,0.76-0.62
				C426.275,67.506,426.274,67.628,426.271,67.755z"/>
		</g>
	</g>
</g>
<g id="Shape_13_1_" enable-background="new    ">
	<g id="Shape_13">
		<g>
			<path d="M294.305,124.731c0,0,1.549-1.935,0.581-3.481c0,0-12.385,1.162-6.772-22.06c0,0,1.16-3.483,4.26-0.969
				c0,0,1.738,0.581,0.771-1.16c0,0-2.9-3.097-0.968-5.226c0,0,5.226-11.416-0.581-20.511c0,0-7.359-6.305-13.242-6.581
				c-0.021-0.552-0.037-0.845-0.037-0.845c-0.545-0.76-1.174-1.274-1.838-1.607l0.459-32.063l0.221,1.089l0.508,1.306
				c0.662,0.062,1.152-0.292,1.521-0.805c0.314-0.35,0.582-0.853,0.698-1.568c0.229-0.801,0.296-1.496,0.296-1.496
				c0.088-0.55,0.174-1.127,0.26-1.723c0.078-0.468,0.16-0.979,0.246-1.519h2.541v-0.001l0.067-0.057
				c-0.36,1.166,1.263,0.964,1.263,0.964c1.307-1.451,2.321-0.798,2.321-0.798c2.179,0.507,1.888-0.871,1.888-0.871
				c0.006-0.087-0.002-0.164-0.018-0.234c0.053-0.205,0.018-0.383,0.018-0.383c0.072-0.942-1.23-0.87-1.23-0.87
				c-1.383,0.58-1.524-0.291-1.524-0.291c-1.671-0.779-2.102,0.236-2.212,0.751l-2.831-0.019c0.269-1.792,0.543-3.774,0.761-5.689
				h2.612l0.066-0.058c-0.358,1.166,1.266,0.964,1.266,0.964c1.306-1.451,2.321-0.798,2.321-0.798
				c2.177,0.508,1.887-0.871,1.887-0.871c0.007-0.088-0.002-0.164-0.02-0.235c0.056-0.203,0.02-0.381,0.02-0.381
				c0.073-0.944-1.232-0.871-1.232-0.871c-1.379,0.58-1.522-0.29-1.522-0.29c-1.671-0.78-2.103,0.235-2.212,0.749l-2.994-0.019
				c0.309-3.282,0.374-6.09-0.157-6.969c-0.011-0.037-0.021-0.073-0.032-0.108c-0.01-0.141-0.056-0.503-0.27-0.744
				c-0.487-1.143-1.083-1.689-1.083-1.689l-1.052-0.063c-0.727-0.919-1.729-0.132-1.729-0.132c-0.006,0.01-0.011,0.02-0.017,0.029
				L277.084,6.5c-2.688,1.597-0.967,6.772-0.967,6.772c-1.193,2.486-2.028,4.767-2.561,6.398h-2.133
				c0.12-0.94-1.309-0.762-1.309-0.762c-0.943,0.998-2.322,0.563-2.322,0.563c-2.177-0.509-1.887,1.106-1.887,1.106
				c-0.01,0.087,0.002,0.164,0.018,0.234c-0.053,0.205-0.018,0.383-0.018,0.383c-0.072,0.942,1.23,0.87,1.23,0.87
				c1.379-0.581,1.524,0.29,1.524,0.29c1.589,0.741,2.058-0.14,2.19-0.67c0.004,0.03,0.002,0.054,0.002,0.054h2.078
				c-0.076,0.28-0.109,0.435-0.109,0.435c-0.5,1.83-0.783,3.516-0.945,4.844h-2.125c0.121-0.94-1.311-0.762-1.311-0.762
				c-0.941,0.998-2.319,0.563-2.319,0.563c-2.181-0.508-1.89,1.106-1.89,1.106c-0.006,0.088,0.003,0.164,0.02,0.235
				c-0.053,0.203-0.02,0.381-0.02,0.381c-0.07,0.944,1.234,0.871,1.234,0.871c1.379-0.58,1.522,0.29,1.522,0.29
				c1.588,0.741,2.056-0.139,2.19-0.67c0.004,0.031,0.002,0.054,0.002,0.054h2.355l-1.328,14.599l-3.549,33.81
				c-0.076,0.697-0.15,1.399-0.225,2.107l-2.137,20.361l0.684,0.064c-0.034,0.756-0.069,1.51-0.104,2.264l-1.16,12.764l0.045,0.414
				c-0.006,0.012-0.01,0.021-0.017,0.031l-0.304-0.01c-0.398-0.014-0.734,0.303-0.747,0.701c-0.015,0.398,0.304,0.732,0.7,0.748
				l0.305,0.012c0.073,0.088,0.158,0.176,0.251,0.26l0.399,3.699c-0.027,1.98-0.051,3.928-0.063,5.818
				c-0.362,0.383-0.596,1.063-0.28,2.258c0,0,0.096,0.393,0.264,1.021c-0.006,0.98-0.006,1.943-0.008,2.893
				c-0.709-0.049-12.143-0.688-16.219,9.438c0,0-3.483,12.047,11.756,15.965c0,0,6.24,2.178,18.721,1.307l-0.01-0.043
				c2.416-0.096,17.838-1.281,19.264-16.259C297.785,143.31,299.336,134.406,294.305,124.731z M271.335,33.054l0.22-3.967h0.141
				c-0.027,0.528-0.027,0.829-0.027,0.829L271.335,33.054z M290.436,81.387c-0.388,9.288-6,19.157-6,19.157
				c-1.16,1.547-0.771,2.709-0.771,2.709c-0.808,3.059-3.479,2.102-4.36,1.689c-0.078-15.332-0.518-29.022-0.781-36.055
				C290.271,69.963,290.436,81.387,290.436,81.387z M280.13,133.996l0.224-0.213l1.521,2.243l-0.363,1.959l-2.957,3.923
				c0.172-3.087,0.309-6.275,0.418-9.521v1.681L280.13,133.996z M281.001,141.324l-0.653,1.379l-0.798-0.218l1.071-1.446
				L281.001,141.324z M292.95,146.403c0,0-3.289,10.063-14.515,9.097c0,0-0.347-0.021-0.66,0.281
				c-0.045-0.082-0.139-0.253-0.278-0.49c0.362-3.371,0.662-7.017,0.901-10.842l2.238,0.066l1.232-3.48l-0.771-0.644l1.568-2.115
				v-3.192l-1.827-1.765l0.666-0.631l0.072-0.799l-0.728-0.58l0.871-0.58v-0.942l-2.674-0.142
				c0.196-6.937,0.268-14.062,0.262-20.944l2.799,0.164c1.938,1.936,2.129,7.739,2.129,7.739S297.014,131.117,292.95,146.403z"/>
		</g>
	</g>
</g>
</svg>
