<?xml version="1.0" encoding="utf-8"?>
<!-- Generator: Adobe Illustrator 16.0.0, SVG Export Plug-In . SVG Version: 6.00 Build 0)  -->
<!DOCTYPE svg PUBLIC "-//W3C//DTD SVG 1.1//EN" "http://www.w3.org/Graphics/SVG/1.1/DTD/svg11.dtd">
<svg version="1.1" id="Layer_1" xmlns="http://www.w3.org/2000/svg" xmlns:xlink="http://www.w3.org/1999/xlink" x="0px" y="0px"
	 width="388px" height="158px" viewBox="0 0 388 158" enable-background="new 0 0 388 158" xml:space="preserve">
<g>
	<g id="Shape_6_1_" enable-background="new    ">
		<g id="Shape_6">
			<g>
				<path d="M39.209,129.461c-3.5-7.963-1.926-8.227,0.522-14.787c2.45-6.563-0.175-11.898-2.448-11.287
					c-2.275,0.611-1.574,2.104-2.714,4.375c-1.137,2.273-2.272,3.676-5.16,3.676c-2.889,0-4.025-1.664-4.025-1.664l-0.612-62.73
					c1.14-3.237,5.075-4.374,5.163-4.637c-0.35-5.427-1.313-6.389-2.363-8.488c-1.05-2.1-0.875-3.85,1.052-4.549
					c1.924-0.7,3.322-4.813,0.698-6.825c-2.625-2.012-5.687-0.263-6.299,1.575c-0.098,0.294-0.31,1.008-0.597,1.999l-0.771-0.437
					c0,0,0.115-0.312-0.344-0.688s-1.017-0.459-1.247-0.264c-0.173,0.149-0.61,0.775,0.313,1.247
					c0.771,0.396,1.116,0.109,1.116,0.109l0.813,0.445c-0.229,0.804-0.502,1.754-0.797,2.793l-0.642-0.362
					c0,0,0.113-0.313-0.347-0.688s-1.017-0.46-1.247-0.263c-0.174,0.148-0.611,0.774,0.313,1.247
					c0.771,0.394,1.116,0.109,1.116,0.109l0.688,0.376c-0.268,0.945-0.552,1.956-0.842,2.983l-0.568-0.319
					c0,0,0.115-0.313-0.344-0.688c-0.459-0.378-1.017-0.46-1.247-0.263c-0.173,0.147-0.613,0.773,0.313,1.246
					c0.771,0.395,1.114,0.109,1.114,0.109l0.614,0.335c-0.267,0.949-0.536,1.91-0.798,2.85l-0.603-0.341
					c0,0,0.113-0.312-0.346-0.688s-1.018-0.459-1.247-0.263c-0.174,0.148-0.611,0.774,0.313,1.247
					c0.771,0.394,1.115,0.108,1.115,0.108l0.648,0.354c-0.279,0.999-0.549,1.966-0.798,2.859l-0.541-0.306
					c0,0,0.115-0.312-0.345-0.689c-0.459-0.377-1.019-0.459-1.247-0.263c-0.173,0.149-0.613,0.775,0.312,1.248
					c0.771,0.396,1.116,0.108,1.116,0.108l0.587,0.319c-0.308,1.103-0.578,2.075-0.79,2.836l-0.553-0.313
					c0,0,0.115-0.313-0.344-0.688c-0.459-0.378-1.019-0.46-1.247-0.263c-0.173,0.148-0.613,0.774,0.312,1.246
					c0.771,0.396,1.115,0.11,1.115,0.11l0.6,0.326c-0.225,0.811-0.356,1.292-0.356,1.292l1.75,2.887l-1.05,56.259
					c0,0-1.487,2.451-4.552,1.839c-3.062-0.611-4.375-4.023-4.462-7.523c-0.088-3.5-4.11-4.286-5.773,1.925
					c-1.662,6.213,1.313,11.987,2.013,15.313c0.7,3.321,1.225,5.512,0.875,8.836s-2.363,4.985-4.287,11.11
					c-1.925,6.125-2.188,10.763,0.612,14.699s7.087,5.512,10.148,6.476c3.063,0.963,8.926,1.051,8.926,1.051
					c6.475,0.522,16.149,0.981,20.647-7.264C45.333,144.072,42.709,137.422,39.209,129.461z"/>
			</g>
		</g>
	</g>
	<g id="Shape_8_1_" enable-background="new    ">
		<g id="Shape_8">
			<g>
				<path d="M155.893,97.189c-0.367-0.264-1.093-0.646-2.168-0.973c-1.06-0.318-4.329-1.215-4.329-1.215s-1.379-7.404-1.457-7.873
					c-0.082-0.465-0.588-1.965-0.688-2.286c-0.104-0.323-0.668-2.954-0.83-3.823c-0.161-0.871-1.172-5.545-1.375-6.6
					c-0.204-1.051-1.822-8.925-2.065-10.179c-0.243-1.254-1.313-7.041-1.313-7.041s2.874-2.229,3.396-2.634
					c0.527-0.405,0.974-0.708,1.316-0.89c0.345-0.183,3.275-1.822,3.945-2.207c0.67-0.386,1.763-0.991,1.843-1.052
					c0.081-0.063,0.081-0.203,0.264-0.345c0.181-0.141,0.565-0.524,0.565-0.524l-0.223-0.507c0,0-5.021-0.669-5.931-0.771
					c-0.911-0.103-2.61-0.324-2.61-0.324l-16.735,9.775l-40.115,23.46l-12.709,7.449c0,0,0.104,0.344,0.205,0.361
					c0.099,0.021,0.604-0.039,0.727,0.123c0.144-0.021,0.305-0.082,0.406-0.104c0.1-0.021,0.385,0,0.385,0s-0.605,0.386-0.646,0.427
					c-0.041,0.039,0.018,0.244-0.081,0.385c-0.104,0.143-0.243,0.264-0.225,0.365c0.022,0.1,0.103,0.385,0.203,0.4
					c0.104,0.021,1.821-0.424,1.821-0.424s0.082,0.041,0.022,0.201c-0.041,0.103-0.063,0.305-0.063,0.305
					s-15.745,3.928-15.864,3.988c-0.063,0.32-0.041,3.764,0,3.9c0.039,0.146,0.382,0.975,0.424,1.541
					c0.08,0.828,0.061,3.379-0.284,4.533c-0.344,1.152-0.829,2.551-2.268,3.256c-1.436,0.711-2.51,0.873-3.035,1.5
					s-0.466,1.498-0.444,2.327c0.021,0.827,0.123,3.276,0.164,3.339c0.039,0.063,0.646,0.063,0.646,0.143
					c0,0.084,0,1.643,0.225,1.941c0.224,0.305,0.305,0.385,1.254,0.527c0.951,0.143,7.183,1.387,8.398,1.6
					c1.173,0.199,3.763,0.787,3.763,0.787s1.077,10.385,1.137,10.891c0.061,0.523,0.507,4.492,0.524,4.996
					c0.021,0.51-0.1,0.975-0.24,1.18c-0.145,0.197-0.121,0.32-0.104,0.504c0.022,0.184,0.326,3.137,0.386,3.217
					c0.063,0.084,2.896,0.688,2.976,0.71c0.082,0.021,1.983-1.192,2.083-1.296c0.103-0.104,0.245-3.42,0.245-3.543
					c0-0.121-0.365-0.521-0.386-0.729c-0.021-0.198,0.08-2.282,0.141-3.153c0.063-0.871,0.71-11.336,0.71-11.336
					s9.648,1.754,10.502,1.903c1.033,0.183,11.938,2.326,11.938,2.326s0.347,11.536,0.367,12.146c0.02,0.606,0.2,6.92,0.2,6.92
					s-0.321-0.103-0.424-0.08c-0.104,0.019-1.925,1.375-1.966,1.437c-0.039,0.063-0.02,0.144-0.039,0.185
					c-0.021,0.041-0.224,0.162-0.243,0.203c-0.021,0.038-0.021,2.567,0,2.631c0.021,0.062,0.281,0.039,0.281,0.08
					s-0.02,0.223-0.02,0.223s-0.447,0.103-0.811,0.063c-0.363-0.041-1.013,0.281-1.054,0.566c-0.04,0.28,0.041,0.506,0.749,0.604
					c0.707,0.103,1.725-0.103,2.126-0.242c0.403-0.144,0.748-0.385,0.748-0.385l2.005,0.547c0,0-0.811,0.401-1.012,0.524
					c-0.203,0.121-0.324,0.707,0.183,0.869c0.506,0.162,1.095,0.267,1.577,0.081c0.486-0.184,0.688-0.729,0.79-0.868
					c0.103-0.146,0.225-0.224,0.225-0.224l2.349,0.565c0,0-0.271,0.427-0.304,0.707c-0.041,0.324-0.104,0.892,0.91,0.99
					c1.011,0.103,1.354-0.201,1.478-0.363c0.12-0.159-0.283-0.586-0.386-0.729c-0.102-0.143,0.021-0.241,0.021-0.241
					s2.247,0.522,2.369,0.506c0.12-0.021,1.781-1.438,1.801-1.521c0.021-0.08,0-0.385,0.021-0.424
					c0.02-0.041,0.181-0.123,0.181-0.203s0.103-2.47,0.081-2.567c-0.02-0.102-0.122-0.123-0.201-0.144s0-0.185-0.041-0.226
					c-0.038-0.041-1.314-0.386-1.314-0.386s-0.404-0.262-0.565-0.305c-0.16-0.041-0.263-0.101-0.263-0.101l6.861-17.75l21.53,3.929
					c0,0,0.266,17.829,0.226,18.094c-0.043,0.265-0.022,0.688-0.082,0.81c-0.063,0.121-0.445,0.789-0.445,0.83
					c0,0.039,0.121,3.783,0.145,3.926c0.101,0.082,0.12,0.103,0.24,0.121c0.12,0.021,3.623,0.871,3.743,0.83
					c0.122-0.043,1.275-1.683,1.337-1.762c0.062-0.081,0.628-3.927,0.588-4.009c-0.041-0.08-0.306-0.705-0.323-0.828
					c-0.021-0.121,0.101-1.377,0.163-1.803c0.06-0.425,2.649-19.146,2.649-19.146s-0.021-0.144,0.061-0.244s0.385-0.321,0.466-0.668
					c0.08-0.346,0.324-0.99,0.506-1.438c0.184-0.443,0.63-1.679,1.354-2.688c0.729-1.015,1.055-1.416,1.195-1.72
					c0.145-0.305,0.104-0.487,0.185-0.592c0.079-0.099,2.753-2.586,2.813-2.668c0.063-0.082,0.063-1.621,0.103-1.724
					c0.039-0.101,0.604-0.604,0.688-0.728c0.083-0.121,0.224-0.853,0.304-1.133c0.081-0.285,0.446-0.729,0.487-0.873
					c0.04-0.144,1.234-17.386,1.234-17.386S156.255,97.455,155.893,97.189z M92.284,86.768c-0.125,0.123-0.063,0.266-0.063,0.266
					l-12.75,3.137l-0.223-0.061c0,0,0.102-0.145-0.041-0.365l13.095-3.26C92.303,86.482,92.404,86.645,92.284,86.768z
					 M93.981,86.604l-0.302-0.08c0,0,0.142-0.199,0-0.383c0.261-0.063,10.726-2.631,10.726-2.631s0.01,0.098-0.063,0.135
					c-0.266,0.143-0.063,0.277,0.15,0.241c0.02,0.073,0.032,0.132,0.032,0.132L93.981,86.604z M103.676,145.135l-0.263-0.039
					l0.344-18.682l0.809,0.143L103.676,145.135z M104.021,145.238l0.853-18.603l2.002,0.323l-0.306,18.822L104.021,145.238z
					 M107.339,145.965l-0.485-0.102l0.343-18.844l0.266,0.061L107.339,145.965z M109.89,145.965l0.99-18.256l5.667,1.033
					L109.89,145.965z M142.777,92.656c0.026-0.646,0.266-5.748,0.281-5.988c0.022-0.244,0.043-0.771-0.988-1.154
					c-1.032-0.385-2.432-0.789-4.393-1.072c-1.964-0.281-3.138-0.443-4.756-0.605c-1.619-0.16-7.487-0.668-9.026-0.748
					c-1.538-0.08-6.272-0.385-7.45-0.426c-1.173-0.039-2.869,0-4.047,0.063c-1.173,0.061-2.162,0.16-2.852,0.225
					c-0.688,0.061-4.19,0.85-4.19,0.85s0.104-0.184-0.041-0.484c0,0,2.712-0.668,3.563-0.912c0.852-0.24,5.059-1.859,6.189-2.346
					c1.137-0.488,6.56-3.199,7.57-3.706c1.012-0.506,1.356-0.688,1.356-0.688s0.059,0.142,0.321,0.021
					c0.265-0.122,0.144-0.283,0.144-0.283s5.726-2.996,6.817-3.581c1.096-0.587,3.97-2.207,4.938-2.813s2.751-1.721,3.44-2.449
					c0.688-0.729,0.588-0.829,0.548-1.031c-0.041-0.204-0.163-0.566-0.405-0.688c-0.244-0.12-2.389-0.891-2.752-1.112
					c-0.365-0.221-0.365-0.364-0.426-0.564c-0.063-0.204-0.021-0.872,0.547-1.62c0.563-0.749,1.112-1.396,1.799-2.005
					c0.689-0.605,1.741-1.536,1.741-1.536s1.356,7.629,1.478,8.274c0.123,0.65,1.662,9.067,1.762,9.636
					c0.103,0.564,1.193,6.697,1.299,7.363c0.099,0.672,0.343,2.41,0.36,2.651c0.021,0.242,0,0.853,0.021,1.113
					c0.02,0.262,1.354,7.264,1.354,7.264S143.788,93.324,142.777,92.656z"/>
			</g>
		</g>
	</g>
	<g id="Shape_7_1_" enable-background="new    ">
		<g id="Shape_7">
			<g>
				<path d="M202.703,126.982c1.353-5.209,5.357-14.574,2.903-21.234c-2.456-6.662-5.407-2.354-5.71-1.053
					c-0.301,1.303-0.9,6.711-6.259,5.811c0,0-1.67-0.207-2.21-3.232l-1.782-71.607c0.217-5.649,3.497-6.494,3.497-6.494l0.114-0.112
					c0.337-2.347-1.165-6.794-1.953-9.233s-0.507-3.66,1.088-4.898c1.597-1.238,3.021-6.063-1.162-7.302
					c-4.186-1.238-5.35,2.29-5.35,2.29s-0.076,0.32-0.205,0.875c-0.567-0.398-0.863-1.869-1.671-2.188
					c-0.901-0.355-1.502,0.863-1.502,0.863s-0.9,0.019-1.202,0.825c-0.3,0.808,0.451,1.445,0.451,1.445s0.095,1.221,0.884,1.481
					c0.787,0.264,1.369-0.506,1.913-0.844c0.323-0.2,0.607-0.194,0.792-0.158c-0.28,1.194-0.649,2.764-1.052,4.479
					c-0.579-0.375-0.875-1.876-1.693-2.199c-0.9-0.355-1.5,0.863-1.5,0.863s-0.9,0.02-1.202,0.825c-0.3,0.809,0.45,1.445,0.45,1.445
					s0.094,1.221,0.882,1.482c0.79,0.263,1.37-0.507,1.916-0.845c0.335-0.208,0.634-0.194,0.813-0.155
					c-0.35,1.479-0.708,3.017-1.056,4.484c-0.593-0.354-0.887-1.882-1.713-2.209c-0.898-0.354-1.501,0.864-1.501,0.864
					s-0.899,0.019-1.201,0.825c-0.3,0.808,0.45,1.444,0.45,1.444s0.094,1.222,0.883,1.483c0.787,0.262,1.369-0.507,1.914-0.845
					c0.351-0.218,0.657-0.194,0.835-0.15c-0.413,1.755-0.782,3.331-1.059,4.487c-0.604-0.336-0.896-1.888-1.729-2.217
					c-0.899-0.355-1.501,0.862-1.501,0.862s-0.899,0.021-1.2,0.826c-0.302,0.807,0.449,1.445,0.449,1.445s0.096,1.22,0.884,1.482
					c0.786,0.263,1.368-0.507,1.914-0.846c0.358-0.223,0.675-0.191,0.851-0.146c-0.042,0.174-0.077,0.317-0.099,0.408
					c-0.435,1.765-0.358,1.614-0.135,2.215c0.246,0.652,3.04,1.538,3.476,1.803c0.144,0.087,0.244,0.267,0.315,0.464l-0.181,19.021
					l-0.95,47.863c-0.271,0.303-1.053,1.016-2.438,1.016c-1.753,0-3.058-3.656-3.206-5.51c-0.149-1.854,0.199-6.963-3.506-6.963
					c-3.706,0-5.659,8.613-4.309,14.574c1.354,5.959,4.257,10.166,2.104,15.375s-7.764,13.975-6.109,21.336
					c1.653,7.363,7.012,12.521,20.985,14.926c13.973,2.402,22.938-0.051,23.037-9.363
					C210.266,137.75,201.35,132.191,202.703,126.982z"/>
			</g>
		</g>
	</g>
	<g id="Shape_5_1_" enable-background="new    ">
		<g id="Shape_5">
			<g>
				<path d="M387.145,155.146l-0.188-0.217l0.041-0.212l-0.19-0.218l0.019-0.211l-0.145-0.189l0.042-0.262l-0.042-0.104l-0.47-1.342
					l-0.192-0.043l-0.193-0.022l-0.597-1.838l-7.663-12.056l-1.283-1.875l-0.169-0.619l-0.189-0.319l-7.38-11.845l-0.897-0.916
					l-0.916-0.577l-0.256-0.16l-0.045-0.033l-0.066-0.041h-0.008l-3.444-2.155l-0.322-0.515l-0.146-0.041l-1.198-0.065
					l-0.422-12.291l0.146-0.041l-0.085-3.183l0.597-0.471l0.897-0.084l-0.042-1.979l-0.021-0.127l-0.367-0.15l0.175-0.041
					l-0.021-1.282l-1.88-0.106l-0.515-15.959l-0.018-0.255l0.168-0.065l0.277-0.041l0.512-0.26l0.361-0.317l3.139-0.277l3.182-0.471
					l2.688-0.556l1.621-0.444l1.584-0.578l0.977-0.472l0.837-0.554l0.515-0.578l0.19-0.554l-0.063-0.235l0.042-0.187l-0.042-0.108
					l-0.127-0.428l-0.578-0.578l-0.831-0.488l-1.302-0.493l-1.437-0.381l-1.854-0.343l-2.15-0.276l-1.603-0.126l-2.714-0.134
					l-3.711,0.048l0.234-0.259l0.021-0.192l-0.104-0.084l-0.578-0.084l-0.064-1.41l0.148-0.019l0.126-0.065V71.46l0.15-0.023
					l0.089,0.584l0.104,1.169l0.084,0.084l0.109,0.042l0.681-0.259l0.108-0.042l0.018-0.127l0.193-1.896l-0.296-1.897h-0.023
					l-0.085-0.066l-0.873-0.042l-0.044,0.761l-0.701,0.457l-0.515-16.563l-0.063-0.301l-0.253-0.02l-0.178,0.042l-0.061,0.085v0.302
					l0.572,16.472l-0.382,0.084l-0.064,0.15l0.064,1.796l0.043,0.126l0.212,0.042l0.105,1.386l-0.578,0.133l-0.147,0.253
					l0.105,0.169l0.127,0.023l-3.859,0.404l-0.614-1.387l0.042-0.386l-0.065-0.47l-0.486-1.404l-0.066-0.191l-0.746-1.494
					l-0.302-0.26l-0.295-0.149l-0.042-0.02l-0.367-0.107l-0.043-0.062l-0.007,0.001l-0.481-1.133l0.193-0.133l0.169-0.295
					l0.169-0.705l-0.085-0.428l-0.062-0.767l-0.176-0.896l-0.043-0.126l-0.084-0.319l-0.042-0.151l-0.043-0.149l-0.041-0.15
					l-0.043-0.149l-0.042-0.146l-0.021-0.133l-0.021-0.019l-0.021-0.084l-0.023-0.066l-0.019-0.042l-0.17-0.169l-0.064-0.023
					l-0.362,0.042l-0.217-0.681l0.151-0.41l-0.021-0.361v-0.02l0.063-0.174l-0.041-0.146l-0.169-0.133l-0.084-0.061L348.804,60
					l-0.017-0.02l-0.067-0.155l-0.488-1.108l-0.555-0.771l-0.62-0.597l-0.211-0.337l-0.837-0.964l-0.615-0.446l-1.945-0.964
					l-1.537-0.421l-0.041-0.108l-0.019-0.043l-0.277,0.043l-0.47-0.127l-1.259-0.149l-1.663-0.042l-1.543,0.084l-2.343,0.344
					l-1.092,0.276l-2.713,0.916l-2.813,1.367l-0.311,0.192l-1.019,0.639l-1.15,0.897l-0.964,0.873l-1.274,1.494l-0.446,0.705
					l-0.646,1.621l-0.085,0.428l-0.169-0.024l-0.063-0.107l-0.253,0.065h-0.024l-0.253-0.831l0.169-0.023l0.344-0.319l0.277-0.295
					l0.108-0.235l0.145-0.578l-0.043-0.662l-0.096-0.452l0.012-0.12l-0.084-0.235l0.018-0.175l-0.018-0.102l-0.023-0.108
					l-0.019-0.085l-0.26-1.325l-0.021-0.042l-0.021-0.127l-0.021-0.108l-0.021-0.107l-0.066-0.253v-0.024L321.3,57.21l-0.135-0.048
					l-0.443-0.146l0.232-0.938l-0.085-0.277l0.042-0.235l-0.063-0.169l-0.168-0.217l-0.15-0.065l-0.19-0.169l-0.021-0.234
					l-0.175-0.019l-0.555-1.006l-0.126-0.362l-0.516-0.956l-1.175-1.261l-0.831-1.048l-0.705-0.681l-0.85-0.621l-2.65-1.367
					l-2.494-0.663l-0.042-0.145l-0.295-0.162l-0.007-0.014h-0.018l-0.303,0.151l-2.197-0.302l-2.024-0.062l-1.813,0.085
					l-2.973,0.403l-1.874,0.47l-3.203,1.066l-3.604,1.88l-0.133,0.066h-0.042l-0.445,0.084l0.02,0.253l-0.936,0.663l-1.323,1.133
					l-0.959,0.958l-1.007,1.283l-0.555,0.831l-0.428,0.854l-0.557,1.939l-0.019,0.042l-0.022,0.108l-0.387,0.915l-0.188,1.259
					l-0.023,1.066l-0.022,0.024v0.061l-0.02,0.108v0.042l-0.065,0.085l-0.106,0.064l-0.146,0.253l0.043,0.176v0.019l-0.043,0.133
					l-0.127,0.146l-0.091,0.318l0.109,0.536l0.639,0.981v0.023l-0.234,0.062l-0.104,0.106l-0.065,0.211v0.024l0.085,0.513
					l0.022,0.042l0.169,0.724l0.022,0.084l0.02,0.091l0.023,0.084l0.019,0.085l0.043,0.15l0.022,0.084l0.02,0.021l0.15,0.831
					l0.259,0.892l0.149,0.261l0.317,0.402l0.296,0.218l0.387,0.169l0.303,0.042h0.042l0.042,0.107l0.253-0.042l0.19,0.831
					l-0.385,0.211l-0.296,0.15l-0.344,0.361l-0.192,0.36l-0.107,0.41v0.386l0.023,0.169l0.023,0.168v0.127l0.042,0.218v0.191
					l0.019,0.042v0.151l0.15,1.107l0.021,0.104l0.043,0.15l0.02,0.133v0.018l-0.02,0.15l0.229,0.896l0.217,0.235l0.193,0.019
					l0.042,0.451l-0.169,0.982l0.103,0.229v0.193l0.175,0.192l0.295,0.217l0.066,0.555l0.488,0.042l0.09-0.108l0.042,0.024
					l0.615,1.041l0.512,0.646l0.024,0.041l0.063,0.062v0.022l0.554,0.894l0.832,0.938l0.939,0.789l1.211,0.771l2.988,1.19
					l2.748,0.513l0.046,0.022l0.092,0.021h0.018l2.176,0.19h2.141l2.428-0.211l2.073-0.317l1.493-0.343l1.619-0.446l1.729-0.604
					l1.898-0.873l-1.523,1.715l-0.567,0.101l-1.577,0.345l-1.023,0.36l-0.938,0.233l-0.938,0.429l-0.596,0.387l-0.53,0.429
					l-0.26,0.422l-0.211,1.451l-0.234,0.192V88.54l-0.494,0.041l-0.019,1.092l-0.108,0.103V89.8l-0.233,0.065l-0.148,0.043
					l0.021,0.041l-0.064,0.086l0.064,0.168l0.127,0.191l0.065,0.148l0.104,0.389v0.041l0.052,0.157l0.063,1.188h-0.091l-0.168,0.147
					l-0.133,0.339l0.084,2.711l0.064,0.661l0.213,0.747l0.238,0.529l-0.091,0.387l-0.019,0.042l-0.023,0.065l-0.105,0.359v0.086
					l-0.021,0.064l-0.021,0.084l-0.021,0.084v0.025l-0.191,0.57l-0.043,2.372l-0.063,0.403v0.359l0.063,0.108l0.021,0.169
					l-0.379,0.191l-0.043,0.023l-0.066,0.02l-0.62,0.26l-0.169,0.104l-0.168,0.275l-0.175,0.133l-1.597,0.684l-0.066,0.084v0.191
					l0.126,0.191l0.235,0.085l0.681-0.487l0.066-0.043l0.063-0.049l0.211-0.102l0.024-0.024l0.103-0.043l0.192-0.06h0.022
					l0.682,0.041l0.429-0.107v0.02l-0.079,0.084l-0.006,0.008l-0.771,0.359l-2.409,1.428l-2.217,1.756l-2.115,2.174l-1.789,2.436
					l-1.392,2.535l-0.084,0.066l-0.403,1.064l-0.043,0.041l-0.024,0.043l-0.102,0.127l-0.092,0.174l-0.02,0.045l-0.021,0.039
					l-0.021,0.045v0.021l-0.175,0.361l-0.597,0.193l-0.084-0.025l-0.15-0.217l0.042-1.939l-0.146-1.964l-0.133-0.21l-0.211-0.023
					l-0.359,0.131l-0.092,0.146l0.134,0.578l0.19,1.705l-0.021,1.625l-0.304,0.447l-0.146,0.596l0.042,0.471l0.276,0.62
					l-0.107,2.007l0.066,0.191l0.126,0.084l0.233-0.023l-0.359,2.711l-0.093,0.277l-0.125,3.393l0.274,3.543l-5.777-11.818
					l0.063-0.403l-0.169-1.537l-0.688-0.343l0.41-6.313l-0.537-0.084l0.705-10.735h0.066l0.253,0.019l0.15-0.103l0.253-0.065
					l0.386-0.277l0.687-1.303l0.063-0.174l0.085-1.063v-0.047l0.021-0.17l0.107-0.938l0.02-0.192l0.065-0.789l-0.151-0.295
					l-0.273-0.084l-0.108-0.091l0.106-1.698l0.02-0.072l0.066-0.084l0.217-0.444l0.188-0.233l0.233-0.26l0.066-0.296l0.148-0.043
					V90.99l-0.148-0.041l-0.336-0.186l-0.242-0.264l0.09-0.729l-0.325-0.02l-0.211-0.641l-0.512-0.534l-0.085-0.873l-0.361-1.065
					l-0.492-0.578l-0.98-0.832l-1.092-0.705l-1.705-0.83l-1.219-0.512l-1.576-0.621l-3.029-0.854l-0.021-0.529l-1.92-0.26
					l0.387-21.935l0.916-0.663l0.021-1.513l-1.113-0.217l0.133-9.556l2.345,0.085l3.844-0.151l4.481-0.638l3.771-0.898l3.248-1.149
					l0.681-0.277l0.584-0.295l2.614-1.308l3.055-2.049l1.982-1.795l0.662-0.614l2.091-2.65l1.434-2.687l0.169-0.429l0.874-2.922
					l0.276-3.073l-0.379-3.542l-1.073-3.332l-0.337-0.638l-1.476-2.711l-2.368-3.073l-3.181-3.048l-3.777-2.711l-4.072-2.241
					l-4.29-1.747l-0.577-0.217l-4.902-1.368l-5.104-0.85l-5.271-0.301l-4.565,0.234l-1.62,0.218L259.84,1.46l-4.651,1.344
					l-4.271,1.922l-3.543,2.259l-2.922,2.628l-2.051,2.627l-0.217,0.318l-1.554,3.114l-0.855,3.35l-0.127,3.374l0.515,3.199
					l1.176,3.241l1.83,3.181l2.283,2.861l2.691,2.578l3.494,2.603l3.48,2.031l4.014,1.789l4.013,1.367l4.247,1.023l4.283,0.62
					l0.578,0.02l-0.234,9.35l-1.275,0.958l-0.041,1.561l0.273,0.061l-0.217,0.897l-0.445,1.26l0.191,0.084l0.236-0.103l0.463-0.621
					l0.021-0.042l0.473-0.555l-0.445,20.845l-0.235,0.107l-4.12-0.578l-3.97-0.295l-4.183-0.064l-4.396,0.275l-1.663,0.176
					l-1.301,0.211l-2.05,0.473l-1.428,0.443l-1.261,0.578l-1.022,0.596l-0.705,0.447l-0.408,0.492l-0.362,0.725l-0.168,0.789
					l-0.049,0.057l-0.421,0.271l-0.303,0.555l-0.36-0.023l-0.042,0.771l-0.248,0.168l-0.415,0.127l-0.147,0.064l0.041,0.125
					l-0.125,0.088l0.063,0.148l0.127,0.232l0.193,0.275l0.147,0.26l-0.022,0.021l0.176,0.512l0.042,0.127v0.084l-0.022,0.193
					l-0.041,0.217v0.189l-0.109,0.811v0.021l-0.02,0.191l-0.105,0.063l-0.17,0.021l-0.041,0.02l-0.092,0.023l-0.084,0.066
					l-0.084,0.084l-0.021,0.104l-0.134,1.006l-0.018,1.133l-0.087,1.303l0.474,1.387l0.295,0.361l0.316,0.148l0.092,0.127
					l0.295,0.021l-1.492,14.592h-0.193l-0.4,0.051l-0.304,2.646l-0.169,0.02l-0.597,0.232l-0.429,1.479l-0.168,1.555v0.064
					l-0.024,0.191l-0.019,0.148l-0.177,1.516l-0.103,0.258v0.02l-0.108,0.262l-0.063,0.57l-0.021,0.084l-0.022,0.107l-0.02,0.105
					l-0.232,1.262l-0.043,0.613l-0.023,0.219v0.127l-0.042,0.125l0.108,0.41l0.103,0.127l0.175,0.064l0.042,0.104l0.021,0.023
					l0.021,0.02l-0.042,0.938v0.023l-0.022,0.168l-0.041,0.064l-0.234,0.389l-0.02,0.168l-0.09,0.084l-0.381,0.957l-0.303,0.344
					l0.018,0.189l-0.074,0.111l0.06,0.104l0.558,0.174l0.125,0.127l-0.125,1.049l0.084,0.104l0.428-0.063l0.084-0.896v-0.021
					l0.065,0.043l0.191,0.15l-0.789,7.813l-1.106,9.967l-11.313,7.4l-0.233,0.705l-0.57,3.268l0.147,0.086l0.53,0.061l0.771-0.02
					l0.233-3.523l10.579-6.76l0.747-0.662l0.191-0.746l1.577-14.959l0.108,0.084l0.703,0.535l1.688,0.723l2.023,0.641l2.24,0.535
					l-8.416,13.269l-0.929,1.457l-0.024,0.043l-0.019,0.041l-0.022,0.065l-0.02,0.041l-0.023,0.043v0.021l-0.168,0.385l-0.023,0.043
					v0.021l-0.02,0.041l-0.022,0.066l-0.019,0.043l-0.024,0.041l-0.019,0.043l-0.023,0.062l-0.021,0.043l-0.021,0.048l-0.022,0.063
					l-0.02,0.084l-0.021,0.023v0.02l-0.021,0.041l-0.022,0.049v0.033l-0.021,0.025l-0.021,0.043v0.041l-0.024,0.023v0.041
					l-0.042,0.107l-0.085,0.211v0.043l-0.042,0.066l-0.037,0.104l-0.006,0.006v0.008l-0.01,0.031l-0.051,0.063l-0.324,0.084
					l-0.789,1.985l0.041,0.276l-0.209,0.277l0.041,0.276l-0.252,0.274l0.06,0.277l-0.295,0.36l-0.62,2.541l0.211,0.235l4.12,0.041
					l1.042-0.916l0.091-0.174l-0.217-1.646l-0.019-0.043l-0.024-0.022l-0.105-0.168l0.091-0.298h-0.024l-0.042-0.106l-0.064-0.084
					l-0.042-0.065v-0.021l-0.042-0.022l0.064-0.062l0.042-0.131v-0.104h-0.022l-0.02-0.064l-0.042-0.066l-0.064-0.102v-0.025
					l-0.042-0.02l0.063-0.039v-0.025l0.063-0.148v-0.02l-0.192-1.754l-0.043-0.105l-0.233-0.084l0.219-0.615l0.788-0.98
					l9.663-15.109l2.88,0.488l2.648,0.367l5.609,0.555l-0.894,10.133l-0.663,9.219l-0.449,3.113l0.106,0.091l1.006,0.044
					l0.021-0.066l0.105-2.478v-0.337l0.021-0.217v-0.107l0.451-5.803v-0.26l0.018-0.276l0.025-0.276l0.019-0.275l0.022-0.275
					l0.02-0.277l0.023-0.275l0.063-0.854l0.063-0.556l0.896-10.198l4.163,0.232l2.981,0.066l1.027,0.98l0.488,0.127l1.175,0.043
					h0.063l1.258,0.021l0.881-0.064l0.211-0.084v-0.15h0.023l0.019-0.02l0.108-0.023l0.084-0.02l0.105-0.021l0.107-0.023
					l0.514-0.127l0.486-0.766v0.387l-0.064,0.402l1.604,14.127l0.791,0.916l0.021,0.344h-0.554l-0.325,0.271l-0.085,1.643
					l0.085,0.219l-0.103,0.234l0.061,0.252l-0.085,0.236l0.065,0.258l-0.107,0.254l-0.042,1.367l0.126,0.789l0.516,0.211
					l1.963-0.018l0.401-0.17l0.093-0.092l-0.041-2.176l-0.136-0.252l0.065-0.26l-0.084-0.256l0.061-0.232l-0.084-0.232l0.107-0.262
					l-0.107-1.789l-0.854-0.021l-0.043-0.766l0.261-0.494l0.444-0.705l0.022-0.211l-1.196-14.275l2.006-0.303l1.477-0.338
					l0.598-0.176l0.938-0.422l0.043,0.191v0.043l-0.023,0.318l-0.02,0.316l-0.023,0.32l-0.018,0.318l-0.024,0.344l-0.019,0.317
					l-0.023,0.319l-0.018,0.316l-0.049,0.641l-0.021,0.344l-0.022,0.318l-0.021,0.318l-0.021,0.324l-0.021,0.32l-0.021,0.318
					l-0.021,0.316l-0.022,0.346l-0.02,0.316l-0.021,0.32l-0.021,0.316l-0.022,0.318l-0.02,0.32l-0.021,0.342l-0.024,0.318
					l-0.019,0.319l-0.023,0.317l-0.02,0.318l-0.022,0.324l-0.019,0.32l-0.023,0.336l-0.023,0.302v0.021l-0.042,0.191l0.091,0.788
					l0.381,0.536l8.902,7.874l0.02,0.151l-0.02,0.19l-0.023,0.168v0.021l-0.301,2.904l0.063,0.063l0.515,0.063h0.682l0.084-0.063
					v-3.29l-0.043-0.443l-0.104-0.298l-9.267-8.343l0.743-11.637l3.311-1.518l5.51,9.754l0.176,2.029l0.144,0.107h0.176l0.361-0.107
					l0.065-0.127l2.133,4.283l0.295,0.73l1.023,1.105l0.176,0.556l-0.688,0.19l-0.232,1.839l0.105,0.319l-0.189,0.295l0.105,0.273
					l-0.169,0.284l0.085,0.296l-0.192,0.301l-0.176,1.318l-0.653,0.832l2.133,1.669h0.913l0.771-0.261l0.062-0.252l0.813,0.043
					l0.385-0.066l0.193-0.041l0.169-0.17l0.06-0.182l0.007-0.012l0.043-0.192h0.233l0.338-0.302l-0.295-2.066l0.253-1.662
					l-0.19-0.175l1.091-1.235l0.789,0.614l2.392,1.627l1.88,0.958l-0.409,0.344l-0.789-0.41l-2.239-0.85l-0.295-0.042l-0.235,0.084
					l-0.084,0.429l0.169,0.168l0.487,0.043l1.477,0.451l1.084,0.555l-2.306,1.641h-0.122l-0.108,0.021l-0.042,0.108l0.021,0.019
					h0.042l0.275,0.023l-0.254,0.043l-0.231,0.018h-0.193l-0.018,0.135l-0.066,0.789h7.043l0.062-0.065l6.36-0.084h0.023
					l4.669,0.042l0.042,0.253l1.52-0.019l-0.021-0.168l0.259-0.108l0.019-0.133l0.729-0.741l0.662-0.535l0.196-0.111l2.853-0.953
					l0.386,0.127l0.361-0.02l0.704-0.387l0.02,0.042l0.149,0.276l0.234,0.127h0.134l0.145-0.02h0.108l1.232-0.369l0.747-0.252
					l0.662-0.471l0.43-0.639h0.021l2.092,0.168l2.282-0.127l-0.017,0.166l-0.115,0.558l0.042,0.192l-0.127,0.218l0.043,0.187
					l-0.193,0.262l0.091,0.168l-0.19,0.219l-0.218,1.189h-1.065l0.023,0.178l-0.261,0.019l-0.041,0.128l-0.043,0.829h0.219
					l7.126,0.024h0.614l0.513-0.024l2.773-0.103l7.684-0.037l0.001,0.014h1.191l0.939-0.02h1.838l1.681,0.104h0.771l0.187-0.006
					h0.225l1.401-0.012h2.073l1.065-0.024h0.212l0.042-0.169l-0.086-0.492l-0.126-1.234v-0.15l-0.023-0.061l-0.019-0.217
					l-0.023-0.211l-0.02-0.22l-0.023-0.21v-0.021l-1.216-12.609l-0.361-0.766l11.127-2.578l0.313-0.072l0.639,1.049v0.018
					l7.043,11.678l0.789,0.938l0.15,0.379v0.024l-0.304,0.043l-0.041,0.106l-0.128,1.176l0.084,0.32l-0.126,0.231l0.084,0.19
					l-0.126,0.213l0.084,0.211l-0.175,0.324l-0.084,1.022l0.042,0.127l0.301,0.253l0.235,0.26h0.488l2.774-0.043h0.337
					L387.145,155.146z M301.344,66.287l-0.888,0.283l2.768-0.897L301.344,66.287z M311.867,64.829l0.008-0.013l0.012,0.001
					L311.867,64.829z M286.554,93.625l0.26-0.15l-0.049,0.637l-0.078,0.279h-0.006l-0.222-0.689L286.554,93.625z M239.336,123.348
					l0.041-0.104h0.295L239.336,123.348z M243.31,90.313l-0.013,0.006v0.041l-0.062,0.108v0.15l-0.022,0.018l-0.276-0.041h-0.146
					l-0.022-0.021l0.108-1.066l0.103,0.177l0.065,0.146l0.063,0.065l0.277,0.342L243.31,90.313z M284.533,126.725h0.004l0.033,0.02
					L284.533,126.725z M284.869,127.656l0.024-0.361l0.312,0.547L284.869,127.656z M292.019,120.084l-0.063-0.469l0.09-0.682
					l0.485-0.664L292.019,120.084z M324.452,79.582l0.17,0.451l-0.191-0.451H324.452z M324.521,81.529l0.02,0.018l0.022,0.023
					l0.319,0.188l0.146,0.449L324.521,81.529z M325.163,82.391l0.058,0.055l0.003-0.002l0.245,0.24l0.095,0.23l0.022,0.037
					L325.163,82.391z M326.424,84.072l0.036,0.033l0.084,0.127L326.424,84.072z M357.609,83.275l0.032,0.01l-0.047-0.01H357.609z
					 M357.528,84.119l0.168-0.818h0.091l0.104,0.018l0.021,0.023h0.021l0.085,0.193l-0.104,0.74l-0.386-0.146V84.119L357.528,84.119
					z M342.751,154.68l-1.401,0.717l-0.938-0.248l0.066-0.217l-0.127-0.211l0.061-0.219l-0.146-0.211l0.103-0.234l-0.21-1.105
					l0.107-0.023l1.277-0.254l0.533,0.277l1.537-0.043l0.104-0.023h0.132L342.751,154.68z M340.094,91.963l0.147-0.217l0.023-0.02
					l0.043-0.05l0.019,0.134l0.014,0.377L340.094,91.963z M348.479,155.525l0.024-0.039l0.961-0.408L348.479,155.525z
					 M348.253,152.891l-0.3,0.047l-1.072,0.09l2.346-1.146l3.571-1.627l0.017-0.006L348.253,152.891z M351.106,149.189l-0.302,0.021
					l-0.704,0.641l-0.38,0.26l-0.494,0.19h-0.047l3.866-3.929l0.042,0.021l1.049,0.729l1.172,1.047l-0.224,0.632l-5.056,2.304
					l-0.739,0.229l0.066-0.051l0.253-0.488l1.688-0.938l0.085-0.254L351.106,149.189z M353.228,153.361l2.229-1.053h0.023
					l0.021-0.023l0.147-0.064h0.024l0.042-0.02l0.042-0.021l0.106-0.044l0.557-0.276h0.018l0.175-0.084l0.042-0.021l0.021-0.021
					h0.042l0.048-0.021l0.061-0.02l0.042-0.023l0.134-0.063l0.085-0.041l0.044-0.021l0.041-0.021l0.043-0.021l0.041-0.021
					l0.064,0.021L353.228,153.361z M356.294,99.645v0.02l0.018,0.064l0.023,0.084l0.019,0.066l0.024,0.061l0.018,0.066l0.108,0.344
					l0.169,0.529v0.066l0.063,1.979l0.536,0.261l0.853,0.611l0.133,3.121l0.126,0.146l-0.539,1.395l-0.018-0.051l-0.134-0.125
					h-0.144l-0.41,0.174l-0.084,0.104l-0.043,0.107l0.419,0.854l-0.526,1.362l-0.146-0.381l-1.771-3.112l-1.837-2.627l-2.199-2.562
					l-2.491-2.351l-2.563-1.938l-1.519-0.875l-0.169-0.106l-0.042-0.022l-0.042-0.021h-0.024l-0.915-0.578l0.639-0.149l0.557-0.209
					l0.874,0.231l1.021,0.17l1.563,0.149l0.428-0.17l0.043-0.106l-0.024-0.274l-0.103-0.15l-2.072-0.061l-0.916-0.177l-0.452-0.127
					l-0.512-0.444l-0.319-0.193l-0.597-0.041l-0.704,0.127l-1.317-0.344V93.09l-0.066-0.211l-0.108-0.086l-0.09-0.018h-0.006
					l-0.036-0.008h-0.013l-0.303-0.275l-0.022-1.514l0.066-0.09h0.127l0.126-0.018l0.049-0.002l0.084-0.319l0.042-0.042l0.127-0.148
					h-0.084l-0.495-0.896l0.024-0.277v-0.189h-0.304l-0.338-0.254l-0.217-1.199l1.157-0.275l2.409-0.768l2.922-1.258l1.494-0.855
					l0.958-0.639l1.494-1.242l2.69,0.221l3.753,0.064l0.361,0.336l0.277,0.107l0.063,0.896l-0.361,0.193l0.021,0.379l0.277,0.148
					l0.406-0.02l0.211-0.09l0.277,6.662l0.235,8.021h-0.151l-1.234,0.233l-0.232-0.233l-0.506,0.134h-0.114L356.294,99.645z
					 M361.475,152.051l-0.361,0.023l-0.485-0.604l-0.024-0.062l-0.019-1.52h-0.023l0.579-0.32l0.144-0.084l0.193-0.125v-0.408
					l-0.127-0.32l0.354-0.18L361.475,152.051z M361.768,147.412l-0.187-0.012v-0.219l0.041-0.209l0.043-0.109l-0.062-0.402
					l-0.023-0.277l0.023-0.301l0.019-0.084h-0.019l-0.023-0.043l0.023-0.018h-0.023v-0.043l-0.012-0.027l-0.007-0.039l-0.023-0.107
					l-0.019-0.127v-0.273l0.042-0.221v-0.061l-0.023-0.084l0.042-0.043v-0.047l-0.085-0.188l0.024-0.345l0.019-0.276v-0.084
					l-0.036-0.058l-0.01-0.03l0.392-1.213l0.103-0.233l0.108,0.018L361.768,147.412z M361.884,139.057l-0.192-5.676l0.939-1.344
					l0.019-0.234l-0.316-0.277l-0.389,0.087l-0.126,0.103l-0.043,0.219l-0.126,0.168l-0.085-2.535l0.488-0.023l0.681-0.17v-0.555
					l-0.274-0.133l-0.382-0.02l0.234-0.148l-0.175-0.084l-0.042-0.023l0.169-0.168l-0.169-0.109h-0.021l0.169-0.191l-0.148-0.061
					h-0.021l0.21-0.17l-0.21-0.107l0.21-0.148l-0.231-0.107l0.211-0.15l-0.211-0.104l0.19-0.127l-0.169-0.105l-0.049-0.023
					l0.218-0.17l0.684-0.148l0.041-0.43l-0.041-0.662l-0.362-0.168l-0.428-0.02l-0.15-0.107l0.192-0.107l-0.192-0.146l0.192-0.174
					l-0.21-0.108l0.168-0.168l-0.126-0.084l-0.066-0.084l0.192-0.134l-0.15-0.104l-0.042-0.022l0.15-0.211l-0.169-0.127l0.211-0.176
					l-0.211-0.107l0.19-0.211l-0.19-0.106l-0.344-0.041h-0.107l-0.151-0.043v-0.513l0.221-0.043l0.021-0.061l1.109-0.324l0.189-0.34
					l6.364,7.217l4.919,7.678l0.536,0.556L361.884,139.057z"/>
			</g>
		</g>
	</g>
</g>
</svg>
