<?xml version="1.0" encoding="utf-8"?>
<!-- Generator: Adobe Illustrator 16.0.0, SVG Export Plug-In . SVG Version: 6.00 Build 0)  -->
<!DOCTYPE svg PUBLIC "-//W3C//DTD SVG 1.1//EN" "http://www.w3.org/Graphics/SVG/1.1/DTD/svg11.dtd">
<svg version="1.1" id="Layer_1" xmlns="http://www.w3.org/2000/svg" xmlns:xlink="http://www.w3.org/1999/xlink" x="0px" y="0px"
	 width="106px" height="80px" viewBox="0 0 106 80" enable-background="new 0 0 106 80" xml:space="preserve">
<path d="M51.916,38.309c0.693,0.704,1.562,1.219,2.516,1.466c0.949,0.253,1.965,0.234,2.932,0.01
	c0.972-0.229,1.887-0.659,2.714-1.223c0.823-0.565,1.563-1.257,2.208-2.032c1.283-1.553,2.186-3.408,2.751-5.348
	c0.567-1.945,0.813-3.979,0.821-6.006v-0.004l0.039,0.087c-0.774-0.714-1.485-1.516-2.022-2.435
	c-0.539-0.918-0.89-1.969-0.892-3.046c-0.012-1.075,0.318-2.133,0.853-3.054c0.537-0.922,1.231-1.735,2.069-2.406l-0.028,0.154
	l-2.453-4.273l0.115,0.057c-0.996,0.116-1.99,0.197-2.985,0.255c-0.996,0.056-1.996,0.085-2.996,0.071
	c-1.002-0.016-2.004-0.066-2.996-0.21c-0.498-0.073-0.992-0.169-1.479-0.312c-0.484-0.146-0.966-0.334-1.388-0.645h0.141
	c-0.419,0.311-0.901,0.498-1.387,0.645c-0.485,0.143-0.979,0.238-1.479,0.312c-0.994,0.144-1.997,0.194-2.996,0.21
	c-1,0.014-1.999-0.016-2.997-0.071c-0.998-0.058-1.992-0.139-2.986-0.255l0.116-0.057l-2.453,4.273l-0.032-0.154
	c0.837,0.671,1.536,1.484,2.072,2.406c0.532,0.921,0.861,1.979,0.85,3.054c-0.004,1.077-0.349,2.128-0.888,3.046
	c-0.538,0.919-1.249,1.721-2.025,2.436l0.037-0.088v0.004c0.012,2.027,0.255,4.061,0.825,6.006c0.567,1.939,1.464,3.795,2.751,5.348
	c0.64,0.775,1.382,1.467,2.208,2.032c0.825,0.563,1.743,0.994,2.709,1.223c0.967,0.225,1.982,0.242,2.934-0.01
	c0.952-0.245,1.822-0.765,2.514-1.464l0.156-0.16L51.916,38.309z M51.759,38.783c-0.693,0.695-1.568,1.235-2.535,1.515
	c-1.039,0.312-2.156,0.321-3.216,0.104c-1.062-0.218-2.069-0.656-2.979-1.236c-0.908-0.581-1.724-1.301-2.434-2.109
	c-1.424-1.617-2.433-3.561-3.093-5.592c-0.663-2.036-0.981-4.166-1.058-6.289v-0.004l-0.004-0.479l0.358-0.332
	c0.715-0.653,1.345-1.374,1.799-2.152c0.456-0.777,0.718-1.608,0.722-2.439c0.008-0.83-0.243-1.665-0.688-2.439
	c-0.223-0.389-0.491-0.76-0.79-1.108c-0.152-0.175-0.31-0.342-0.473-0.502c-0.084-0.079-0.166-0.157-0.25-0.231l-0.126-0.107
	l-0.104-0.086l-0.765-0.616l0.467-0.813l2.455-4.274l0.36-0.627l0.727,0.084c0.945,0.111,1.938,0.191,2.907,0.248
	c0.974,0.054,1.947,0.082,2.911,0.069c0.964-0.014,1.924-0.065,2.838-0.196c0.456-0.068,0.899-0.156,1.31-0.276
	c0.403-0.118,0.776-0.279,1.001-0.451l0.661-0.498l0.656,0.498c0.227,0.172,0.601,0.333,1.004,0.451
	c0.407,0.122,0.854,0.208,1.309,0.276c0.914,0.131,1.873,0.185,2.836,0.196c0.97,0.013,1.938-0.016,2.912-0.069
	c0.974-0.055,1.961-0.137,2.908-0.246l0.727-0.084l0.359,0.627l2.453,4.273l0.467,0.812l-0.764,0.615l-0.104,0.085l-0.127,0.107
	c-0.084,0.073-0.166,0.152-0.25,0.232c-0.164,0.159-0.322,0.328-0.476,0.502c-0.299,0.35-0.565,0.721-0.791,1.107
	c-0.442,0.774-0.694,1.611-0.688,2.441c0.004,0.832,0.268,1.664,0.724,2.441c0.454,0.778,1.085,1.499,1.798,2.154l0.357,0.33
	l-0.004,0.477v0.004c-0.074,2.122-0.396,4.252-1.057,6.288c-0.662,2.03-1.671,3.975-3.095,5.592
	c-0.709,0.808-1.522,1.526-2.435,2.109c-0.905,0.58-1.916,1.02-2.979,1.237c-0.525,0.106-1.079,0.161-1.609,0.145
	c-0.55-0.015-1.082-0.097-1.604-0.249C53.33,40.019,52.453,39.477,51.759,38.783z M58.952,31.975l-3.198-1.156v-2.431v-3.299v-0.554
	h-0.553h-3.33h-0.552v0.554v0.921v0.553h0.552h1.855v1.825v1.698l-1.803-0.648l-3.055-1.104v-4.56v-1.466l-0.97,1.101l-3.957,4.498
	l-0.536,0.607l0.765,0.278l2.667,0.964c0,0.014,0,0.026,0,0.04c-0.021,2.181-0.188,3.032-0.289,3.346l-1.57-0.081l1.524,1.099
	l1.487,1.069l0.879,0.631v-1.078v-4.264l2.866,1.037l0.011-0.025l1.979,0.713v0.764v2.897v1.116l0.887-0.675l4.486-3.408
	l0.812-0.617L58.952,31.975z M48.318,34.781l-1.488-1.072c0.017,0,0.511-0.026,0.562-3.727l0.927,0.335L48.318,34.781L48.318,34.781
	z M53.727,31.654l-5.408-1.953v0.029l-0.923-0.335c0-0.009,0-0.018,0-0.027l-3.033-1.097l3.956-4.498v4.361l-0.923-0.336v-1.58
	l-1.447,1.646l0.929,0.335l0.519,0.188l0.923,0.335l3.42,1.233l1.988,0.719v0.98H53.727z M54.279,35.903v-2.897v-1.152v-0.979
	v-2.487V26.01h-2.408v-0.921h3.33v3.299v2.818v0.98v0.819v1.039l1.656-1.259l-1.104-0.399v-0.982l3.011,1.091L54.279,35.903z
	 M103.391,44.555c1.348,0,2.479,1.064,2.479,2.461c0,1.424-1.132,2.489-2.479,2.489c-1.354,0-2.496-1.065-2.496-2.489
	C100.895,45.619,102.033,44.555,103.391,44.555z M103.391,49.141c1.146,0,2.031-0.912,2.031-2.125c0-1.185-0.888-2.098-2.031-2.098
	c-1.166,0-2.048,0.913-2.048,2.098C101.343,48.229,102.225,49.141,103.391,49.141z M102.424,45.581h1.117
	c0.688,0,1.012,0.271,1.012,0.826c0,0.522-0.33,0.739-0.76,0.786l0.826,1.275h-0.48l-0.789-1.242h-0.479v1.242h-0.447V45.581z
	 M102.871,46.863h0.471c0.398,0,0.762-0.021,0.762-0.479c0-0.385-0.33-0.443-0.635-0.443h-0.598V46.863z M8.047,46.488
	c0,0.109,0.019,0.236,0.055,0.363c0.037,0.127,0.074,0.256,0.11,0.347l3.112,8.954c0.126,0.347,0.236,0.619,0.383,0.839
	c0.108,0.235,0.362,0.399,0.728,0.491v0.162H8.303v-0.162c0.327-0.073,0.563-0.219,0.69-0.455c0.128-0.237,0.202-0.512,0.202-0.819
	c0-0.345-0.093-0.746-0.292-1.201c-0.2-0.455-0.492-0.893-0.91-1.292c-0.4-0.42-0.909-0.765-1.529-1.056
	c-0.637-0.291-1.383-0.437-2.237-0.455l-1.093,3.004c-0.073,0.199-0.146,0.418-0.2,0.636c-0.056,0.219-0.091,0.438-0.091,0.655
	c0,0.291,0.091,0.528,0.309,0.692c0.182,0.162,0.419,0.271,0.691,0.291v0.162H0.13v-0.162c0.219-0.057,0.4-0.109,0.546-0.186
	c0.128-0.07,0.273-0.197,0.401-0.398c0.164-0.235,0.326-0.526,0.473-0.817c0.128-0.328,0.254-0.603,0.346-0.873l2.931-7.735
	l0.182-0.527C5.064,46.779,5.1,46.6,5.1,46.417c0-0.165-0.054-0.31-0.164-0.399c-0.108-0.093-0.236-0.164-0.399-0.184V45.67h4.04
	v0.164C8.23,45.924,8.047,46.143,8.047,46.488z M6.482,51.768c0.674,0.235,1.219,0.582,1.656,1.002l-2.02-5.732L4.46,51.404
	C5.135,51.402,5.811,51.529,6.482,51.768z M21.954,46.143c0.399,0.293,0.583,0.768,0.583,1.383c0,0.387-0.072,0.711-0.256,1.021
	c-0.145,0.292-0.364,0.564-0.619,0.803c-0.253,0.256-0.545,0.474-0.837,0.654c-0.328,0.199-0.618,0.363-0.91,0.526
	c0.711,0.782,1.312,1.655,1.82,2.564c0.527,0.946,0.982,1.895,1.364,2.858c0.11,0.291,0.219,0.525,0.31,0.709
	c0.092,0.183,0.184,0.328,0.293,0.438c0.071,0.107,0.182,0.183,0.291,0.254c0.108,0.037,0.236,0.092,0.382,0.127v0.164h-3.914V57.48
	c0.199-0.035,0.364-0.107,0.492-0.198c0.128-0.108,0.182-0.272,0.182-0.511c0-0.383-0.092-0.804-0.272-1.272
	c-0.202-0.492-0.438-0.981-0.711-1.492c-0.271-0.491-0.581-0.981-0.929-1.458c-0.327-0.49-0.637-0.908-0.945-1.271l-2.221,0.729
	v3.26c0,0.291,0,0.563,0.019,0.818c0.017,0.234,0.055,0.455,0.127,0.655c0.092,0.198,0.199,0.362,0.364,0.489
	c0.164,0.127,0.382,0.221,0.673,0.256v0.162h-4.367v-0.162c0.291-0.055,0.509-0.129,0.673-0.271
	c0.164-0.107,0.272-0.271,0.364-0.474c0.072-0.2,0.109-0.401,0.127-0.64c0.018-0.233,0.018-0.474,0.018-0.729v-7.316
	c0-0.255,0-0.51-0.018-0.746c-0.018-0.234-0.055-0.474-0.127-0.673c-0.092-0.2-0.2-0.385-0.364-0.528
	c-0.164-0.146-0.382-0.234-0.673-0.271v-0.164h7.043C20.897,45.669,21.59,45.814,21.954,46.143z M17.295,50.729
	c0.51-0.182,1.001-0.397,1.491-0.689c0.492-0.255,0.911-0.582,1.239-0.93c0.363-0.348,0.528-0.743,0.528-1.166
	c0-0.324-0.057-0.582-0.202-0.779c-0.109-0.186-0.291-0.327-0.49-0.438c-0.201-0.092-0.438-0.164-0.711-0.183
	c-0.255-0.021-0.509-0.036-0.783-0.036c-0.126,0-0.309,0-0.49,0c-0.219,0.018-0.419,0.036-0.619,0.055
	c-0.219,0.021-0.419,0.056-0.583,0.127c-0.182,0.037-0.309,0.129-0.4,0.221c-0.091,0.127-0.163,0.291-0.183,0.525
	c-0.017,0.236-0.035,0.438-0.035,0.603v3.11C16.384,51.059,16.803,50.93,17.295,50.729z M34.623,49.091
	c-0.347-0.892-0.875-1.526-1.566-1.893c-0.708-0.4-1.619-0.583-2.729-0.583v8.664c0,0.271,0,0.547,0.017,0.802
	c0.019,0.272,0.054,0.51,0.128,0.69c0.091,0.22,0.2,0.361,0.365,0.511c0.162,0.108,0.381,0.182,0.672,0.2v0.162h-4.368v-0.162
	c0.291-0.021,0.51-0.073,0.673-0.2c0.164-0.108,0.274-0.255,0.365-0.438c0.073-0.199,0.108-0.419,0.127-0.654
	c0.019-0.254,0.019-0.525,0.019-0.801v-8.771c-1.111,0-2.021,0.183-2.729,0.583c-0.692,0.362-1.221,1.001-1.567,1.893l-0.163-0.054
	l0.894-3.604c0.09,0.107,0.218,0.184,0.362,0.197c0.146,0.021,0.383,0.037,0.71,0.037h6.989c0.384,0,0.638-0.02,0.784-0.037
	c0.107-0.033,0.217-0.105,0.289-0.197l0.894,3.604L34.623,49.091z M55.135,46.07c-0.164,0.146-0.271,0.291-0.345,0.49
	c-0.091,0.199-0.126,0.398-0.146,0.638c-0.021,0.235-0.021,0.474-0.021,0.729v7.335c0,0.256,0,0.51,0.021,0.746
	c0.02,0.256,0.055,0.491,0.146,0.692c0.073,0.198,0.181,0.382,0.345,0.51c0.164,0.146,0.383,0.235,0.674,0.272v0.162h-4.367v-0.162
	c0.291-0.021,0.509-0.092,0.673-0.219c0.164-0.131,0.272-0.272,0.345-0.477c0.092-0.199,0.13-0.418,0.148-0.654
	c0.017-0.234,0.017-0.488,0.017-0.744v-5.518h-5.423v5.388c0,0.257,0,0.513,0.016,0.767c0.019,0.256,0.056,0.49,0.147,0.689
	c0.072,0.199,0.182,0.385,0.346,0.527c0.164,0.128,0.381,0.219,0.673,0.234v0.164h-4.368v-0.16c0.292-0.035,0.51-0.127,0.674-0.254
	c0.162-0.127,0.271-0.291,0.346-0.492c0.091-0.184,0.128-0.4,0.145-0.618c0.019-0.255,0.019-0.491,0.019-0.729v-7.335
	c0-0.254,0-0.509-0.019-0.745c-0.017-0.236-0.054-0.474-0.145-0.674c-0.074-0.199-0.184-0.384-0.346-0.527
	c-0.164-0.146-0.382-0.234-0.674-0.271V45.67h4.368v0.164c-0.292,0.037-0.509,0.107-0.673,0.234s-0.273,0.273-0.346,0.477
	c-0.092,0.199-0.129,0.398-0.147,0.654c-0.016,0.219-0.016,0.474-0.016,0.729V49h5.423v-0.947c0-0.271-0.017-0.527-0.017-0.783
	c-0.037-0.254-0.076-0.488-0.148-0.688c-0.072-0.2-0.181-0.383-0.345-0.512c-0.164-0.129-0.382-0.219-0.673-0.235V45.67h4.367v0.164
	C55.518,45.87,55.299,45.96,55.135,46.07z M69.48,54.261c-0.351,0.746-0.822,1.386-1.438,1.931
	c-0.585,0.526-1.276,0.944-2.076,1.238c-0.764,0.311-1.584,0.454-2.44,0.454c-0.836,0-1.635-0.13-2.398-0.401
	c-0.766-0.271-1.456-0.689-2.074-1.271c-0.617-0.582-1.094-1.271-1.439-2.059c-0.346-0.801-0.51-1.617-0.51-2.457
	c0-0.909,0.164-1.746,0.492-2.512c0.344-0.766,0.799-1.42,1.383-1.982c0.563-0.563,1.237-0.982,2.021-1.313
	c0.784-0.291,1.621-0.455,2.514-0.455c0.93,0,1.784,0.164,2.564,0.476c0.802,0.31,1.492,0.743,2.074,1.327
	c0.584,0.549,1.037,1.236,1.363,2.004c0.328,0.8,0.493,1.654,0.493,2.585C70.008,52.713,69.825,53.516,69.48,54.261z M61.398,46.779
	c-0.478,0.271-0.875,0.619-1.187,1.056c-0.312,0.438-0.546,0.929-0.688,1.493c-0.164,0.564-0.236,1.128-0.236,1.71
	c0,0.674,0.092,1.366,0.309,2.058c0.182,0.711,0.49,1.348,0.873,1.911c0.401,0.563,0.891,1.037,1.457,1.401
	c0.582,0.347,1.256,0.527,2.021,0.527c0.635,0,1.182-0.127,1.672-0.381c0.492-0.259,0.895-0.604,1.22-1.021
	c0.329-0.419,0.584-0.911,0.729-1.455c0.18-0.564,0.254-1.13,0.254-1.712c0-0.819-0.127-1.585-0.381-2.293
	c-0.256-0.729-0.604-1.366-1.039-1.912c-0.418-0.546-0.928-0.981-1.491-1.292c-0.565-0.327-1.185-0.491-1.82-0.491
	C62.436,46.38,61.871,46.508,61.398,46.779z M81.037,49.091c-0.348-0.892-0.875-1.526-1.566-1.893
	c-0.707-0.4-1.617-0.583-2.729-0.583v8.664c0,0.271,0,0.547,0.02,0.802c0.021,0.272,0.053,0.51,0.125,0.69
	c0.094,0.22,0.202,0.361,0.366,0.511c0.164,0.108,0.384,0.182,0.675,0.2v0.162h-4.371v-0.162c0.291-0.021,0.512-0.073,0.674-0.2
	c0.164-0.108,0.274-0.255,0.365-0.438c0.073-0.199,0.108-0.419,0.129-0.654c0.02-0.254,0.02-0.525,0.02-0.801v-8.771
	c-1.111,0-2.021,0.183-2.73,0.583c-0.689,0.362-1.219,1.001-1.564,1.893l-0.163-0.054l0.894-3.604
	c0.09,0.107,0.219,0.184,0.364,0.197c0.146,0.021,0.383,0.037,0.709,0.037h6.989c0.384,0,0.637-0.02,0.781-0.037
	c0.109-0.033,0.219-0.105,0.291-0.197l0.895,3.604L81.037,49.091z M91.395,49.164c-0.201-0.455-0.455-0.854-0.764-1.201
	c-0.329-0.327-0.693-0.602-1.113-0.818c-0.416-0.219-0.852-0.381-1.308-0.492c-0.458-0.09-0.929-0.145-1.403-0.145
	c-0.309,0-0.58,0.018-0.801,0.055c-0.199,0.037-0.38,0.108-0.509,0.219c-0.128,0.109-0.22,0.273-0.292,0.455
	c-0.034,0.22-0.072,0.475-0.072,0.802v1.038h1.4c0.385,0,0.691-0.02,0.965-0.036c0.254-0.021,0.456-0.073,0.621-0.164
	c0.164-0.071,0.271-0.183,0.326-0.328c0.072-0.127,0.109-0.327,0.109-0.563l0.161-0.055l0.708,4.075l-0.146,0.056
	c-0.161-0.525-0.346-0.943-0.582-1.22c-0.219-0.291-0.475-0.51-0.78-0.638c-0.313-0.126-0.653-0.219-1.037-0.235
	c-0.383-0.02-0.817-0.034-1.313-0.034H85.13v4.877c0,0.347,0.021,0.653,0.038,0.907c0.018,0.257,0.089,0.476,0.219,0.619
	c0.107,0.183,0.291,0.291,0.545,0.365c0.254,0.071,0.618,0.108,1.072,0.108c1.313,0,2.403-0.293,3.295-0.895
	c0.873-0.602,1.604-1.477,2.166-2.622l0.184,0.058l-1.547,4.531c-0.057-0.056-0.107-0.109-0.164-0.13
	c-0.056-0.019-0.129-0.053-0.201-0.069c-0.053-0.021-0.127-0.021-0.217-0.037c-0.074,0-0.146,0-0.221,0h-8.354v-0.164
	c0.093,0,0.238-0.034,0.418-0.107c0.164-0.073,0.31-0.184,0.438-0.328c0.161-0.199,0.271-0.454,0.289-0.746
	c0.021-0.291,0.036-0.6,0.036-0.908v-7.336c0-0.236,0-0.49-0.019-0.746c-0.021-0.234-0.057-0.474-0.129-0.653
	c-0.092-0.22-0.197-0.384-0.361-0.527s-0.385-0.235-0.676-0.292v-0.164h7.789h0.42c0.095,0,0.184,0,0.258-0.037
	c0.054,0,0.105-0.033,0.146-0.053c0.053-0.021,0.104-0.074,0.161-0.128l0.818,3.658L91.395,49.164z M96.801,46.07
	c-0.164,0.109-0.273,0.271-0.365,0.474c-0.074,0.199-0.104,0.399-0.127,0.654c-0.019,0.219-0.019,0.474-0.019,0.729v6.935
	c0,0.363,0.019,0.677,0.056,0.932c0.035,0.234,0.107,0.438,0.199,0.582c0.092,0.164,0.237,0.271,0.4,0.328
	c0.182,0.07,0.418,0.107,0.693,0.107c0.6,0,1.146-0.093,1.674-0.256c0.524-0.164,1-0.398,1.438-0.729
	c0.436-0.291,0.837-0.674,1.182-1.092c0.348-0.438,0.654-0.911,0.895-1.439l0.16,0.094l-1.563,4.514
	c-0.092-0.092-0.236-0.162-0.42-0.198c-0.18-0.038-0.398-0.058-0.635-0.058h-7.266v-0.164c0.272-0.053,0.475-0.127,0.639-0.271
	c0.165-0.108,0.271-0.272,0.363-0.438c0.072-0.183,0.127-0.383,0.146-0.601c0.019-0.219,0.037-0.438,0.037-0.655v-7.463
	c0-0.255,0-0.51-0.021-0.746c-0.02-0.234-0.055-0.474-0.127-0.674c-0.091-0.199-0.201-0.384-0.365-0.527
	c-0.164-0.146-0.381-0.234-0.674-0.271V45.67h4.371v0.164C97.184,45.854,96.963,45.924,96.801,46.07z M69.656,7.58
	c1.351,0,2.482,1.065,2.482,2.463c0,1.422-1.135,2.488-2.482,2.488c-1.356,0-2.495-1.066-2.495-2.488
	C67.161,8.646,68.3,7.58,69.656,7.58z M69.656,12.167c1.145,0,2.033-0.914,2.033-2.124c0-1.186-0.892-2.099-2.033-2.099
	c-1.166,0-2.045,0.913-2.045,2.099C67.611,11.253,68.49,12.167,69.656,12.167z M68.689,8.606h1.119c0.688,0,1.014,0.272,1.014,0.827
	c0,0.522-0.334,0.742-0.764,0.787l0.83,1.277h-0.484l-0.787-1.243h-0.477v1.243h-0.451V8.606L68.689,8.606z M69.141,9.891h0.471
	c0.396,0,0.762-0.02,0.762-0.478c0-0.383-0.33-0.442-0.639-0.442h-0.594V9.891z M30.844,71.641l0.95-3.146l-2.618-1.985l3.286-0.066
	l1.078-3.104l1.081,3.104l3.287,0.066l-2.62,1.985l0.951,3.146l-2.699-1.877L30.844,71.641z M43.868,71.641l0.951-3.146L42.2,66.508
	l3.286-0.066l1.081-3.104l1.078,3.104l3.287,0.066l-2.618,1.985l0.952,3.146l-2.699-1.877L43.868,71.641z M56.895,71.641
	l0.951-3.146l-2.619-1.985l3.287-0.066l1.078-3.104l1.08,3.104l3.287,0.066l-2.619,1.985l0.951,3.146l-2.699-1.877L56.895,71.641z
	 M69.92,71.641l0.952-3.146l-2.62-1.985l3.286-0.066l1.081-3.104l1.078,3.104l3.287,0.066l-2.621,1.985l0.953,3.146l-2.697-1.877
	L69.92,71.641z M58.746,14.364l-0.01-0.009l-0.014-0.012l-0.752-0.623l-0.027-0.021l-0.033-0.016l-0.104-0.046l-0.052-0.021H57.7
	c-0.031,0-0.06,0.006-0.089,0.013l-0.029-0.013h-0.055c-0.03,0-0.063,0.006-0.09,0.013l-0.028-0.013h-0.056
	c-0.106,0-0.194,0.056-0.291,0.141l-0.86,0.652c-0.3,0.225-0.503,0.41-0.619,0.569c-0.129,0.174-0.201,0.368-0.213,0.573
	l-0.113,3.211h-0.034c-0.007,0-0.014,0-0.021,0.002H55.2V18.76h-0.147c-0.009,0-0.016,0-0.021,0.002l-0.003-0.002H54.88
	c-0.157,0-0.276,0.119-0.373,0.232c-0.04,0.047-0.063,0.07-0.071,0.084l-0.06,0.021h-0.002c-0.032-0.002-0.065-0.006-0.108-0.012
	c-0.129-0.014-0.31-0.039-0.529-0.07l-0.396-0.053c0.194-0.254,0.368-0.481,0.521-0.684c0.213-0.273,0.385-0.502,0.521-0.688
	c0.413-0.572,0.621-1.158,0.621-1.75c0-0.598-0.216-1.053-0.643-1.357l-0.866-0.625c-0.228-0.16-0.334-0.212-0.439-0.212H52.99
	l-0.024,0.014c-0.028-0.01-0.058-0.014-0.085-0.014h-0.063l-0.024,0.014c-0.032-0.01-0.058-0.014-0.087-0.014h-0.063l-0.054,0.028
	c-0.04,0.02-0.075,0.041-0.108,0.063c-0.015,0.01-0.032,0.021-0.054,0.031l-0.009,0.003l-0.008,0.005l-0.485,0.289
	c-0.093,0.053-0.177,0.106-0.251,0.157c0.007-0.034,0.011-0.07,0.011-0.106V14.09l-0.006-0.025l-0.011-0.058l-0.033-0.161
	l-0.157-0.039l-0.049-0.013l-0.066-0.018l-0.069,0.021L51.283,13.8l-0.024-0.007l-0.068-0.018l-0.069,0.021l-0.011,0.003
	l-0.026-0.007l-0.066-0.018l-0.068,0.021l-0.165,0.048c-0.06-0.013-0.126-0.028-0.199-0.048c-0.556-0.154-0.739-0.174-0.835-0.174
	c-0.027,0-0.049,0.001-0.076,0.005c-0.003,0-0.003,0-0.003,0c-0.041-0.004-0.07-0.005-0.095-0.005s-0.051,0.001-0.075,0.005
	c-0.002,0-0.005,0-0.005,0c-0.039-0.004-0.068-0.005-0.092-0.005c-0.202,0-0.421,0.127-0.693,0.4l-0.51,0.509
	c-0.106,0.104-0.201,0.198-0.286,0.279s-0.153,0.146-0.21,0.194l-0.006,0.006l-0.009,0.006c-0.414,0.417-0.49,0.564-0.49,0.704
	c0,0.164,0.076,0.293,0.768,0.778c0.181,0.124,0.333,0.231,0.462,0.325c0.133,0.092,0.25,0.173,0.353,0.244
	c0.184,0.139,0.309,0.315,0.369,0.538l0.003,0.006l0.002,0.008c0.03,0.091,0.068,0.297,0.068,0.738c0,0.584-0.038,1.031-0.108,1.326
	c-0.108,0.479-0.303,0.794-0.587,0.941l-0.417,0.225c-0.325,0.131-0.554,0.242-0.554,0.469v0.115l0.085,0.079l0.105,0.093
	l0.074,0.063h0.098c0.023,0,0.047-0.003,0.073-0.003l0.002,0.003h0.099c0.023,0,0.047-0.003,0.07-0.003c0,0,0,0,0.002,0l0.003,0.003
	h0.098c0.269,0,0.656-0.146,1.224-0.459c0.51-0.287,0.854-0.53,1.059-0.741l0.002-0.005l0.007-0.006
	c0.139-0.159,0.251-0.339,0.334-0.537c0.004-0.009,0.011-0.022,0.015-0.034h0.002c0.053-0.129,0.094-0.268,0.123-0.414l0.002-0.006
	v-0.006c0.019-0.107,0.031-0.244,0.043-0.409c0.014-0.162,0.017-0.361,0.017-0.591v-0.532c0-0.849-0.234-1.509-0.699-1.966
	l-0.016-0.014l-0.012-0.012c-0.264-0.191-0.521-0.382-0.775-0.57c-0.173-0.127-0.342-0.255-0.513-0.382l0.031-0.03
	c0.074,0.033,0.175,0.077,0.303,0.142c0.476,0.237,0.653,0.271,0.765,0.271c0.027,0,0.057-0.002,0.085-0.008
	c0.033,0.006,0.063,0.008,0.087,0.008c0.028,0,0.06-0.002,0.086-0.008c0.035,0.006,0.064,0.008,0.088,0.008
	c0.23,0,0.456-0.146,0.708-0.463v0.027l0.059,0.072l0.046,0.057l0.079,0.098h0.124c0.015,0,0.029-0.002,0.046-0.002l0.002,0.002
	h0.124c0.017,0,0.029-0.002,0.046-0.002l0.004,0.002h0.125c0.088,0,0.151-0.032,0.362-0.169c0.021-0.015,0.043-0.027,0.06-0.04
	c0.195,0.086,0.399,0.275,0.604,0.564c0.282,0.404,0.426,0.78,0.426,1.108c0,0.507-0.236,1.06-0.706,1.642l-0.724,0.895
	l-0.407,0.431c-0.174,0.19-0.276,0.319-0.334,0.412c-0.006,0.013-0.013,0.022-0.021,0.034c-0.042,0.078-0.053,0.128-0.053,0.184
	v0.091l0.058,0.071l0.047,0.059l0.116,0.146l0.133-0.05l0.04,0.05l0.132-0.05l0.04,0.05l0.175-0.066
	c0.284-0.102,0.446-0.143,0.533-0.158c0.027,0.002,0.053,0.006,0.083,0.006c0.124,0.012,0.263,0.031,0.415,0.061
	c0.36,0.058,0.653,0.096,0.882,0.124c0.239,0.028,0.413,0.042,0.532,0.042c0.024,0,0.048-0.002,0.069-0.003h0.002
	c0.039,0.003,0.074,0.003,0.104,0.003c0.021,0,0.045-0.002,0.07-0.003h0.002c0.035,0.003,0.07,0.003,0.101,0.003
	c0.315,0,0.563-0.217,0.736-0.648c0.059-0.14,0.1-0.283,0.13-0.428c0.098,0.145,0.229,0.287,0.391,0.425
	c0.148,0.122,0.469,0.319,1.002,0.618l0.141,0.08l0.078-0.055l0.1,0.055l0.076-0.055l0.096,0.055l0.135-0.092
	c1.131-0.781,1.688-1.461,1.707-2.08l0.08-3.054C59.301,15.105,59.122,14.762,58.746,14.364z M57.009,20.338
	c-0.509-0.285-0.829-0.481-0.96-0.59c-0.055-0.045-0.105-0.093-0.15-0.139c-0.26-0.263-0.387-0.528-0.383-0.797l0.116-3.251
	c0.007-0.154,0.063-0.299,0.163-0.432c0.033-0.048,0.08-0.101,0.137-0.154c0-0.003,0.002-0.005,0.004-0.006
	c0.002-0.002,0.004-0.006,0.006-0.008l0.002-0.001c0.105-0.102,0.246-0.217,0.418-0.346l0.867-0.661
	c0.063-0.054,0.105-0.081,0.127-0.081l0.096,0.043l0.01,0.004l0.079,0.064l0.674,0.562c0.324,0.339,0.479,0.628,0.478,0.866
	l-0.082,3.053c-0.019,0.498-0.494,1.088-1.443,1.764c-0.025,0.021-0.049,0.037-0.076,0.057
	C57.059,20.303,57.035,20.32,57.009,20.338z M54.275,20.338c-0.108,0-0.274-0.013-0.504-0.039c-0.229-0.029-0.517-0.068-0.858-0.122
	c-0.165-0.03-0.313-0.052-0.447-0.063c-0.038-0.004-0.075-0.006-0.11-0.01c-0.002,0-0.005,0-0.007,0c0,0,0,0-0.001,0
	c-0.039-0.002-0.08-0.005-0.115-0.005c-0.002-0.001-0.007,0-0.008,0c-0.002-0.001-0.002-0.001-0.004,0h-0.002
	c-0.042-0.003-0.078-0.003-0.118-0.003c-0.083,0-0.214,0.025-0.389,0.079c-0.057,0.017-0.116,0.036-0.182,0.059
	c-0.031,0.011-0.062,0.021-0.095,0.032c-0.014,0.004-0.024,0.01-0.04,0.016l-0.045-0.059c0-0.054,0.107-0.198,0.326-0.441
	c0.002-0.004,0.006-0.006,0.008-0.01l0.003-0.002l0.413-0.438l0.06-0.073l0.011-0.012l0.004-0.006l0.654-0.809
	c0.51-0.634,0.767-1.235,0.767-1.806c0-0.386-0.159-0.804-0.476-1.261c-0.04-0.053-0.077-0.104-0.116-0.152c0-0.002,0-0.002,0-0.002
	c-0.239-0.291-0.476-0.475-0.721-0.542c-0.038-0.011-0.073-0.019-0.11-0.022c-0.04-0.006-0.079-0.01-0.117-0.01
	s-0.097,0.02-0.169,0.06c-0.04,0.021-0.084,0.046-0.132,0.079c-0.035,0.021-0.065,0.042-0.093,0.06
	c-0.038,0.022-0.066,0.04-0.088,0.05c-0.021,0.014-0.035,0.021-0.039,0.021l-0.048-0.059c0-0.087,0.061-0.182,0.177-0.286
	c0-0.001,0.002-0.001,0.004-0.004c0.091-0.082,0.223-0.171,0.388-0.266l0.485-0.288c0.03-0.015,0.058-0.03,0.081-0.047
	c0.022-0.016,0.051-0.031,0.081-0.046c0.021,0,0.051,0.014,0.102,0.041c0.022,0.015,0.051,0.031,0.085,0.05v0.002
	c0.031,0.019,0.064,0.044,0.104,0.068l0.863,0.627c0.354,0.253,0.535,0.635,0.535,1.146c0,0.537-0.19,1.07-0.566,1.594
	c-0.034,0.044-0.071,0.092-0.109,0.143c-0.115,0.156-0.253,0.34-0.411,0.547c-0.207,0.273-0.456,0.594-0.742,0.965
	c0,0.022,0.011,0.044,0.032,0.06v0.002c0.05,0.043,0.163,0.065,0.339,0.065l0.417,0.058c0.226,0.031,0.403,0.054,0.539,0.069
	c0.135,0.016,0.229,0.022,0.282,0.022h0.149h0.023h0.057l0.014-0.005h0.002l0.124-0.053c0.03-0.007,0.086-0.057,0.162-0.149
	c0.028-0.035,0.058-0.063,0.079-0.086c0.039-0.034,0.07-0.054,0.095-0.054l0.047,0.082c0,0.002,0,0.002,0,0.004
	c0,0.063-0.005,0.127-0.009,0.189c-0.021,0.189-0.068,0.375-0.143,0.559c-0.108,0.27-0.241,0.428-0.399,0.47
	c-0.017,0.006-0.03,0.01-0.045,0.012C54.311,20.337,54.294,20.338,54.275,20.338z M50.256,15.097h-0.003
	c-0.026,0.01-0.054,0.014-0.079,0.014c-0.107,0-0.324-0.081-0.648-0.241c-0.187-0.094-0.339-0.162-0.451-0.2
	c-0.034-0.011-0.063-0.019-0.089-0.026c-0.043-0.014-0.079-0.018-0.108-0.018l-0.076,0.02l-0.062,0.017l-0.138,0.091l-0.279,0.256
	c0.021,0.016,0.042,0.031,0.063,0.045c0.232,0.176,0.468,0.353,0.7,0.526c0.256,0.19,0.514,0.381,0.777,0.572
	c0.416,0.409,0.623,1.003,0.623,1.781v0.532c0,0.224-0.006,0.414-0.019,0.572c-0.01,0.157-0.023,0.287-0.039,0.388
	c-0.068,0.339-0.208,0.628-0.415,0.867c-0.186,0.193-0.518,0.423-0.996,0.692c-0.335,0.188-0.605,0.311-0.812,0.375
	c-0.049,0.016-0.093,0.027-0.135,0.035c-0.058,0.013-0.108,0.019-0.153,0.019L47.9,21.396l-0.088-0.074
	c0-0.025,0.037-0.057,0.104-0.094c0.066-0.038,0.168-0.086,0.302-0.139l0.428-0.23c0.158-0.081,0.294-0.201,0.406-0.357
	c0.138-0.194,0.243-0.445,0.312-0.754c0.076-0.315,0.116-0.778,0.116-1.387c0-0.387-0.027-0.66-0.08-0.822
	c-0.043-0.147-0.107-0.279-0.192-0.398c-0.077-0.106-0.171-0.201-0.283-0.283c-0.101-0.07-0.216-0.148-0.347-0.243
	c-0.132-0.092-0.286-0.2-0.464-0.323c-0.245-0.172-0.422-0.307-0.529-0.403c-0.085-0.078-0.13-0.132-0.13-0.164
	c0-0.054,0.089-0.175,0.263-0.361c0.043-0.048,0.095-0.104,0.153-0.159c0.063-0.054,0.136-0.121,0.22-0.201
	c0.087-0.081,0.182-0.177,0.29-0.285l0.509-0.509c0.215-0.216,0.386-0.323,0.511-0.323c0.025,0,0.063,0.004,0.106,0.01
	c0,0,0,0,0.002,0c0.034,0.004,0.071,0.012,0.114,0.02c0.134,0.026,0.312,0.072,0.538,0.135c0.185,0.052,0.346,0.078,0.475,0.078
	l0.052-0.008H50.7h0.001l0.077-0.009l0.042-0.006l0.197-0.056l0.046,0.01l0.006,0.026l0.006,0.03v0.002
	c0,0.086-0.041,0.18-0.126,0.289l-0.22,0.276c-0.148,0.194-0.282,0.323-0.399,0.386l0,0c-0.002,0.002-0.004,0-0.004,0h-0.002
	c-0.023,0.016-0.044,0.023-0.065,0.028C50.257,15.097,50.257,15.097,50.256,15.097z M57.586,19.361
	c0.018-0.011,0.027-0.027,0.036-0.047c0.028-0.054,0.048-0.141,0.06-0.26c0.004-0.051,0.006-0.109,0.01-0.174l0.045-3.019
	c0.012-0.259-0.084-0.515-0.272-0.759c0-0.003,0-0.003-0.003-0.004c-0.002-0.003-0.002-0.003-0.002-0.004
	c-0.122-0.168-0.264-0.28-0.415-0.334c-0.042-0.018-0.082-0.029-0.125-0.033h-0.002c-0.04-0.008-0.075-0.012-0.11-0.012
	c-0.104,0-0.154,0.07-0.164,0.209l-0.115,3.551c-0.006,0.162,0.115,0.354,0.371,0.578c0.246,0.216,0.461,0.324,0.646,0.324
	C57.559,19.379,57.572,19.373,57.586,19.361z M57.234,15.234c0.006,0.008,0.01,0.012,0.014,0.02l0.002,0.003l0.005,0.002
	c0.155,0.2,0.228,0.394,0.224,0.598l-0.047,3.021c-0.008-0.006-0.016-0.012-0.021-0.018c-0.228-0.199-0.285-0.327-0.283-0.371
	L57.234,15.234z M45.929,13.703l-0.144-0.059l-0.058,0.047l-0.114-0.047l-0.06,0.047l-0.113-0.047l-0.122,0.097l-0.902,0.728
	l-0.037,0.033l-0.024,0.044c-0.044,0.075-0.068,0.121-0.077,0.137l-0.064,0.135l0.082,0.126l0.047,0.068l0.076,0.118h0.138
	c0.013,0,0.023,0,0.035-0.003v0.003h0.139c0.011,0,0.021,0,0.034-0.003c0,0,0,0,0.002,0v0.003h0.137
	c0.039,0,0.086-0.006,0.144-0.021c0.019,0.015,0.033,0.026,0.044,0.038c0.104,0.104,0.159,0.341,0.155,0.667l-0.104,3.755
	c-0.006,0.088-0.017,0.204-0.026,0.351c-0.014,0.147-0.03,0.324-0.053,0.528c-0.024,0.212-0.036,0.384-0.036,0.526
	c0,0.266,0.176,0.386,0.341,0.386c0.031,0,0.059-0.004,0.083-0.012c0.032,0.009,0.062,0.012,0.091,0.012
	c0.03,0,0.058-0.004,0.085-0.012c0.028,0.009,0.058,0.012,0.087,0.012c0.227,0,0.316-0.237,0.359-0.353
	c0.077-0.209,0.135-0.307,0.164-0.35c0.096-0.02,0.195-0.042,0.304-0.067c0.253-0.058,0.404-0.235,0.404-0.472l0.127-5.035
	C47.091,14.49,46.705,14.025,45.929,13.703z M45.287,20.975c0-0.131,0.01-0.298,0.033-0.497c0.023-0.208,0.039-0.388,0.052-0.539
	c0.013-0.149,0.021-0.267,0.028-0.352l0.104-3.771c0.004-0.311-0.039-0.55-0.131-0.716c-0.072-0.135-0.175-0.224-0.31-0.264
	c-0.002-0.001-0.004-0.001-0.006,0c-0.026-0.01-0.054-0.018-0.085-0.021l0,0c-0.002,0-0.002,0-0.005,0h-0.002
	c-0.03-0.005-0.062-0.006-0.098-0.006c0,0-0.002,0-0.004,0c-0.038,0-0.09,0.009-0.153,0.029c-0.002,0-0.002,0-0.004,0
	c-0.049,0.014-0.088,0.021-0.119,0.025c-0.01,0.002-0.022,0.004-0.033,0.004l-0.044-0.07c0.006-0.015,0.029-0.059,0.069-0.128
	L44.67,14.6l0.814-0.657c0.037,0.016,0.074,0.032,0.112,0.048c0.038,0.018,0.072,0.037,0.107,0.053
	c0.521,0.268,0.775,0.611,0.761,1.033l-0.127,5.043c0,0.114-0.065,0.188-0.201,0.219c-0.136,0.031-0.26,0.059-0.375,0.081
	c-0.031,0.022-0.065,0.061-0.101,0.112c0,0.002,0,0.002,0,0.002c-0.056,0.088-0.116,0.216-0.177,0.383
	c-0.011,0.023-0.017,0.041-0.025,0.059c0,0.002,0,0.002,0,0.002c-0.028,0.063-0.052,0.103-0.072,0.116
	c-0.007,0.007-0.013,0.009-0.02,0.009C45.314,21.102,45.287,21.06,45.287,20.975z"/>
</svg>
