<?xml version="1.0" encoding="utf-8"?>
<!-- Generator: Adobe Illustrator 16.0.0, SVG Export Plug-In . SVG Version: 6.00 Build 0)  -->
<!DOCTYPE svg PUBLIC "-//W3C//DTD SVG 1.1//EN" "http://www.w3.org/Graphics/SVG/1.1/DTD/svg11.dtd">
<svg version="1.1" id="Layer_1" xmlns="http://www.w3.org/2000/svg" xmlns:xlink="http://www.w3.org/1999/xlink" x="0px" y="0px"
	 width="80px" height="80px" viewBox="0 0 80 80" enable-background="new 0 0 80 80" xml:space="preserve">
<path d="M57.627,33.487c0,0-7.318,0.557-6.295,8.281c0.227,0.938,1.378,4.508,5.838,5.201c0,0,5.428,0.857,7.313-5.197
	C64.482,41.771,66.023,34.057,57.627,33.487z M59.57,45.885c0,0-1.43,0.457-1.829-0.914l-1.399-4.693l-1.115-3.763
	c0,0-0.285-1.427,0.976-1.771c0,0,1.024-0.628,1.771,0.858l2.457,8.453C60.426,44.055,60.77,45.484,59.57,45.885z M13.435,38.972
	l6.569-3.601c0,0-2.685-4.742-10.112-4.541c0,0-8.74,0.256-9.169,8.197c0,0,0,7.513,9.77,8.17c0,0,5.397,0.258,8.883-3.715
	l-0.342-1.112c0,0-1.687,3.228-5.799,3.169c0,0-6.056-0.198-6.34-6.568c0,0,0.056-5.915,6.11-6.514c0,0,2.201-0.286,4.086,1.058
	L13.435,38.972L13.435,38.972z M25.087,42.459c0.056-0.535,0.424-2.164,2.431-2.115c0,0,2.171-0.229,2.398,2.227
	c0,0,0.4,2.457-2.398,2.688C27.519,45.258,24.834,45.146,25.087,42.459L25.087,42.459z M20.178,42.386
	c-0.054,0.552-0.04,1.979,1.227,3.153c0,0,1.829,1.602,4.17,1.43c0,0,3.601,0.057,4.687-2.857l0.741,2.632h4.801l-3.085-10.626
	c0,0-1.028-3.028-4.515-2.229l-6.17,2.116h6.113l1.085,4.112c0,0-0.742-1.485-4.514-1.428
	C24.718,38.686,20.537,38.958,20.178,42.386L20.178,42.386z M37.518,36.17h-2.973L39.059,34c0,0,1.657-0.856,2.686,0.685
	l0.628,1.029L46.316,34c0,0,1.084-0.626,2.455,0.403c0,0,0.686,0.74,0.742,1.768v10.515h-4.912v-9.481c0,0-0.229-1.258-1.261-1.086
	c0,0-0.972,0-1.026,1.027v9.542h-4.797L37.518,36.17L37.518,36.17z M67.281,36.229h-2.971l4.516-2.172c0,0,1.656-0.856,2.684,0.687
	l0.629,1.028l3.942-1.714c0,0,1.084-0.626,2.455,0.4c0,0,0.688,0.743,0.741,1.772v10.514h-4.911v-9.485c0,0-0.229-1.255-1.259-1.087
	c0,0-0.969,0-1.025,1.03v9.54h-4.801V36.229L67.281,36.229z"/>
</svg>
