<?xml version="1.0" encoding="utf-8"?>
<!-- Generator: Adobe Illustrator 16.0.0, SVG Export Plug-In . SVG Version: 6.00 Build 0)  -->
<!DOCTYPE svg PUBLIC "-//W3C//DTD SVG 1.1//EN" "http://www.w3.org/Graphics/SVG/1.1/DTD/svg11.dtd">
<svg version="1.1" id="Layer_1" xmlns="http://www.w3.org/2000/svg" xmlns:xlink="http://www.w3.org/1999/xlink" x="0px" y="0px"
	 width="84px" height="80px" viewBox="0 0 84 80" enable-background="new 0 0 84 80" xml:space="preserve">
<path d="M80.758,21.574c1.65,0,3.033,1.302,3.033,3.008c0,1.738-1.383,3.041-3.033,3.041c-1.658,0-3.047-1.303-3.049-3.041
	C77.711,22.875,79.1,21.574,80.758,21.574z M80.758,27.177c1.4,0,2.482-1.116,2.482-2.597c0-1.447-1.084-2.563-2.482-2.563
	c-1.422,0-2.498,1.116-2.498,2.564C78.26,26.061,79.336,27.177,80.758,27.177z M79.578,22.827h1.365
	c0.842,0,1.238,0.331,1.238,1.011c0,0.639-0.404,0.905-0.933,0.963l1.013,1.561H81.67l-0.963-1.521h-0.582v1.521h-0.549
	L79.578,22.827L79.578,22.827z M80.127,24.395h0.574c0.486,0,0.93-0.024,0.93-0.582c0-0.47-0.402-0.541-0.775-0.541h-0.729V24.395z
	 M52.291,20.277c0.125,0.933,1.244,1.726,1.389,2.777c0.096,0.692-0.256,0.835,0,1.563c0.719-0.901,1.584-1.657,1.389-3.472
	c-0.809-1.101-1.271-2.546-1.563-4.166C52.729,18.048,52.117,18.986,52.291,20.277z M67.395,31.734
	c-1.061,0.967-1.504,2.546-3.297,2.779c-0.221,1.848-3.813,3.579-5.035,0.867c-1.172,0.317-1.602,2.209-3.125,1.91
	c-0.957-0.188-1.494-1.453-1.041-2.951c-1.078,1.007-1.869,3.224-3.299,3.299c-1.014-0.203-0.871-1.561-0.867-2.778
	c-1.086,1.172-1.393,3.124-3.299,3.473c-0.434-0.379-0.979-0.641-0.869-1.562c-1.35,0.445-2.104,2.985-4.858,2.603
	c-0.385-0.483-0.969-0.767-0.867-1.735c-1.162,0.459-1.48,1.762-2.953,1.91c-0.748-0.234-0.766-1.2-0.693-2.257
	c-1.762,0.669-2.32,2.54-4.342,2.951c-1.217-1.56,0.176-4.099,0.348-5.901c-1.572,1.146-2.398,4.544-4.164,6.077
	c-0.467,0.117-0.336-0.361-0.521-0.522c-0.861,0.759-1.178,2.062-1.91,2.951c0.496,4.889,2.877,12.57,0.174,17.188
	c-0.533,0.907-1.682,2.353-2.604,2.258c-1.559-0.158-1.984-3.459-2.084-4.514c-0.434-4.661,0.924-8.99,2.258-11.806
	c-0.354-1.502-0.314-3.392-0.867-4.688c-2.338,0.192-3.535-0.748-4.689-1.736c-4.922,1.966-17.891,4.732-18.576-2.95
	c0.514-4.084,4.182-7.093,8.68-7.118c1.607-0.009,3.732,0.317,4.688,1.562c-0.393,1.111-1.551,1.458-2.604,1.909
	c-2.514-0.449-4.588,0.474-5.557,2.084c-1.467,7.665,9.5,5.693,13.195,3.472c-0.975-3.132,0.531-6.121,2.604-7.291
	c0.818,0.164,1.617,0.35,1.91,1.043c-0.512,1.292-2.535,2.704-2.43,4.512c0.043,0.759,0.387,1.445,1.215,1.91
	c2.254-0.408,2.723-2.602,3.818-4.166c0.199-1.307,0.42-2.591,2.084-2.432c-0.658,2.93-1.547,5.629-1.215,9.549
	c1.988-1.889,1.84-5.913,2.604-9.028c0.793-0.249,1.07-1.013,2.084-1.042c-0.086,2.055-0.906,3.379-1.215,5.209
	c1.439-0.934,1.967-5.207,4.164-5.382c1.719,1.008,0.227,4.516,0.523,6.076c3.338-0.48,2.137-5.501,4.859-6.599
	c0.6,1.119-0.645,1.435-0.693,2.432c0.865-0.121,1.58-1.891,2.951-2.084c1.818,0.712,1.328,4.201,0.174,5.209
	c1.007,1.384,2.386-0.518,2.951-1.216c0.678-1.06,1.279-2.193,1.734-3.472c1.068,0.043,1.463-1.371,2.082-1.216
	c0.283,0.746,0.283,2.554,0,3.298c1.354-1.133,1.756-3.223,2.604-4.859c1.867,0.878,0.775,3.792,1.216,5.901
	c1.545-1.523,1.979-4.157,3.297-5.901c2.606,0.889-0.211,3.577,0.176,5.901c1.172,0.128,1.498-0.585,2.258-0.867
	c0.262-1.823,0.492-3.675,1.215-5.036c0.52,0.294,0.816,0.805,1.563,0.869c0.936,0.142,1.481-0.291,2.084,0
	c0.91,0.599,1.529,2.202,1.041,3.645c2.574-1.246,2.67-4.968,6.422-5.034c0.078,2.042-1.021,2.915-1.387,4.514
	c1.625-0.922,2.344-4.253,4.688-5.035c1.584,0.832,0.688,3.655,0.87,5.729c0.138,1.555,0.584,2.585,1.041,3.472
	c0.489,0.089,0.735,0.42,1.216,0.521c2.577-0.487,3.902-2.229,5.383-3.819c-0.283,1.318-1.252,2.958-2.434,3.994
	c-0.729,0.639-1.709,1.103-2.775,1.214c-3.67-0.438-4.902-3.312-4.688-7.639c-2.313,1.048-2.939,3.771-5.383,4.689
	C66.367,35.076,67.041,33.016,67.395,31.734z M60.973,34.513c1.361-0.053,2.033-1.636,1.563-2.951
	C61.064,31.505,60.432,33.128,60.973,34.513z M39.096,36.423c1.447,0.112,2.354-1.963,1.738-2.777
	C39.803,34.121,38.949,34.773,39.096,36.423z M23.475,58.473c0.938-0.438,0.955-2.031,1.041-3.299
	c0.137-2.05,0.031-4.535-0.174-6.25C23.727,51.714,22.359,55.564,23.475,58.473z"/>
</svg>
