<?xml version="1.0" encoding="utf-8"?>
<!-- Generator: Adobe Illustrator 16.0.0, SVG Export Plug-In . SVG Version: 6.00 Build 0)  -->
<!DOCTYPE svg PUBLIC "-//W3C//DTD SVG 1.1//EN" "http://www.w3.org/Graphics/SVG/1.1/DTD/svg11.dtd">
<svg version="1.1" id="Layer_1" xmlns="http://www.w3.org/2000/svg" xmlns:xlink="http://www.w3.org/1999/xlink" x="0px" y="0px"
	 width="265px" height="28px" viewBox="0 0 265 28" enable-background="new 0 0 265 28" xml:space="preserve">
<path fill="#FFFFFF" d="M19.221,24.009c-2.411,1.765-6.119,2.628-11.05,2.628H0V0.612h9.034c9.647,0,14.471,4.284,14.471,12.887
	C23.505,18.43,22.064,21.957,19.221,24.009z M15.441,6.695c-1.476-1.404-3.779-2.088-6.911-2.088H5.65v18.034h2.664
	c3.239,0,5.615-0.721,7.127-2.195c1.512-1.439,2.268-3.743,2.268-6.875C17.709,10.367,16.953,8.099,15.441,6.695z M30.271,18.573
	c0,1.513,0.324,2.735,0.936,3.672c0.72,1.116,1.8,1.655,3.24,1.655c2.159,0,3.383-1.043,3.635-3.168h5.111
	c-0.323,2.195-1.331,3.853-3.06,4.896c-1.476,0.898-3.419,1.368-5.759,1.368c-2.952,0-5.22-0.792-6.804-2.376
	c-1.619-1.584-2.411-3.852-2.411-6.768c0-3.061,0.792-5.472,2.411-7.235c1.62-1.764,3.924-2.627,6.983-2.627
	c3.996,0,6.695,1.62,8.027,4.823c0.54,1.26,0.792,3.167,0.792,5.759H30.271z M34.519,11.087c-1.26,0-2.268,0.432-3.023,1.224
	c-0.756,0.864-1.116,1.908-1.116,3.239h7.919C38.298,12.563,37.038,11.087,34.519,11.087z M58.612,27.068
	c-4.247,0-7.559-1.151-9.935-3.527c-2.411-2.305-3.599-5.615-3.599-9.863c0-4.139,1.188-7.451,3.527-9.935
	C50.981,1.26,54.222,0,58.289,0c6.371,0,9.826,2.7,10.294,8.135H62.86c-0.396-2.628-2.016-3.924-4.896-3.924
	c-2.412,0-4.212,1.008-5.436,2.988c-1.043,1.656-1.548,3.779-1.548,6.335c0,2.771,0.612,4.968,1.836,6.659
	c1.404,1.908,3.42,2.88,6.083,2.88c1.62,0,3.06-0.181,4.355-0.54v-6.119h-5.507v-3.852h10.87v13.103
	C65.056,26.602,61.708,27.068,58.612,27.068z M72.787,26.637V0.612H90.39v4.032H78.331v6.767h11.41v3.996h-11.41v7.198h12.418v4.031
	H72.787z M108.767,26.637L98.76,5.184v21.453H93.9V0.612h7.919l10.007,21.49V0.612h4.859v26.025H108.767z M132.491,4.751v21.885
	h-5.651V4.751h-8.135v-4.14h21.922v4.14H132.491z M142.622,26.637V0.612h5.651v21.921h12.166v4.104H142.622z M162.609,26.637V0.612
	h17.603v4.032h-12.06v6.767h11.41v3.996h-11.41v7.198h12.418v4.031H162.609z M209.102,26.637V3.996l-7.774,22.641h-4.968
	L188.584,3.96v22.677h-4.859V0.612h8.641l6.803,20.41l6.551-20.41h8.641v26.025H209.102z M218.893,26.637V0.612h17.603v4.032h-12.06
	v6.767h11.41v3.996h-11.41v7.198h12.418v4.031H218.893z M254.872,26.637L244.865,5.184v21.453h-4.859V0.612h7.919l10.007,21.49
	V0.612h4.859v26.025H254.872z"/>
</svg>
