<?xml version="1.0" encoding="utf-8"?>
<!-- Generator: Adobe Illustrator 16.0.0, SVG Export Plug-In . SVG Version: 6.00 Build 0)  -->
<!DOCTYPE svg PUBLIC "-//W3C//DTD SVG 1.1//EN" "http://www.w3.org/Graphics/SVG/1.1/DTD/svg11.dtd">
<svg version="1.1" id="Layer_1" xmlns="http://www.w3.org/2000/svg" xmlns:xlink="http://www.w3.org/1999/xlink" x="0px" y="0px"
	 width="40px" height="80px" viewBox="0 0 40 80" enable-background="new 0 0 40 80" xml:space="preserve">
<path d="M16.224,34.1v22.833L0.167,47.593V28.998l1.889,1.235v16.174l12.279,6.881V34.1c0-3.412-3.682-5.561-4.078-5.795
	l-10.09-5.847v-2.417l11.055,6.474C11.722,26.811,16.224,29.536,16.224,34.1z M3.001,46.052l10.389,6.144V34.1
	c0-3.067-3.248-5.042-3.611-5.258l-9.611-5.657v2.418l8.648,5.029c0.025,0.015,2.686,1.521,2.686,3.468v14.45L4.89,44.864V31.839
	l-1.889-1.234V46.052z M23.777,34.1v22.833l16.056-9.342V28.998l-2.832,1.235v16.174l-11.334,6.881V34.1
	c0-3.412,3.685-5.561,4.078-5.795l10.088-5.847v-2.417l-11.056,6.474C28.279,26.811,23.777,29.536,23.777,34.1z M19.956,36.352
	h-2.789V57.67l2.834,1.229V38.24h-0.045h0.045v20.658l2.832-1.229V36.352H19.956z M37.001,30.604l-1.892,1.234v13.025l-6.608,3.686
	V34.1c0-1.947,2.66-3.453,2.687-3.468l8.646-5.029v-2.418l-9.609,5.657c-0.363,0.216-3.608,2.191-3.608,5.258v18.093l10.389-6.145
	L37.001,30.604L37.001,30.604z M17.167,30.685v4.722h5.666v-4.722H17.167z"/>
</svg>
