<?xml version="1.0" encoding="utf-8"?>
<!-- Generator: Adobe Illustrator 16.0.0, SVG Export Plug-In . SVG Version: 6.00 Build 0)  -->
<!DOCTYPE svg PUBLIC "-//W3C//DTD SVG 1.1//EN" "http://www.w3.org/Graphics/SVG/1.1/DTD/svg11.dtd">
<svg version="1.1" id="Layer_1" xmlns="http://www.w3.org/2000/svg" xmlns:xlink="http://www.w3.org/1999/xlink" x="0px" y="0px"
	 width="65px" height="80px" viewBox="0 0 65 80" enable-background="new 0 0 65 80" xml:space="preserve">
<path d="M53.359,47.777h3.354v-4.963H58.1l3.16,4.963h3.701l-4.096-6.715l3.875-5.629h-3.58l-3.135,4.715h-1.312V30.003h-3.354
	V47.777L53.359,47.777z M47.434,47.777h3.359V35.434h-5.086v2.716h1.727V47.777L47.434,47.777z M36.893,38.766
	c0.617-0.493,1.312-0.692,2.174-0.692c1.729,0,2.521,1.013,2.521,3.16c0,2.441-0.963,3.927-2.813,3.927c-0.768,0-1.282,0-1.877-0.05
	v-6.345H36.893z M33.563,51.604h3.33v-3.896c0.617,0.07,1.26,0.1,1.877,0.1c3.978,0,6.172-2.813,6.172-6.421
	c0-3.825-2-6.072-4.983-6.072c-1.354,0-2.271,0.297-3.261,1.013v-0.89h-3.135V51.604z M24.057,40.347
	c0-1.333,0.889-2.345,2.32-2.345c1.236,0,1.754,0.765,1.754,2.271v7.504h3.332v-7.652c0-3.949-2.52-4.888-4.668-4.888
	c-1.752,0-3.109,0.642-4.047,1.581c-0.74-1.185-1.9-1.581-2.986-1.581c-1.111,0-2.174,0.371-3.26,1.111v-0.914h-3.207v12.343h3.332
	v-8.911c0.641-0.566,1.307-0.888,2.27-0.888c1.26,0,1.801,0.765,1.801,2.295v7.504h3.359V40.347L24.057,40.347z M3.443,40.247
	c0.271-1.456,1.137-2.395,2.643-2.395c1.381,0,2.318,1.038,2.371,2.395H3.443z M11.441,41.038c0-3.284-2.049-5.802-5.455-5.802
	c-3.877,0-5.949,2.692-5.949,6.222c0,4.048,2.246,6.519,6.049,6.519c2.715,0,4.492-1.088,5.258-3.063l-2.668-1.086
	c-0.344,0.863-0.986,1.457-2.467,1.457c-1.211,0-2.543-0.568-2.814-2.863h8.047L11.441,41.038L11.441,41.038z M50.619,29.78v-2.122
	h-3.998v3.999h1.998c-0.148,0.667-0.543,1.358-1.307,2.148l1.135,1.135C50.125,33.188,50.619,32.077,50.619,29.78"/>
</svg>
