<?xml version="1.0" encoding="utf-8"?>
<!-- Generator: Adobe Illustrator 16.0.0, SVG Export Plug-In . SVG Version: 6.00 Build 0)  -->
<!DOCTYPE svg PUBLIC "-//W3C//DTD SVG 1.1//EN" "http://www.w3.org/Graphics/SVG/1.1/DTD/svg11.dtd">
<svg version="1.1" id="Layer_1" xmlns="http://www.w3.org/2000/svg" xmlns:xlink="http://www.w3.org/1999/xlink" x="0px" y="0px"
	 width="115px" height="80px" viewBox="0 0 115 80" enable-background="new 0 0 115 80" xml:space="preserve">
<path d="M4.07,39.343c-0.009,4.919,4.528,6.431,9.621,5.748c1.49-0.198,2.789-0.651,3.997-1.188
	c2.277-1.006,4.313-2.428,6.061-4.371c2.048-2.282,3.65-5.053,3.374-9.121c0.541-0.056,0.784,0.708,1.123,1.062
	c1.084,1.407,1.895,3.395,2.312,5.685c0.408,2.235,0.483,5.03-0.063,7.31c-0.347-0.072-0.341-0.564-0.436-0.875
	c-0.11-0.348-0.21-0.682-0.376-0.937c-2.63,4.673-6.872,8.595-12.682,10.433c-1.991,0.63-4.285,1.016-6.809,0.875
	c-3.97-0.22-6.818-2.027-8.247-4.938c-1.424-2.892-1.383-7.827,0.063-10.993c-0.351-0.537-0.738-0.858-1-1.374
	c-1.933-3.822,1.323-7.867,3.435-9.621c0.893-0.67,1.563-1.561,2.813-1.874c0.064,0.584-0.532,0.954-0.874,1.312
	c-1.265,1.311-2.729,2.847-2.688,5.56c0.119,0.589,0.407,1.009,0.688,1.438c1.021,0.92,2.255,1.324,4.311,1.186
	c2.815-0.188,6.291-1.739,7.808-3.249c0.819-0.813,2.402-3.736,0.438-4.498c-0.876-0.34-2.553-0.054-3.437,0.188
	c-1.125,0.306-1.974,0.82-2.686,1.187c-1.203,0.731-2.166,1.622-3.124,2.686c-0.287,0.321-0.654,0.824-1.247,0.563
	c-0.496-0.356-0.256-1.238,0.186-1.5c0.3-0.471,0.684-0.857,1.125-1.187c2.321-2.292,5.463-4.17,9.62-4.435
	c3.266-0.209,6.154,0.736,6.31,3.748c0.12,2.294-1.139,4.439-2.311,5.872c-1.281,1.568-2.696,2.667-4.437,3.687
	c-1.772,1.039-3.612,1.862-5.871,2.249C8.705,40.372,6.198,40.19,4.07,39.343z M51.549,30.784c-1.876,0-3.826,0-5.686,0
	c-1.089,0-2.496-0.09-3.123,0.125c-0.402,0.492-0.365,1.193-0.437,1.812c-0.239,1.997-0.451,4.047-0.688,6.06
	c-0.321,2.688-0.804,5.388-0.875,7.996c0.873,0.226,1.836,0.127,2.813,0.127c2.01,0,3.989,0,5.936,0
	c0.996,0,1.979,0.094,2.873-0.127c0.288-0.795,0.273-1.893,0.438-2.813c-2.645-0.041-5.456,0.084-7.998-0.063
	c0.174-1.221,0.231-2.558,0.5-3.687c2.437,0,4.874,0,7.309,0c0.11-0.933,0.256-1.83,0.313-2.812
	c-2.415-0.041-4.998,0.083-7.31-0.063c0.111-1.244,0.244-2.464,0.439-3.623c2.643,0,5.288,0,7.933,0
	c0.117-0.865,0.382-1.905,0.25-2.812C53.398,30.686,52.49,30.784,51.549,30.784z M65.73,44.591c0.103-0.735,0.203-1.517,0.313-2.312
	c0.357-2.586,1.152-5.713-0.377-7.122c-2.63-1.323-7.521-0.616-9.62,0.688c-0.469,2.618-0.786,5.613-1.125,8.246
	c-0.119,0.938-0.326,1.886-0.187,2.687c0.909,0.277,2.321,0.055,3.435,0.127c0.407-3.195,0.797-6.41,1.188-9.62
	c0.897-0.233,2.472-0.669,3.375-0.125c0.313,0.74,0.149,1.598,0.063,2.375c-0.29,2.45-0.65,4.933-0.876,7.372
	c1.099-0.068,2.479,0.145,3.373-0.125C65.629,46.198,65.617,45.398,65.73,44.591z M79.602,40.468
	c0.705-1.31,0.475-3.824-0.502-4.811c-1.136-0.989-3.111-1.339-5.062-1.188c-1.665,0.129-3.156,0.844-4.06,2.063
	c-1.541,2.072-2.227,6.465-0.627,8.995c0.303,0.195,0.489,0.529,0.813,0.75c1.514,1.039,4.699,1.051,6.811,0.563
	c0.67-0.154,1.395-0.313,1.688-0.75c0.113-0.636-0.092-1.49-0.313-1.999c-1.91,0.591-6.707,1.627-6.438-1.624
	C74.996,42.314,78.471,42.566,79.602,40.468z M72.04,40.405c0.183-1.259,0.44-2.771,1.437-3.313
	c0.936-0.507,2.471-0.295,2.998,0.563c0.158,0.555,0.196,1.104,0.064,1.687C75.846,40.503,73.84,40.352,72.04,40.405z
	 M87.908,34.533c-1.822,0.147-3.713,0.386-4.998,1.063c-0.469,1.703-0.57,3.619-0.813,5.498c-0.246,1.898-0.563,3.82-0.563,5.688
	c0.829,0.199,2.42,0.199,3.249,0c0.412-0.633,0.35-1.483,0.438-2.25c0.271-2.385,0.605-4.9,0.875-7.246
	c0.954-0.189,2.313-0.284,3.313-0.063c0.029-0.869,0.381-1.738,0.188-2.623C89.076,34.345,88.453,34.488,87.908,34.533z
	 M100.341,34.47c-3.135,0-6.353-0.083-8.185,1.5c-1.197,1.033-2.209,4.073-0.874,5.747c0.339,0.426,0.808,0.529,1.372,0.813
	c-0.754,0.172-1.545,0.211-2.063,0.752c-0.646,0.677-0.758,2.053-0.125,2.87c0.394,0.463,1.271,0.453,1.624,0.875
	c-0.932,0.354-1.947,0.365-2.498,1c-0.945,1.101-0.441,2.955,0.563,3.563c0.58,0.352,1.773,0.569,2.746,0.625
	c3.041,0.168,6.166-0.171,7.371-1.563c0.852-1.104,1.275-2.99,0.688-4.248c-0.476-1.014-1.836-1.413-3.374-1.498
	c-1.105-0.063-3.789,0.344-3.996-0.438c-0.173-0.641,0.348-1.059,0.686-1.249c2.31-0.068,4.785,0.036,5.938-1.188
	c0.688-0.831,1.354-1.688,1.249-3.313c-0.167-0.521-0.295-1.079-0.688-1.375c-0.008-0.346-0.455-0.251-0.438-0.625
	c0.729-0.023,1.338,0.077,1.875,0.25c0.101-0.795,0.351-1.441,0.373-2.312C101.998,34.378,101.132,34.47,100.341,34.47z
	 M95.968,36.845c0.716-0.152,1.454-0.063,1.812,0.25c0.83,0.726,0.549,2.939-0.375,3.688c-0.797,0.646-1.895,0.563-2.813,0.062
	c-0.72-1.006-0.395-3.224,0.501-3.748C95.406,37.033,95.551,36.803,95.968,36.845z M93.843,47.214
	c-0.012-0.053,0.023-0.058,0.063-0.063c1.109,0.177,2.574-0.28,3.435,0.125c0.609,0.291,0.841,1.156,0.502,1.875
	c-0.606,1.283-4.407,1.414-5.188,0.188C92.418,48.221,93.063,47.518,93.843,47.214z M104.213,40.468
	c-0.97,0.841-1.523,2.099-1.373,4.063c0.697,3.676,7.374,2.896,10.244,1.687c0.842-0.835,0.779-2.7,1-4.498
	c0.311-2.522,1.141-5.491-0.438-6.685c-1.869-0.941-4.963-0.571-7.061-0.188c-0.82,0.15-1.734,0.25-2.063,0.813
	c-0.125,0.603,0.197,1.3,0.25,1.937c1.304-0.19,3.065-0.778,4.56-0.749c0.594,0.011,1.271,0.12,1.563,0.625
	c0.135,0.439,0.041,1.098-0.063,1.498C108.6,39.438,105.936,39.481,104.213,40.468z M110.588,41.154
	c-0.074,1.195-0.279,2.267-0.377,3.437c-1.014,0.304-3.186,0.548-3.686-0.375C105.809,41.37,108.535,41.438,110.588,41.154z"/>
</svg>
