<?xml version="1.0" encoding="utf-8"?>
<!-- Generator: Adobe Illustrator 16.0.0, SVG Export Plug-In . SVG Version: 6.00 Build 0)  -->
<!DOCTYPE svg PUBLIC "-//W3C//DTD SVG 1.1//EN" "http://www.w3.org/Graphics/SVG/1.1/DTD/svg11.dtd">
<svg version="1.1" id="Layer_1" xmlns="http://www.w3.org/2000/svg" xmlns:xlink="http://www.w3.org/1999/xlink" x="0px" y="0px"
	 width="35px" height="80px" viewBox="0 0 35 80" enable-background="new 0 0 35 80" xml:space="preserve">
<g>
	<g>
		<path d="M34.907,38.71c-0.222-2.979-1.208-5.903-2.873-8.385c-1.634-2.442-3.884-4.478-6.499-5.818
			c-2.023-1.064-4.264-1.689-6.538-1.891c-0.513-0.109-1.028,0.008-1.545,0.011c-1.226,3.51-2.499,7.002-3.733,10.508
			c0.897,0.016,1.799-0.013,2.695,0.014c0.656,0.026,1.345,0.301,1.708,0.875c0.414,0.648,0.392,1.479,0.131,2.182
			c-1.222,3.437-2.454,6.871-3.675,10.31c-1.078,0.018-2.156-0.002-3.235,0.008c-0.15-0.002-0.306,0.018-0.449-0.043
			c1.37-3.774,2.708-7.565,4.058-11.354c-0.644-0.009-1.287,0.004-1.932-0.006c-0.098,0.206-0.168,0.423-0.242,0.641
			c-1.241,3.491-2.494,6.98-3.731,10.474c-0.058,0.09-0.044,0.283-0.184,0.285c-1.027,0.004-2.054-0.004-3.081,0.002
			c-0.185-0.002-0.374,0.02-0.554-0.037c2.817-7.815,5.569-15.654,8.389-23.468c-5.506,1.178-10.24,5.298-12.289,10.53
			c-0.839,2.072-1.204,4.31-1.251,6.537c0.059,1.069,0.134,2.144,0.341,3.196C1.08,46.79,2.87,50.07,5.449,52.539
			c2.143,2.07,4.827,3.566,7.709,4.316c2.806-7.849,5.597-15.697,8.391-23.547c0.026-0.058,0.084-0.171,0.111-0.229
			c1.727,0.018,3.451,0.003,5.178,0.009c0.566,0.01,1.146-0.053,1.696,0.118c0.636,0.171,1.224,0.626,1.419,1.271
			c0.145,0.509,0.045,1.05-0.137,1.535c-1.104,3.217-2.271,6.41-3.404,9.611c-0.282,0.834-1.131,1.355-1.989,1.386
			c-1.345,0.024-2.69-0.009-4.034,0.017c-1.234,3.442-2.458,6.89-3.684,10.334c0.318,0.138,0.66,0.029,0.993,0.054
			c0.504,0.039,1.001-0.058,1.501-0.093c3.277-0.301,6.455-1.568,9.047-3.602c2.08-1.621,3.786-3.719,4.938-6.09
			c1.012-2.039,1.58-4.285,1.741-6.551C34.848,40.293,34.871,39.499,34.907,38.71z M26.544,35.104
			c-0.5-0.011-0.999,0.002-1.497-0.007c-0.143,0.021-0.333-0.053-0.439,0.068c-1.18,3.293-2.346,6.591-3.523,9.883
			c0.646,0.004,1.298,0.032,1.941-0.014C24.167,41.714,25.381,38.419,26.544,35.104z"/>
	</g>
</g>
</svg>
