<?xml version="1.0" encoding="utf-8"?>
<!-- Generator: Adobe Illustrator 16.0.0, SVG Export Plug-In . SVG Version: 6.00 Build 0)  -->
<!DOCTYPE svg PUBLIC "-//W3C//DTD SVG 1.1//EN" "http://www.w3.org/Graphics/SVG/1.1/DTD/svg11.dtd">
<svg version="1.1" id="Layer_1" xmlns="http://www.w3.org/2000/svg" xmlns:xlink="http://www.w3.org/1999/xlink" x="0px" y="0px"
	 width="72px" height="80px" viewBox="0 0 72 80" enable-background="new 0 0 72 80" xml:space="preserve">
<path d="M3.562,38.415c-0.043-1.183,0.611-1.101,0.334-1.854c-0.592,0.307-0.063,0.43-0.221,0.873
	C3.581,37.412,3.562,37.32,3.46,37.32v-1.088c0.004-0.396-0.094-0.889,0.215-0.982c0.02-0.241-0.094-0.348-0.33-0.326v-1.097V30.55
	c-0.07-0.443,0.139-1.162-0.105-1.425V29.02v-0.33c0.127-0.018,0.088-0.202,0.105-0.33c-0.029-0.227-0.482-0.03-0.545-0.216
	c0.041-0.138,0.141-0.227,0.326-0.221c-0.248-0.194-0.859,0.159-1.311,0.107c-0.174,0.016-0.418-0.052-0.438,0.113
	c-0.109,0.005-0.082,0.134-0.109,0.216H1.155c-0.461-0.139,0.346-0.985-0.107-1.418c-0.039,0.617-0.004,0.85-0.328,1.309
	c-0.713,0-0.242-0.569-0.109-0.871c0.248-0.084,0.047-0.613,0.109-0.874c0.232-0.242,0.863-0.082,1.096-0.33H2.58
	c0.678-0.011,1.332-0.052,1.861-0.214h0.324c1.063-0.109,2.01,0.046,3.277,0C8.411,25.89,9.058,26.1,9.249,25.85h1.195
	c0.021,0.307-0.268,0.314-0.545,0.325c-0.029,0.29,0.227,0.284,0.439,0.33c0.018-0.087,0.111-0.11,0.105-0.216
	c0.23,0.158,0.156,0.951-0.105,0.981h-0.33c-0.195,0.133-0.633,0.017-0.76,0.216H8.915c-0.299,0.102-0.762,0.033-0.98,0.219H7.72
	c-0.289,0.043-0.604,0.057-0.773,0.218h-0.32c-0.1,0.089-0.25,0.123-0.439,0.107c-0.135,0.309-0.123,0.759-0.113,1.208v1.529v0.877
	v0.32c-0.145,0.039-0.088,0.277-0.104,0.443c-0.184,1.058-0.184,2.877,0,3.931v2.075c-0.104,0.895-0.822,1.239-0.221,1.858v0.224
	c-0.236,0.034,0.023,0.473,0.109,0.542c0.186,0.295,0.055,0.895,0.436,0.986v0.105c0.047,0.646,0.047,1.336,0.215,1.854
	c0.121,0.151,0.117,0.408,0.223,0.553c0.195,0.287,0.234,1.152,0.549,0.979c-0.02,0.096,0.041,0.104,0.104,0.115v0.104
	c0.25,0.216,0.824,0.094,0.992-0.104c0.34,0.045,0.445-0.139,0.539-0.33H9.03c0.186-0.391,0.51-0.65,0.543-1.201
	c0.029-0.479,0.227-0.795,0.221-1.313c0.158-0.163,0.174-0.476,0.215-0.761c1.084-0.209,1.67,0.053,2.297-0.104
	c0.068,0.568-0.078,0.936-0.107,1.417c0.061,0.354-0.078,0.508-0.113,0.765c-0.238-0.021-0.047,0.388-0.107,0.545
	c-0.232,0.096-0.254,0.402-0.219,0.769c-0.09-0.021-0.1,0.041-0.111,0.104c-0.021,0.09-0.109,0.109-0.109,0.224
	c-0.248,0.33-0.383,0.78-0.549,1.2v0.105c-0.1,0.008-0.076,0.135-0.1,0.223c-0.32,0.158-0.424,0.524-0.66,0.765H10.12
	c-0.213,0.133-0.613,0.358-0.869,0.11c0.051-0.095,0.111-0.183,0.107-0.33c-0.359,0.095-0.756,0.558-1.203,0.22
	c-0.096-0.229-0.619,0.014-0.328,0.11c0.068-0.263,0.232,0.263,0.328,0.33c-0.09,0.017-0.111,0.104-0.219,0.104
	c-0.129,0.091-0.293,0.146-0.551,0.105H7.28c-0.053-0.097-0.098-0.192-0.221-0.213c-0.145-0.041-0.17-0.197-0.328-0.221
	c-0.273-0.342-0.568-0.665-0.873-0.982c-0.084-0.316-0.258-0.545-0.443-0.767c0-0.223-0.291-0.146-0.215-0.437
	c-0.057-0.69-0.104-0.775-0.322-1.201v-0.114c0.414-0.262-0.316-0.579,0-0.767c-0.303-0.327,0.076-0.646,0.102-0.979
	c-0.338-0.051-0.342,0.229-0.324,0.55C4.562,43.57,4.548,43.66,4.44,43.66c-0.145-0.36-0.135-0.883-0.33-1.201V42.35
	c-0.205-0.396,0.219-1.166-0.215-0.979v-0.11c-0.047-0.469-0.057-0.972-0.221-1.317v-0.211C3.714,39.209,3.478,38.976,3.562,38.415
	 M5.749,35.795c-0.047-0.248-0.195-0.393-0.434-0.437c-0.127,0.205-0.279,0.379-0.336,0.652C5.364,36.221,5.399,35.888,5.749,35.795
	 M5.2,36.995c0.248,0.304,0.227,0.869,0.215,1.42c0.248-0.012,0.051-0.465,0.113-0.654c0.006-0.063,0.02-0.127,0.109-0.104
	c-0.223-0.405,0.102-0.84-0.109-0.982C5.466,37.023,5.302,36.873,5.2,36.995 M10.009,47.379c0.355-0.158,0.486-0.531,0.656-0.873
	C10.251,46.598,10.079,46.932,10.009,47.379 M65.966,29.891c0.207-0.556,0.106-1.421,0.322-1.963
	c0.453-0.123,0.43,0.226,0.771,0.217c0.295,0.163,0.486,0.419,0.877,0.216v0.876v0.22c-0.172,0.271-0.17,0.713-0.221,1.094v0.219
	c-0.174,0.269-0.17,0.71-0.223,1.091v0.112c-0.186,0.215-0.121,0.677-0.219,0.98v0.113h-0.105c0.006,0.549-0.191,0.906-0.109,1.524
	v0.33c-0.252,0.156-0.045,0.761-0.111,1.091c0.146,0.48-0.065,0.672-0.106,1.205c-0.17,0.521-0.174,1.21-0.215,1.854v0.438
	c-0.187,0.553-0.187,1.861,0,2.412v0.214c-0.019,0.56,0.015,1.073,0.215,1.423v0.107c0.158,0.563,0.421,1.04,0.877,1.311h0.326
	c0.558-0.063,0.724-0.521,0.979-0.875V43.99h0.11c0.035-0.402,0.271-0.602,0.324-0.98V42.9c0.164-0.207,0.256-0.476,0.336-0.77
	h1.636h0.108c-0.006,0.26,0.187,0.325,0.108,0.655c-0.08,0.021-0.213,0-0.221,0.108v0.222c0,0.108-0.09,0.12-0.104,0.218
	c-0.207,0.335-0.102,0.665-0.219,0.872c-0.111,0-0.09,0.133-0.115,0.215c-0.23,0.753-0.637,1.339-1.094,1.859
	c-0.187-0.007-0.273,0.081-0.322,0.221c-0.346,0.168-0.66,0.365-1.096,0.438c-0.511,0.061-0.66-0.153-0.984,0
	c-0.334,0.082-0.207-0.297-0.545-0.225c-0.158-0.102-0.354-0.726-0.545-0.438c0.053,0.101,0.453,0.406,0.221,0.438H66.51
	c-0.162-0.122-0.268-0.313-0.545-0.318c0.023-0.097-0.047-0.104-0.113-0.115c-0.098-0.191-0.242-0.334-0.438-0.438
	c-0.299-0.352-0.738-0.146-0.873,0.224c-0.16,0.059-0.271,0.164-0.436,0.215c-0.373,0.346-0.576-0.152-0.982-0.107
	c0.039,0.374,0.336,0.182,0,0.438c-0.158-0.012-0.311-0.018-0.33,0.105h-0.326c-0.131-0.191-0.57-0.078-0.762-0.216h-0.223
	c-0.373-0.178-0.812-0.28-1.199-0.435c-0.646-0.719-1.395-1.482-1.092-2.84c-0.039-0.156-0.199-0.013-0.228,0.104
	c-0.024-0.407,0.188-1.04-0.104-1.747c0.121-0.127,0.121-0.393,0.104-0.658h0.113c0.022-0.332,0.233-0.488,0.319-0.765
	c0.056-0.207,0.24-0.274,0.224-0.553h0.112c0-0.286,0.34-0.229,0.324-0.544c0.164-0.458,0.435-0.802,0.656-1.202
	c0.668-0.385,0.961-1.15,1.748-1.423h0.111c0.205-0.116,0.512-0.134,0.762-0.216H64.1c0.152,0.174,0.537,0.117,0.654,0.33
	c0.166-0.092,0.162-0.35,0.217-0.549c-0.08-0.407,0.139-0.521,0.117-0.87v-0.112c0.162-0.309,0.188-0.756,0.213-1.202v-0.112h0.107
	c-0.08-0.445,0.172-0.556,0.115-0.977v-0.113c0.16-0.308,0.188-0.751,0.213-1.203V31.31h0.109c-0.076-0.521,0.168-0.707,0.11-1.204
	v-0.219h0.007v0.004H65.966z M67.169,29.891h0.104c-0.057-0.423,0.199-0.528,0.105-0.98c-0.523,0.087-0.486,0.744-0.648,1.201
	c0.246,1.567-0.828,3.129-0.658,4.265c-0.004-0.204,0.082-0.23,0.216-0.111C66.339,32.759,66.88,31.601,67.169,29.891
	 M65.966,34.479c-0.131,0.286-0.204,1.176-0.112,1.315C65.95,35.48,66.126,34.683,65.966,34.479 M63.124,38.636
	c-1.533,1.008-1.636,1.15-1.972,2.954c-0.315,0.045,0.103,0.821-0.219,0.869c0.103-0.412-0.182-0.695,0-0.869v-0.115
	c0.248-0.27,0.248-1,0.113-1.09c-0.316,0.463-0.229,0.754-0.438,1.205v0.651c0.091,0.267,0.091,0.63,0.438,0.659
	c0.029,0.213-0.154,0.213-0.215,0.328c0.223,0.021,0.021,0.479,0.316,0.436v0.107c-0.242,0.791,0.5,1.539,0.879,2.076
	c0.207-0.39-0.756-1.033-0.549-1.427c0.006,0.073,0.021,0.138,0.11,0.115H61.7c0.071,0.317,0.336,0.461,0.762,0.438
	c0.757,0.066,0.886-0.58,1.312-0.554c-0.051-0.555,0.492-0.526,0.436-1.087h0.109c0.348-0.787,1.332-4.47-0.545-4.701L63.124,38.636
	L63.124,38.636z M27.39,29.563c0.045-1.415-0.217-2.631,0.543-3.169c0.379-0.264,1.068-0.025,1.531,0.22v2.403v0.11
	c-0.248,0.052-0.039,0.539-0.109,0.765c-0.18,0.441-0.18,1.641,0,2.074c0.018,0.204-0.139,0.231-0.111,0.442
	c-0.123,0.022-0.057,0.108,0,0.108v0.979c-0.006,0.813,0.035,1.576,0.221,2.191v0.108c0.215,0.227-0.047,0.215-0.109,0.436
	c0.766-0.215,1.279-0.689,1.639-1.309v-0.109c0.662-0.102,0.746-0.789,1.09-1.201H32.2c-0.07,0.093-0.135,0.192,0,0.215
	c0.521-0.236,0.928-0.595,1.201-1.095c0.445-0.174,0.369-0.2,0.873-0.324c0.24-0.087,0.59-0.065,0.658-0.327
	c0.137-0.041,0.168-0.195,0.322-0.22c0.424,0.086,0.684,0.336,0.875,0.655c-0.047,0.523,0.559,0.391,0.549,0.875
	c-0.398,0.045-0.602,0.276-0.764,0.55c-0.326,0.143-0.453,0.487-0.66,0.765c-0.117,0.025-0.07,0.217-0.213,0.217
	c-0.25-0.064-0.158,0.209-0.332,0.219c-0.121,0.025-0.076,0.217-0.219,0.217c-0.141,0.035-0.164,0.188-0.332,0.221
	c0.229-0.227-0.041-0.221-0.213-0.33c0.066,0.828-0.771,0.756-0.881,1.418c-0.088-0.014-0.096,0.046-0.102,0.109
	c-0.414,0.354-1.613,0.955-1.094,1.531c-0.021,0.092,0.041,0.104,0.111,0.107c0.133,0.268,0.268,0.533,0.324,0.877
	c0.447,0.679,0.822,1.441,1.309,2.077c0.029,0.09,0.109,0.104,0.109,0.224c0.186,0.29,0.338,0.604,0.436,0.975
	c0.348,0.539,0.557,1.201,0.986,1.645c0.109,0.479,0.381,0.787,0.545,1.203c0.113,0.145,0.18,0.328,0.334,0.438
	c0.203,0.311,0.313,0.705,0.541,0.986c-0.02,0.091,0.045,0.102,0.113,0.104c0.01,0.357,0.309,0.416,0.221,0.873
	c-0.835-0.065-1.333,0.199-1.854,0.438c-1.168-0.086-1.201-2.207-2.078-2.946v-0.113c-0.205-0.523-0.381-1.071-0.764-1.418
	c-0.201-0.604-0.434-1.17-0.768-1.644v-0.108c-0.117-0.241-0.18-0.547-0.328-0.76c-0.109-0.517-0.305-0.939-0.652-1.205v-0.111
	c0.057-0.529-0.498-0.451-0.656-0.767c-0.26,0.31-0.426,0.723-0.115,1.097c0.098,0.3,0.359,0.789,0.115,1.093
	c-0.152,0.029-0.094,0.271-0.115,0.438c-0.158,1.002-0.094,2.234-0.104,3.387v0.88c-0.102-0.089-0.25-0.119-0.441-0.113
	c-0.029,0.253,0.314,0.121,0.33,0.328c-0.35,0.058-0.277,1.101-0.109,1.313c-0.02-0.123,0.027-0.197,0.109-0.22
	c0.121,0.347-0.168,0.269-0.221,0.438c0.07,0.262-0.133,0.791,0.111,0.875c0.094,0.35-0.281,0.227-0.326,0.436
	c0.182,0.028,0.281-0.186,0.326,0c-0.053,0.317-0.826-0.099-0.871,0.225h-0.551c0.053-0.246-0.59,0.252-0.652-0.11
	c-0.238-0.495-0.053-1.406-0.111-2.074c-0.074-0.335,0.139-0.944-0.105-1.092v-2.188c0.246-0.477,0.031-1.42,0.105-2.074v-0.66
	c0.389,0.063,0.33-0.321,0.326-0.652c-0.182-0.038-0.188,0.104-0.326,0.104V40.17c0.256-0.335,0.041-1.13,0.111-1.641v-0.984v-1.746
	c-0.07-0.949,0.145-2.184-0.111-2.948v-0.115c-0.053-0.343,0.297-0.284,0.326-0.545c-0.482,0.01-0.094-0.568,0-0.655
	C27.61,31.132,27.239,30.36,27.39,29.563 M28.806,36.561c-0.025,0.286,0.154,0.361,0.438,0.328
	c-0.119-0.344-0.047-0.288,0.111-0.549C29.083,36.329,29.017,36.509,28.806,36.561 M27.603,47.049
	c0.344,0.123,0.295-0.025,0.545,0.113c0.037-0.251-0.021-0.413-0.215-0.441c-0.021,0.09-0.004,0.217-0.107,0.223
	c-0.025-0.088-0.006-0.217-0.113-0.223C27.716,46.871,27.667,46.964,27.603,47.049 M22.251,35.468
	c-0.035,0.543-0.053,1.114-0.221,1.529v0.107c0.004,0.625-0.041,1.198-0.215,1.639v0.329c-0.059,0.383-0.053,0.83-0.221,1.095v0.221
	c-0.119,0.644-0.219,1.311-0.439,1.854c-0.047,0.794-0.609,1.063-0.873,1.641c-0.258,0.331-0.467,0.702-1.092,0.657h-0.764
	c-0.127-0.026-0.168-0.122-0.221-0.222c-0.146,0.396-0.775,0.029-0.217-0.104c-0.039-0.325-0.174-0.558-0.332-0.769
	c0.092-0.379-0.205-0.463,0-0.655c-0.338-0.103-0.107-0.767-0.322-0.989c-0.039-0.144-0.154-0.205-0.115-0.437
	c-0.23-0.087,0.041-0.691-0.215-0.761c0.014,0.271-0.057,0.453-0.215,0.545c-0.186-0.146-0.381-0.278-0.438-0.545
	c0.271-0.29,0.438,0.021,0.543,0.215v-0.32c0.08-0.549-0.186-0.766-0.105-1.314v-0.219c-0.133-0.02-0.125-0.174-0.113-0.326h-0.109
	h-0.326c0.025,0.266,0.445,0.4,0,0.545c0.291-0.283-0.254-0.115-0.111-0.545v-0.55h0.438V37.98c0.057-0.159-0.129-0.564,0.109-0.546
	v-0.221c0.066-0.354-0.076-0.503-0.109-0.765c-0.088-0.021-0.129-0.085-0.107-0.215c-0.369,0.272-0.166,0.691-0.33,0.979
	c-0.213-0.271,0.041-0.508,0-1.088c-0.289,0.209-0.607-0.391-1.309-0.113v0.545c0.256,0.514,0.035,1.496,0.107,2.188
	c0.248,0.156,0.043,0.759,0.107,1.094v0.766c-0.039,0.522,0.195,0.754,0.109,1.312v0.11c0.188,0.211,0.121,0.683,0.221,0.983v0.111
	c0.215,0.256,0.256,0.69,0.328,1.094v0.104c0.182,0.586,0.506,1.021,0.766,1.529c0.361,0.188,0.586,0.504,0.98,0.652
	c0.383,0.305,0.783-0.107,1.311,0c-0.164,0.164-0.477,0.182-0.762,0.225c0.438,0.213,1.514,0.125,1.971,0
	c0.455,0.131,0.471-0.177,0.76-0.225c0.025-0.08,0.006-0.217,0.111-0.217c0.041-0.139,0.139-0.227,0.324-0.221
	c0.104-0.191,0.207-0.377,0.551-0.324c-0.07,0.514,0.143,1.307-0.111,1.641v0.219c0.086,0.559-0.15,0.795-0.109,1.313h-0.109
	c0.072,0.51-0.168,0.695-0.221,1.09c-0.123,0.345-0.197,0.75-0.436,0.982c-0.039,0.36-0.322,0.476-0.543,0.653
	c-0.146,0.224-0.176,0.556-0.551,0.544h-0.104c-0.24,0.271-1.254,0.346-1.207,0h-0.109c-0.332,0.006-0.426-0.228-0.656-0.32V51.75
	h-0.11c-0.383-0.128-0.563-0.909-1.088-0.547c-0.227,0.079-0.43,0.346-0.658,0.104v-0.104c0.016-0.123,0.193-0.246,0-0.325
	c-0.16,0.021-0.184,0.179-0.328,0.22c-0.029,0.149-0.244,0.122-0.33,0.213c0.023,0.313,0.201,0.457,0.221,0.768
	c0.26,0.43,0.578,0.813,0.764,1.314c0.109,0.11,0.213,0.222,0.332,0.33c0.08,0.02,0.215,0,0.215,0.104
	c0.334,0.141,0.551,0.396,0.873,0.547c0.459-0.06,0.615,0.188,0.986,0.219h0.875c0.342-0.06,0.707-0.085,0.98-0.219h0.115
	c0.041-0.144,0.137-0.229,0.322-0.222c0.283-0.375,0.609-0.699,0.986-0.98c0.109-0.146,0.293-0.218,0.324-0.438
	c0.012-0.065,0.02-0.127,0.111-0.104c0.037-0.325,0.178-0.558,0.33-0.767c-0.008-0.114,0.088-0.131,0.104-0.223
	c0.098-0.121,0.148-0.293,0.111-0.543c0.057-0.389,0.166-0.719,0.107-1.203c-0.551,0.49,0.006-0.656,0-0.98
	c0.141-0.95,0.314-1.963,0.436-2.626c0.258,0.333,0.111,0.09,0.332-0.108V46.07v-0.432c-0.068,0-0.131,0.012-0.109,0.104
	c-0.107,0-0.129-0.091-0.223-0.104v-0.33c0.156-0.007,0.244,0.047,0.332,0.106c0.063-0.159-0.131-0.563,0.107-0.544
	c0.076-0.88-0.141-2.04,0.111-2.737v-0.22c0.074-0.689-0.023-1.552,0.439-1.851V39.51c0.209-0.591,0.064-1.534,0.105-2.296
	c-0.297-0.276,0.076-1.237-0.221-1.528c0.227-0.29-0.117-0.396-0.104-0.541h-0.549c-0.258,0.381-0.725-0.021-1.201,0.216v0.108
	L22.251,35.468L22.251,35.468z M49.134,33.938c-0.202,0.047-0.657-0.15-0.547,0.215c-0.369,0.072,0.091,0.572-0.328,0.326
	c0.113,0.549,0.259,1.058,0.22,1.748c0,0.15-0.188,0.105-0.22,0.22c0.044,0.188,0.138-0.022,0.328,0
	c0.119,0.411-0.409,0.173-0.328,0.552h-0.106c-0.449,0.231,0.275,0.521-0.326,0.766v0.218c0.178,0.216-0.014,0.14,0,0.437
	c0.146,0.329,0.027,0.381,0.109,0.873c-0.25,2.23-0.041,4.917-0.109,7.321c0.031,0.543,1.201-0.048,1.418,0.329h0.223
	c0.234-0.529,0.053-1.479,0.111-2.19c-0.02-1.426-0.014-2.846,0.213-4.043v-0.216v-0.105c0.01-0.356,0.061-0.676,0.225-0.88
	c0.025-0.081,0-0.21,0.102-0.216c0.021-0.386,0.318-0.486,0.334-0.873c0.352-0.986,1.931-0.654,1.97,0.436v0.109
	c0.17,0.225,0.229,0.576,0.226,0.979v0.115c0.237,0.045,0.039,0.541,0.102,0.763c0.25,0.187,0.037,0.836,0.109,1.203
	c-0.062,0.678,0.084,1.154,0.225,1.641v0.107c0.219,0.219,0.366,0.504,0.32,0.979c0.065,0.014,0.133,0.021,0.111,0.116
	c0.271,0.341,0.364,0.866,0.655,1.198c0.336-0.01,0.312,0.342,0.763,0.217c0.553-0.071,0.799,0.223,1.202,0
	c0.115,0,0.134-0.09,0.22-0.107c0.059-0.15,0.176-0.266,0.33-0.326c0.168-0.453,0.33-0.904,0.547-1.311
	c-0.006-0.148,0.055-0.24,0.106-0.33c0.006-0.064,0.019-0.128,0.108-0.105v-0.33c-0.016-0.271-0.016-0.524,0.113-0.651v-0.438
	c0.156-0.865-0.736-0.447-1.207-0.439c-0.313,0.232-0.18,0.913-0.438,1.207h-0.548c-0.112-0.258-0.372-0.354-0.323-0.768
	c-0.162-0.531-0.158-1.238-0.226-1.86v-0.22c-0.166-0.413-0.184-0.984-0.217-1.53v-0.106c-0.16-0.309-0.193-0.756-0.221-1.199
	c-0.084-0.467-0.25-0.841-0.215-1.427c-0.139-0.521-0.439-0.864-0.547-1.419c-0.084-0.019-0.129-0.092-0.109-0.215
	c-0.16-0.02-0.408,0.035-0.436-0.112c-1.113-0.417-2.125,0.204-2.627,0.767c-0.144,0.477-0.547,0.695-0.656,1.199
	c-0.18-0.116-0.18-0.974,0-1.094v-0.105c-0.074-0.475,0.188-0.619,0.109-1.096h0.11v-0.109
	C50.077,33.723,49.411,34.026,49.134,33.938 M41.702,33.612h0.221c-0.082,0.091-0.12,0.244-0.108,0.436
	c0.348,0.051,0.248-0.332,0.66-0.221h0.543c-0.021,0.458,0.055,0.266,0.217,0.114c0.01,0.339,0.248,0.135,0.436,0.106h0.438
	c-0.066,0.098-0.133,0.195,0,0.215c0.348,0.492,0.666,1.013,1.094,1.423c0.189,0.211,0.189,0.612,0.32,0.875
	c0.102,0.123,0.149,0.291,0.121,0.544c0.162,0.523,0.221,1.162,0.438,1.637v0.329c0.07,0.557-0.121,0.832-0.334,1.097h-0.225h-0.76
	h-0.328c-0.015-0.182-0.748-0.182-0.767,0h-0.435c-1.172-0.01-2.342-0.016-3.278,0.218H39.73c-0.301-0.09-0.276,0.152-0.543,0.112
	c-0.047-0.134-0.135-0.229-0.33-0.224v0.436h0.224c0.062,0.245-0.211,0.163-0.224,0.33c0.308,0.186,0.517,0.883,0.438,1.095
	c-0.281,0.187,0.156,0.565,0,0.979c0.182-0.025,0.188,0.104,0.328,0.111c0.082,0.647,0.445,0.522,0.768,0.766
	c0.115,0.1,0.031,0.404,0.324,0.326c0.215,0.35,0.518,0.365,0.768,0.438h0.22v0.111c0.383,0.051,0.713,0.168,1.205,0.109
	c0.354-0.16,0.272-0.246,0.221-0.658c0.269,0.031,0.603-0.65,0.215-0.326c0.136-0.451,0.492-0.67,0.548-1.204
	c0.182-0.146,0.17-0.479,0.323-0.652h0.334c0.029,0.149,0.272,0.095,0.437,0.107v0.114c0.389,0.008,0.943-0.156,0.762,0.431
	c0.063,0.468-0.072,0.723-0.104,1.094c0.008,0.669-0.347,0.976-0.558,1.425h-0.103c0.047,0.229-0.078,0.286-0.11,0.438
	c-0.026,0.116-0.218,0.067-0.218,0.213c-0.303,0.213-0.553,0.471-0.766,0.769c-0.307-0.072-0.225,0.223-0.438,0.223
	c-0.14,0.263-0.863-0.062-0.979,0.221h-0.222c-0.256-0.119-0.66-0.07-0.875-0.221c-0.254-0.084-0.563-0.094-0.767-0.223
	c-0.403-0.063-0.645-0.302-0.985-0.438c-0.063-0.256,0.944,0.021,0.543-0.216c-0.405,0.009-0.688-0.114-0.979-0.221H39.08
	c-0.611-0.521-0.92-1.342-1.313-2.076c0.018-0.271-0.058-0.453-0.215-0.549c-0.111-0.619-0.279-1.184-0.441-1.75v-0.213v-0.877
	c-0.066-0.329,0.145-0.936-0.107-1.093V39.07c-0.035-0.249,0.014-0.415,0.107-0.544c0.238-0.014,0.047-0.463,0.109-0.654
	c0.141-0.13,0.174-0.043,0.332,0c0.024-0.453-0.146-0.43,0-0.768V37c0.528-1.001,1.077-1.977,1.963-2.625
	c0.276-0.052,0.504-0.154,0.649-0.328h0.11c0.359-0.076,0.57-0.304,0.875-0.436L41.702,33.612L41.702,33.612z M43.452,37.541
	c-0.076-1.489-0.998-2.317-1.854-2.183c0.172-0.207,0.377,0.106,0.438-0.328c-0.806-0.086-1.548,0.4-2.188,1.417
	c-0.068,0.011-0.134,0.021-0.115,0.113c-0.32,0.507-0.748,1.503-0.648,2.075c0.209-0.481,0.594,0.313,0.873,0.435
	c-0.143-0.569,0.738-0.133,0.875-0.435h0.109h0.981c0.332-0.068,0.938,0.144,1.095-0.109c0.088-0.025,0.211-0.005,0.217-0.111h0.108
	c0.492,0.081,0.226-0.543,0.109-0.76V37.541z"/>
</svg>
