<?xml version="1.0" encoding="utf-8"?>
<!-- Generator: Adobe Illustrator 16.0.0, SVG Export Plug-In . SVG Version: 6.00 Build 0)  -->
<!DOCTYPE svg PUBLIC "-//W3C//DTD SVG 1.1//EN" "http://www.w3.org/Graphics/SVG/1.1/DTD/svg11.dtd">
<svg version="1.1" id="Layer_1" xmlns="http://www.w3.org/2000/svg" xmlns:xlink="http://www.w3.org/1999/xlink" x="0px" y="0px"
	 width="195px" height="80px" viewBox="0 0 195 80" enable-background="new 0 0 195 80" xml:space="preserve">
<g>
	<g>
		<path d="M86.042,48.076c-2.951,0-3.26-3.749-3.26-5.934c0-2.063,0.498-6.06,3.288-6.06c1.951,0,2.884,1.69,3.227,3.337h0.526
			v-4.24h-0.434l-0.716,1.359c-0.712-0.66-1.518-1.112-2.571-1.112c-3.567,0-5.245,3.543-5.245,6.716
			c0,3.131,1.458,6.799,5.117,6.799c2.608,0,3.911-2.186,4.158-4.489h-1.056C88.767,46.18,88.146,48.076,86.042,48.076z
			 M66.032,48.076c-3.285,0-3.751-3.79-3.72-6.346h8.248c0-3.09-1.238-6.306-4.836-6.306c-3.725,0-5.118,3.75-5.118,6.923
			c0,3.215,1.455,6.594,5.118,6.594c2.761,0,4.619-1.771,4.868-4.533h-1.086C69.349,46.305,68.111,48.076,66.032,48.076z
			 M65.663,36.127c2.509,0,3.098,2.637,3.226,4.656h-6.515C62.622,38.888,63.303,36.127,65.663,36.127z M78.657,35.427
			c-1.553,0-2.76,1.071-3.196,2.513c0-0.906-0.091-1.813-0.187-2.677c-1.083,0.288-2.199,0.576-3.315,0.617v0.413
			c1.116,0.041,1.924,0,1.924,1.277v9.724c0,0.906-1.273,0.947-1.924,0.989v0.412c0.931-0.041,1.857-0.125,2.789-0.125
			c0.931,0,1.86,0.084,2.794,0.125v-0.412c-1.057-0.083-1.955-0.206-1.955-1.442v-5.481c0-1.563,0.249-4.694,2.357-4.859
			c0.371-0.041,0.933,0.165,0.961,0.618c0,0.247-0.124,0.453-0.124,0.701c0,0.535,0.495,0.906,0.992,0.946
			c0.747,0,1.084-0.659,1.084-1.319C80.857,36.292,79.802,35.427,78.657,35.427z M56.73,46.428l-0.313-13.802
			c-0.027-1.442,0.964-1.69,2.232-1.73V30.36c-0.741,0-1.487,0.041-2.232,0.041c-0.495,0-0.992-0.041-1.459-0.041l-0.589-0.082
			l-5.241,14.544l-5.149-14.544c-0.651,0.082-1.303,0.123-1.982,0.123c-0.773,0-1.52-0.041-2.295-0.041v0.536
			c1.269,0.041,2.325,0.247,2.233,1.73L41.25,46.428c-0.062,1.401-0.958,1.689-2.231,1.771v0.494
			c0.897-0.041,1.767-0.123,2.665-0.123c0.902,0,1.802,0.082,2.699,0.123v-0.494c-1.271-0.082-2.296-0.37-2.233-1.771l0.65-14.586
			l5.711,16.275h0.337l5.836-16.275l0.213,14.586c0.033,1.401-0.927,1.689-2.232,1.771v0.494l1.116-0.082
			c0.683-0.041,1.369-0.084,2.049-0.084c0.682,0,1.333,0.043,2.017,0.084l1.146,0.082v-0.494
			C57.657,48.117,56.791,47.829,56.73,46.428z M122.203,48.076c-3.286,0-3.753-3.79-3.721-6.346h8.248
			c0-3.09-1.24-6.306-4.836-6.306c-3.724,0-5.149,3.75-5.149,6.923c0,3.174,1.521,6.594,5.149,6.594
			c2.762,0,4.623-1.771,4.869-4.533h-1.084C125.462,46.305,124.313,48.076,122.203,48.076z M118.577,40.536
			c0.248-1.854,1.021-4.409,3.284-4.409c2.514,0,3.013,2.637,3.197,4.656h-6.516L118.577,40.536z M180.486,46.882v-6.717
			c0-2.43-1.211-4.655-3.973-4.655c-1.549,0-2.729,0.823-3.568,2.101v-0.329c-0.026-0.742-0.092-1.402-0.184-2.102
			c-1.058,0.413-2.174,0.659-3.287,0.825v0.412c1.088,0,1.924-0.041,1.924,1.194v9.271c0,1.235-0.901,1.317-1.986,1.4v0.452
			c0.96-0.082,1.893-0.164,2.82-0.164c0.935,0,1.863,0.082,2.824,0.164v-0.452c-1.059-0.083-1.986-0.206-1.986-1.4V40.33
			c0-1.937,0.994-3.667,3.197-3.667c2.107,0,2.51,1.854,2.51,3.585v7.045c0,0.947-1.303,0.947-1.982,0.989v0.452
			c0.93-0.082,1.859-0.164,2.823-0.164c0.96,0,1.891,0.082,2.853,0.164v-0.452C181.385,48.199,180.486,48.117,180.486,46.882z
			 M163.645,48.076c-3.26,0-3.756-3.79-3.727-6.305h8.281c0-3.131-1.268-6.347-4.865-6.347c-3.691,0-5.121,3.75-5.121,6.923
			c0,3.297,1.521,6.387,5.121,6.594c2.756,0.123,4.65-1.854,4.898-4.533h-1.086C166.835,46.305,165.814,48.076,163.645,48.076z
			 M160.014,40.536c0.248-1.813,1.055-4.409,3.287-4.409c2.451,0,3.165,2.637,3.193,4.656h-6.514L160.014,40.536z M152.613,38.929
			c1.99-0.864,2.904-2.183,2.904-4.12c0-2.802-1.877-4.409-5.203-4.409h-6.885v0.535c1.842,0.083,2.24,0.413,2.24,1.772v13.598
			c0,1.4-0.402,1.688-2.24,1.813v0.534h6.688c3.981,0,6.282-1.938,6.282-5.23C156.406,41.07,154.956,39.341,152.613,38.929z
			 M147.482,31.142h2.563c2.418,0,3.496,1.154,3.496,3.75c0,2.636-1.232,3.832-4.021,3.832h-2.037V31.142z M150.355,47.87h-1.01
			c-1.574,0-1.863-0.247-1.863-1.524v-6.881h2.859c2.768,0,4.082,1.318,4.082,4.079C154.426,46.223,152.895,47.87,150.355,47.87z
			 M189.757,48.034h-3.688l7.722-12.318h-8.81l-0.59,3.378h0.467c0.586-1.566,1.211-2.719,3.039-2.719h3.535l-7.688,12.277h9.146
			l0.654-3.709h-0.438C192.488,46.675,191.742,48.034,189.757,48.034z M113.393,45.975V30.153c-1.082,0.329-2.17,0.453-3.287,0.576
			l-0.338,0.083v0.371c1.18,0,1.922,0.165,1.922,1.442v5.314c-0.773-1.401-1.733-2.43-3.412-2.43c-3.438,0-4.772,3.749-4.772,6.634
			c0,2.883,1.304,6.715,4.772,6.715c1.613,0,2.854-0.944,3.508-2.389c0.027,0.823,0.15,1.606,0.311,2.389
			c1.09-0.33,2.145-0.451,3.26-0.615v-0.37C113.893,47.87,113.393,47.417,113.393,45.975z M108.497,48.117
			c-2.917,0-3.166-3.997-3.166-6.057c0-2.021,0.28-5.813,3.069-5.813c2.918,0,3.289,3.791,3.289,5.977
			C111.689,44.368,111.441,48.117,108.497,48.117z M97.42,48.076c-3.352,0-3.688-3.79-3.753-6.346h8.253
			c0.027-3.09-1.24-6.306-4.81-6.306c-3.72,0-5.117,3.75-5.117,6.923c0,3.174,1.459,6.594,5.117,6.594
			c2.856,0,4.468-1.771,4.871-4.533h-1.086C100.618,46.305,99.563,48.076,97.42,48.076z M97.051,36.127
			c2.387,0,3.006,2.349,3.191,4.285v0.371h-6.481C93.857,38.888,94.784,36.127,97.051,36.127z M134.333,41.689l-1.24-0.496
			c-1.116-0.41-2.916-1.028-2.916-2.511c0-1.484,1.179-2.513,2.665-2.513c1.926,0,2.698,1.565,2.889,3.253h0.528v-4.161h-0.438
			l-0.373,1.029c-0.807-0.494-1.7-0.782-2.668-0.782c-2.073,0-4.002,1.359-4.002,3.543c0,4.368,6.951,3.092,6.951,6.387
			c0,1.606-1.428,2.681-2.949,2.681c-2.262,0-3.256-1.688-3.721-3.667l-0.561,0.041l0.031,4.447h0.466l0.62-1.15
			c0.902,0.738,2.08,1.068,3.226,1.068c2.203,0,4.313-1.439,4.313-3.832C137.154,43.214,135.917,42.309,134.333,41.689z
			 M138.333,41.607h4.961v-0.866h-4.961V41.607z M25.072,29.048h-0.05l0.02,0.051c0.713,0.665,1.39,1.38,2.001,2.146
			c1.905,2.385,2.897,5.4,2.897,8.449c0,2.402-0.643,4.719-1.79,6.814l0.157,0.289l-0.328,0.018
			c-2.509,4.189-7.118,6.83-12.011,6.83c-4.899,0-9.483-2.623-11.994-6.83l-0.309-0.018c2.469,4.635,7.071,7.359,12.309,7.359
			c7.953,0,14.438-6.524,14.438-14.463C30.412,35.624,28.314,31.518,25.072,29.048z M2.262,42.232l-0.028-0.034l-0.02,0.052
			c0.194,1.584,0.695,3.134,1.451,4.548l0.128-0.289C3.062,45.163,2.558,43.73,2.262,42.232z M3.896,46.661h0.116l11.738-6.608
			l-0.023,2.367l0.226-0.085l11.695,4.378L16.21,42.421l-0.029-2.368l11.771,6.608h0.103l-0.049-0.084l-10.331-7.598l0.76-0.438
			l-0.192-0.158L18.2,38.128l-2.026,1.191l-0.146-13.491l-0.06-0.067l-0.054,0.067l-1.429,12.725l-0.762-0.426l-0.042,0.255
			l-0.189,0.156l0.771,0.441L3.938,46.561L3.896,46.661z M17.076,39.319l8.769,5.895l0.031,0.052h-0.055l-9.412-5.571L17.076,39.319
			z M15.829,29.133l0.025-0.035l0.024,0.035l-0.116,10.186l-0.543-0.323L15.829,29.133z M12.624,41.381l2.408-1.976l0.512,0.29
			l-2.89,1.704l-0.049,0.02L12.624,41.381z M15.968,24.942c-8.11,0-14.757,6.644-14.757,14.752c0,4.275,1.898,8.313,5.092,11.141
			h0.042l-0.012-0.051c-2.934-2.947-4.621-6.898-4.621-11.09c0-7.853,6.405-14.257,14.256-14.257
			c6.877,0,12.736,4.974,14.456,11.498l0.036,0.017l0.018-0.034C29.106,30.019,23.05,24.942,15.968,24.942z"/>
	</g>
</g>
</svg>
