<?xml version="1.0" encoding="utf-8"?>
<!-- Generator: Adobe Illustrator 16.0.0, SVG Export Plug-In . SVG Version: 6.00 Build 0)  -->
<!DOCTYPE svg PUBLIC "-//W3C//DTD SVG 1.1//EN" "http://www.w3.org/Graphics/SVG/1.1/DTD/svg11.dtd">
<svg version="1.1" id="Layer_1" xmlns="http://www.w3.org/2000/svg" xmlns:xlink="http://www.w3.org/1999/xlink" x="0px" y="0px"
	 width="95px" height="80px" viewBox="0 0 95 80" enable-background="new 0 0 95 80" xml:space="preserve">
<path d="M24.008,35.702c2.318,0,4.209,1.867,4.209,4.156c0,2.289-1.891,4.156-4.209,4.156c-2.318,0-4.209-1.867-4.209-4.156
	C19.799,37.569,21.69,35.702,24.008,35.702z M31.023,40.995l0.466,1.292l1.709-2.244L31.023,40.995z M29.482,38.613
	c-1.131,0.834-0.709,2.516,0.762,2.075L29.482,38.613z M39.571,36.946c0.246,0.858,1.755,1.506,2.038,0.159
	c-1.119,0.434-1.455-0.832-0.477-0.609c4.162,0.945,2.699,6.387-0.105,6.354C37.773,42.811,37.54,37.842,39.571,36.946z
	 M55.012,38.944c0.528-0.025,0.996,0.069,1.438,0.219l-0.616-2.514L55.012,38.944z M78.303,38.944
	c0.528-0.025,0.995,0.069,1.436,0.219l-0.613-2.514L78.303,38.944z M47.147,47.318c-2.69,0.043-5.38,0.087-8.07,0.131
	c-1.896,0.08-2.493,1.313-2.964,2.966c-0.386,1.345-2.76,1.661-4.714,0.043c-0.991-0.819-1.764-0.717-2.474,0.489
	c-0.752,1.277-2.312,0.27-2.202-0.124c0.033-0.115,0.494-0.234,0.717-0.274c0.479,0.607,0.719,0.924,1.191-0.134
	c0.764-0.916,1.56-1.756,3.438-0.271c1.132,0.325,1.155-0.05,0.673-0.742c-0.643-0.461-0.777-1.135-0.404-2.021
	c-6.515,0.296-13.03,0.292-19.544,1.686c-2.553,0.992-4.999,2.304-7.211,4.313c-1.225,1.158-4.137,1.357-4.431-1.191
	c-0.281-0.896-0.81-1.537,0.717-4.153c2.12-3.634-0.13-2.109,0.076-3.752c0.098-0.778,0.893-0.759,0.605,0.067
	c-0.208,0.543,0.896,0.088,1.618,0.402c0.631,0.278,1.289,0.883,0.135,2.292c-0.475,0.581-0.269,0.792,0.741,0.741
	c1.152-0.337,3.193-7.033,0.473-13.411c-0.995-1.303-1.67-2.511-1.728-3.813c-0.459,0.976-0.865,1.845,0.379,2.735
	c0.158,0.562-0.514,0.55,0.377,1.685c0.027,0.373-0.258,0.986-0.469,0.943c-0.604-0.121-0.967,0.019-0.9,0.124
	c0.36,0.5-0.121,0.729-0.264,0.531c-0.119-0.164-0.442-0.653,0.264-1.041c0.997,0.438,1.311-0.351,0.858-1.029
	c-0.313-0.989-2.764-2.3-3.504-4.516c-0.679-2.031,1.39-4.891,4.449-3.977c4.358,1.708,8.717,3.415,13.074,5.122
	c5.691,1.305,12.05,1.443,18.467,1.482c1.369,0.091,1.258-0.897,0.066-0.942c-1.09-0.104-2.373-0.063-2.696-0.741
	c-0.292,0-0.583,0-0.875,0c-0.729,0.078-1.601,0.35-1.752-0.338c-0.946-0.608-1.259-0.428-1.483-0.135
	c1.045-0.036,2.283,0.072,2.561-0.539c0.763-0.651,1.529-0.494,2.292,0.472c1.056,0.686,2.56,0.865,5.054-0.067
	c1.63-0.109,2.482,0.491,1.955,2.358c1.954,0.045,3.908,0.091,5.861,0.136c1.957-0.045,3.91-0.091,5.865-0.136
	c-0.528-1.867,0.325-2.468,1.954-2.358c2.494,0.933,3.998,0.753,5.055,0.067c0.764-0.966,1.527-1.123,2.291-0.472
	c0.279,0.611,1.518,0.503,2.563,0.539c-0.225-0.293-0.537-0.474-1.481,0.135c-0.151,0.688-1.022,0.416-1.752,0.338
	c-0.293,0-0.585,0-0.877,0c-0.323,0.677-1.604,0.637-2.695,0.741c-1.188,0.045-1.303,1.033,0.067,0.942
	c6.415-0.039,12.771-0.178,18.466-1.482c4.356-1.707,8.716-3.414,13.074-5.122c3.059-0.914,5.127,1.945,4.446,3.977
	c-0.74,2.216-3.188,3.526-3.504,4.516c-0.453,0.679-0.14,1.467,0.857,1.029c0.707,0.388,0.383,0.877,0.264,1.041
	c-0.142,0.198-0.623-0.031-0.264-0.531c0.068-0.105-0.296-0.245-0.898-0.124c-0.213,0.043-0.496-0.57-0.471-0.943
	c0.891-1.135,0.219-1.123,0.376-1.685c1.246-0.891,0.841-1.76,0.38-2.735c-0.059,1.303-0.732,2.511-1.728,3.813
	c-2.722,6.378-0.681,13.074,0.472,13.411c1.012,0.051,1.219-0.16,0.741-0.741c-1.153-1.409-0.495-2.014,0.135-2.292
	c0.722-0.314,1.825,0.141,1.618-0.402c-0.287-0.826,0.509-0.848,0.605-0.067c0.205,1.643-2.045,0.118,0.074,3.752
	c1.527,2.616,1,3.26,0.717,4.153c-0.293,2.552-3.205,2.352-4.432,1.191c-2.213-2.011-4.658-3.32-7.211-4.313
	c-6.516-1.394-13.027-1.39-19.545-1.686c0.375,0.889,0.241,1.561-0.402,2.021c-0.481,0.693-0.459,1.068,0.674,0.742
	c1.877-1.485,2.674-0.646,3.438,0.271c0.473,1.058,0.712,0.741,1.189,0.134c0.225,0.04,0.687,0.159,0.719,0.274
	c0.111,0.394-1.45,1.401-2.202,0.124c-0.711-1.206-1.481-1.312-2.474-0.489c-1.955,1.618-4.328,1.302-4.713-0.043
	c-0.475-1.651-1.069-2.886-2.967-2.966c-2.689-0.044-5.381-0.088-8.071-0.131H47.147z M47.5,33.436
	c-8.514-0.294-17.027-0.587-25.542-0.88c-5.324-0.922-10.393-1.365-15.717-2.286c-1.127-0.213-1.404,0.073-0.323,1.813
	c0.939,1.199,1.162,2.602,1.483,3.977c0.564,3.72,0.631,7.418-0.673,11.053c-0.891,1.07-1.952,2.24-0.067,1.752
	c3.324-0.428,6.65-0.854,9.973-1.28c6.359-0.247,12.716-0.494,19.072-0.742c3.888-0.044,7.773-0.089,11.66-0.134
	c0,0.002,0,0.004,0,0.006h0.27c0-0.002,0-0.004,0-0.006c3.885,0.045,7.773,0.09,11.66,0.134c6.356,0.248,12.716,0.495,19.072,0.742
	c3.325,0.427,6.649,0.854,9.975,1.28c1.884,0.488,0.821-0.682-0.067-1.752c-1.305-3.635-1.236-7.333-0.674-11.053
	c0.32-1.375,0.545-2.777,1.482-3.977c1.082-1.74,0.805-2.026-0.322-1.813c-5.324,0.921-10.394,1.364-15.718,2.286
	C64.529,32.849,56.016,33.142,47.5,33.436z M75.216,44.023c-0.187,0.301-0.106,0.379,0.237,0.236
	c0.947-0.34,1.662-0.293,2.344-0.188c0.367,0.121,0.293-0.221-0.023-0.332c-0.266-0.03-0.498-0.126-0.496-0.688
	c0.037-0.222,0.078-0.442,0.117-0.663c1.102-0.115,1.713-0.535,2.106-1.093c-0.671,0.284-1.342,0.522-2.013,0.451
	c0.236-0.79,0.474-1.581,0.711-2.371c0.584-0.174,1.168-0.038,1.752,0.142c1.715,5.541,3.775,6.157,5.848,6.617
	c-3.628-3.787-4.387-7.031-4.734-10.197c0.235-0.017,0.475-0.031,0.709-0.048c0-0.087,0-0.174,0-0.261
	c-1.436-0.031-2.871-0.063-4.309-0.095c-0.416-0.021-0.479,0.089-0.188,0.332c0.465-0.175,0.621,0.349,0.73,0.972
	c-0.212,0.774-0.425,1.55-0.639,2.324c-0.489,0.188-0.926,0.442-0.973,1.162c-0.51,0.79-0.445,1.359,0.189,1.707
	C76.279,43.094,75.789,43.67,75.216,44.023z M65.18,43.96c-0.425,0.026-0.529-0.053-0.318-0.237c0.144-0.035,0.283-0.07,0.426-0.104
	c0.252,0.252,0.822-2.085,0.715-2.567c-0.064-0.281,0-3.07,0-3.07c0.053-1.421-0.38-1.968-1.033-2.118
	c-0.423-0.026-0.492-0.123-0.212-0.291c1.786-0.768,3.384-0.042,4.362,1.254c0.624,0.826,1.027,3.199,1.462,4.252
	c-0.308-1.616-0.24-3.262,0.37-4.949c0-0.15-0.07-0.3-0.213-0.45c1.096-0.063,2.189-0.124,3.281-0.186
	c-3.014,1.711-1.365,6.455-0.951,7.198c0.586,1.062,1.615,1.701,2.727,2.25c-4.029-0.16-4.979-1.274-5.955-2.383
	c-1.197-1.356-1.677-3.617-2.171-3.917c-0.024,1.094-0.056,2.188-0.079,3.281c0.074,0.853,0.35,1.55,1.061,1.906
	C67.49,43.872,66.334,43.916,65.18,43.96z M61.324,35.665c0.839-0.012,1.678-0.022,2.516-0.033c0.021,0.088,0.044,0.176,0.066,0.265
	c-0.342,0.121-0.553,0.463-0.629,1.026c0,2.119,0,4.14,0,6.259c0.439,0.297,0.883,0.814,1.324,1.288
	c0.143,0.421,0.064,0.53-0.231,0.331c-0.845-0.927-2.081-1.537-2.946-0.729c-0.221-0.076-0.221-0.198,0-0.363
	c0.36-0.311,0.6-0.938,0.695-1.953c0-1.722,0-3.443,0-5.164C61.941,36.282,61.678,35.974,61.324,35.665z M51.925,44.023
	c-0.187,0.301-0.106,0.379,0.237,0.236c0.945-0.34,1.66-0.293,2.344-0.188c0.366,0.121,0.293-0.221-0.023-0.332
	c-0.266-0.03-0.498-0.126-0.496-0.688c0.039-0.222,0.078-0.442,0.117-0.663c1.102-0.115,1.713-0.535,2.106-1.093
	c-0.671,0.284-1.342,0.522-2.012,0.451c0.235-0.79,0.473-1.581,0.71-2.371c0.584-0.174,1.167-0.038,1.752,0.142
	c1.715,5.541,3.775,6.157,5.847,6.617c-3.628-3.787-4.386-7.031-4.733-10.197c0.235-0.017,0.475-0.031,0.711-0.048
	c0-0.087,0-0.174,0-0.261c-1.438-0.031-2.875-0.063-4.311-0.095c-0.416-0.021-0.479,0.089-0.188,0.332
	c0.466-0.175,0.621,0.349,0.731,0.972c-0.213,0.774-0.427,1.55-0.64,2.324c-0.49,0.188-0.926,0.442-0.973,1.162
	c-0.51,0.79-0.445,1.359,0.189,1.707C52.988,43.094,52.498,43.67,51.925,44.023z M49.559,37.526
	c0.062-0.276-0.263-0.224-0.355-0.034c-0.278,0.902,0.381,2.011,2.298,1.078c0.701-0.341,0.839-1.677-0.521-2.68
	c-0.189-0.458-0.537-0.553-1.041-0.19c-2.196-0.354-4.208,1.13-4.545,3.131c-0.147,0.862-0.925,4.435,3.267,5.241
	c2.437,0.469,4.243-1.719,3.03-3.628c-0.293-0.246-0.293-0.594-0.145-0.901c-0.087,0-0.173,0-0.26,0
	c-0.855,0.221-1.496,0.616-2.036,1.091c-0.058,0.214,0.017,0.237,0.213,0.07c1.42-0.576,2.267,0.032,1.849,1.637
	c-0.897,1.358-3.015,1.765-4.167-0.521c-0.402-1.104-0.411-2.067,0.45-2.729c-0.731-0.976-0.478-2.319,0.829-2.87
	c2.719-1.145,3.527,2.131,1.775,2.266C49.637,38.499,49.143,38.104,49.559,37.526z M40.921,35.702c2.317,0,4.208,1.867,4.208,4.156
	c0,2.289-1.891,4.156-4.208,4.156c-2.319,0-4.21-1.867-4.21-4.156C36.711,37.569,38.602,35.702,40.921,35.702z M27.635,36.337
	c-0.189-0.175-0.033-0.322,0.185-0.199c0.203,0.15,0.334,0.248,0.609,0.358c0.132,0,0.186,0.006,0.318,0.006
	c0.25-0.1,1.029-0.391,1.289-0.284c0.224,0.091,0.076,0.283-0.072,0.252c-0.319-0.067-0.407,0.018-0.334,0.334
	c0.159,0.335,0.271,0.86,0.429,1.195c0.377-0.007,0.713,0.076,1.006,0.154c-0.071,0.114-0.188,0.055-0.259,0.17
	c-0.211,0-0.455-0.017-0.667,0.031c0.238,0.768,0.54,1.582,0.778,2.35c0.556-0.167,1.694-0.07,3.891-2.858
	c0.239-0.388,0.521-0.814,0.759-1.203c-0.138-0.278-0.524-0.309-0.627-0.257c-0.057,0.027-0.012-0.109,0.004-0.134
	c0.399-0.126,0.563,0.12,0.74,0.217c0.193-0.238,0.227-0.29,0.421-0.528c0.128-0.238,0.008-0.344-0.262-0.318
	c-0.23-0.018-0.259-0.267,0.015-0.289c0.847-0.044,1.693-0.063,2.54-0.107c0.381,0.002,0.428,0.31,0.089,0.291
	c-0.205,0.03-0.39,0.103-0.528,0.265c-1.731,2.421-3.797,4.677-5.003,7.357c-0.086,0.191,0.036,0.332,0.212,0.37
	c0.066,0.109,0.049,0.197-0.053,0.267c-0.794-0.045-1.588-0.09-2.382-0.133c0.053-0.895-0.129-1.78-0.413-2.588
	c-1.995-0.099-2.729-1.404-1.069-2.854C28.806,37.346,28.331,36.514,27.635,36.337z M22.658,36.946
	c0.246,0.858,1.755,1.506,2.039,0.159c-1.12,0.434-1.455-0.832-0.477-0.609c4.161,0.945,2.7,6.387-0.106,6.354
	C20.86,42.811,20.627,37.842,22.658,36.946z M11.647,43.96c-0.423,0.026-0.53-0.053-0.317-0.237c0.141-0.035,0.282-0.07,0.423-0.104
	c0.252,0.252,0.825-2.085,0.715-2.567c-0.065-0.281,0-3.07,0-3.07c0.053-1.421-0.379-1.968-1.033-2.118
	c-0.423-0.026-0.494-0.123-0.211-0.291c1.785-0.768,3.382-0.042,4.361,1.254c0.625,0.826,1.028,3.199,1.462,4.252
	c-0.307-1.616-0.241-3.262,0.37-4.949c0-0.15-0.07-0.3-0.211-0.45c1.094-0.063,2.188-0.124,3.282-0.186
	c-3.014,1.711-1.366,6.455-0.953,7.198c0.587,1.062,1.616,1.701,2.726,2.25c-4.03-0.16-4.98-1.274-5.956-2.383
	c-1.198-1.356-1.676-3.617-2.17-3.917c-0.026,1.094-0.053,2.188-0.08,3.281c0.075,0.853,0.349,1.55,1.059,1.906
	C13.959,43.872,12.803,43.916,11.647,43.96z"/>
</svg>
