<?xml version="1.0" encoding="utf-8"?>
<!-- Generator: Adobe Illustrator 16.0.0, SVG Export Plug-In . SVG Version: 6.00 Build 0)  -->
<!DOCTYPE svg PUBLIC "-//W3C//DTD SVG 1.1//EN" "http://www.w3.org/Graphics/SVG/1.1/DTD/svg11.dtd">
<svg version="1.1" id="Layer_1" xmlns="http://www.w3.org/2000/svg" xmlns:xlink="http://www.w3.org/1999/xlink" x="0px" y="0px"
	 width="82px" height="80px" viewBox="0 0 82 80" enable-background="new 0 0 82 80" xml:space="preserve">
<path d="M30.571,52.545l0.119-0.119l-2.385-0.357l-2.383-0.354l-2.266-0.479l-2.264-0.477l-2.027-0.596l-2.145-0.598l-2.025-0.715
	l-1.91-0.718l-1.787-0.715l-1.787-0.834L8.162,45.63l-1.67-0.833l-1.43-0.954l-1.311-1.071L2.56,41.818l-1.193-1.074L1.13,40.508
	l-0.238-0.24l-0.121-0.237l-0.236-0.238l-0.119-0.239l-0.24-0.237L0.059,38.96v-0.24l1.072-0.598l0.357-0.356l0.357-0.239
	l0.119-0.238l0.121-0.239l0.117-0.356v-0.118l-0.117-0.24l-0.121-0.118l-0.119,0.118l-0.119,0.12l-0.119,0.12l-0.119,0.118H1.011
	l-0.119-0.118H0.771v-0.12h-0.12v-0.12H0.534v-0.833l0.117-0.119l0.119-0.24l0.24-0.117l0.119-0.12l0.238-0.118l0.119-0.121h0.238
	l0.119-0.117H2.56l0.357,0.238l0.238,0.118l0.357,0.597l0.119,0.715l0.119,0.715l-0.119,0.835l-0.359,0.595l-0.355,0.598
	L2.56,39.439l0.119-0.119l1.311,1.311l1.549,1.192l1.67,1.19l1.904,1.07l1.908,1.072l2.264,0.951l2.266,0.953l2.385,0.715
	l2.504,0.838l2.74,0.598l2.742,0.596l2.859,0.479l2.98,0.355l2.979,0.236l3.102,0.239h6.316l3.1-0.239l2.98-0.236l2.979-0.355
	l2.861-0.479l2.742-0.596l2.621-0.598l2.623-0.717l2.383-0.836l2.266-0.953l2.145-0.951l2.027-1.072l1.908-1.07l1.668-1.19
	l1.549-1.192l1.311-1.311l0.121,0.119l-0.356-0.477l-0.354-0.598l-0.357-0.595l-0.119-0.835l0.119-0.715l0.119-0.715l0.357-0.597
	l0.235-0.118l0.356-0.238h0.718l0.114,0.117h0.238l0.121,0.121l0.238,0.118l0.117,0.12l0.24,0.117l0.119,0.24l0.116,0.119v0.833
	h-0.116v0.12h-0.119v0.12h-0.119l-0.121,0.118h-0.477l-0.119-0.118l-0.119-0.12l-0.117-0.12l-0.118-0.118l-0.119,0.118l-0.119,0.24
	v0.118l0.119,0.356l0.119,0.239l0.118,0.238l0.354,0.239l0.359,0.356l1.068,0.598v0.238l-0.119,0.357l-0.234,0.237l-0.119,0.239
	l-0.236,0.355l-0.119,0.12l-0.237,0.24l-0.238,0.236l-1.19,1.074l-1.191,1.072L76.82,43.84l-1.43,0.954l-1.553,0.954l-1.668,0.834
	l-1.789,0.834l-1.904,0.833l-1.908,0.717l-2.024,0.597l-2.024,0.717l-2.146,0.478l-2.269,0.597L55.84,51.71l-2.383,0.479
	l-2.385,0.235v0.119l-2.621,0.298l-2.504,0.12l-2.621,0.119L40.824,53.2l-2.504-0.12l-2.623-0.119l-2.502-0.12L30.571,52.545
	 M14.003,31.687V28.23l0.119-0.119v-0.238l0.119-0.119l0.119-0.119h1.074l0.236,0.119l0.119,0.119l0.238,0.12l0.121,0.237
	l0.117,0.119l0.121,0.238l0.119,0.239l0.119,0.237l0.119,0.238v0.238l0.119,0.238v1.193l-0.119,0.238v0.357l-0.119,0.119
	l-0.119,0.238l-0.119,0.119l-0.121,0.12l-0.117,0.118h-0.121l-0.117,0.118h-0.24l-0.236,0.12h-0.836l-0.119-0.12H14.36h-0.119
	l-0.119-0.118v-0.118h-0.119V31.687 M16.983,32.759l0.119-0.12l0.238-0.118l0.119-0.12l0.119-0.236l0.238-0.12l0.119-0.119
	l0.119-0.119v-0.238l0.121-0.121l0.117-0.236v-0.477l0.121-0.24v-1.191l-0.121-0.238l-0.117-0.356l-0.121-0.239l-0.119-0.238
	l-0.119-0.237l-0.238-0.239l-0.119-0.238L17.221,27.4l-0.238-0.238l-0.238-0.119h-0.357l-0.238-0.119h-2.146l-0.119,0.119h-1.668
	l-0.119-0.119h-0.479H11.5h-0.12h-0.117h-0.119v0.477l0.119,0.119h0.117v0.119h0.359l0.117,0.119h0.121v0.119h0.119v0.12h0.119
	v0.237l0.119,0.119v0.238l0.119,0.12v8.224l-0.119,0.118v0.479h-0.119v0.239h-0.119v0.12h-0.119v0.119h-0.121v0.117h-0.117h-0.121
	v0.121h-0.119v0.117H11.38v0.477h0.119v0.121h0.119h0.121h0.357l0.119-0.121h2.264l0.119,0.121h0.119h0.121h0.117h0.121l0.119-0.121
	v-0.477l-0.119-0.117h-0.121l-0.117-0.121h-0.121l-0.119-0.117l-0.119-0.119H14.36l-0.119-0.12v-0.12l-0.119-0.119v-0.238
	l-0.119-0.119v-3.813h0.119l0.119-0.12h0.119h0.119h0.359h0.238v0.12h0.119h0.119v0.118h0.119l0.117,0.119v0.12l0.119,0.237
	l0.119,0.238l0.121,0.24l0.117,0.357l0.121,0.355l0.117,0.359v0.118l0.121,0.12v0.118l0.119,0.477l0.238,0.358l0.119,0.356
	l0.119,0.239l0.119,0.357l0.119,0.24l0.119,0.236l0.119,0.121l0.119,0.236l0.119,0.119l0.119,0.121h0.238l0.121,0.117l0.117,0.121
	h0.596l0.119-0.121h0.119l0.119-0.117h0.119l0.121-0.121h0.119v-0.12l0.119-0.119h0.119v-0.238l0.117-0.117h-0.117v-0.239H19.72
	h-0.119h-0.119h-0.121h-0.119h-0.119l-0.119-0.12H18.89v-0.238h-0.119V37.29l-0.119-0.119v-0.12l-0.119-0.236v-0.12l-1.311-3.219
	l-0.119-0.118v-0.12l-0.119-0.119V33h-0.119v-0.119h-0.119v-0.119h0.237V32.759z M12.216,27.515l0.119,0.119h0.119v0.119
	l0.117,0.119h0.119v0.12l0.121,0.118v0.238l0.119,0.119v8.581l-0.119,0.239v0.238l-0.121,0.119v0.12l-0.119,0.12v0.119h-0.117
	l-0.119,0.117h-0.119l0.119-0.117v-0.119l0.119-0.12v-0.239h0.117v-0.478l0.119-0.118v-8.224l-0.119-0.239V28.23l-0.117-0.119
	v-0.238l-0.119-0.119l-0.119-0.119V27.515h-0.119H12.216z M16.149,27.634l0.117,0.119l0.121,0.119l0.119,0.12l0.119,0.118
	l0.119,0.119l0.119,0.119l0.119,0.119l0.119,0.239v0.119l0.119,0.237V29.3l0.119,0.12v1.55l-0.119,0.119v0.238l-0.119,0.117v0.121
	l-0.119,0.119v0.119l-0.119,0.119v0.119h-0.119l-0.119,0.12v-0.12l0.119-0.119v-0.119l0.119-0.119v-0.119l0.119-0.121V30.85
	l0.119-0.119v-0.715l-0.119-0.122v-0.595l-0.119-0.119v-0.237l-0.119-0.119v-0.239l-0.119-0.119l-0.119-0.119l-0.119-0.238
	l-0.121-0.118l-0.117-0.12l-0.121-0.119l-0.117-0.238L16.149,27.634z M15.671,33.117h0.119h0.121v0.119h0.117v0.238h0.121v0.119
	l1.072,2.861l0.119,0.238v0.12l0.119,0.236l0.119,0.239v0.119l0.119,0.238l0.119,0.12l0.119,0.12v0.119l0.119,0.117v0.121
	l0.121,0.117l0.117,0.119l0.121,0.119v0.121l-0.121-0.121h-0.117V38.48h-0.121l-0.119-0.119l-0.119-0.117l-0.119-0.121v-0.117
	l-0.119-0.119l-0.119-0.12l-0.119-0.239v-0.119l-0.119-0.238l-0.119-0.12l-0.119-0.236v-0.238l-1.072-2.624v-0.118l-0.121-0.119
	v-0.239h-0.119v-0.118l-0.119-0.12V33.12h0.119V33.117z M25.087,26.919L24.97,26.8v-0.119h-0.119v-0.119l-0.121,0.119L24.61,26.8
	l-3.217,9.654v0.238l-0.119,0.12v0.236l-0.121,0.12v0.119l-0.119,0.119v0.119l-0.117,0.119v0.12h-0.121v0.12l-0.119,0.119
	l-0.119,0.117H20.44v0.121h-0.119l-0.119,0.117l-0.121,0.119v0.357h0.121v0.121h0.119h0.119h0.117v-0.121h0.238h0.357h1.551
	l0.119,0.121h0.119h0.119h0.119H23.3v-0.121h0.119v-0.238L23.3,38.48v-0.119h-0.119l-0.119-0.117h-0.119h-0.119l-0.119-0.121h-0.238
	v-0.117H22.35l-0.123-0.119v-0.12H22.11v-0.12l-0.121-0.119v-0.596h0.121v-0.238l0.355-1.311v-0.24h0.119v-0.237h0.119v-0.118h0.119
	l0.119-0.121h2.623h0.119v0.121h0.119h0.119v0.238l0.119,0.117v0.121l0.119,0.119l0.357,1.192v0.356l0.119,0.118v0.358l-0.119,0.119
	v0.239l-0.121,0.12v0.119h-0.119l-0.117,0.117l-0.119,0.121h-0.119v0.117h-0.119v0.119h-0.119v0.357h0.119v0.121h0.119h0.119
	l0.119-0.121h2.74v0.121h0.359h0.119l0.119-0.121v-0.477H29.38v-0.117h-0.119V38.12h-0.119h-0.121v-0.117h-0.119h-0.119v-0.119
	h-0.119v-0.12h-0.119v-0.239h-0.119v-0.238l-0.119-0.119v-0.12L25.087,26.919 M25.444,33.117v0.239l0.121,0.118v0.239h-0.121h-0.117
	v0.119h-0.121h-1.668h-0.119H23.3l-0.119-0.119l-0.119-0.12v-0.237h0.119v-0.239l0.953-2.979v-0.119h0.119v-0.122h0.119v0.122h0.121
	v0.119L25.444,33.117z M21.632,37.527l-0.121,0.119v0.24l-0.117,0.119v0.117h-0.119l-0.121,0.121v0.117h-0.236l-0.121,0.119h-0.119
	V38.36l0.119-0.117l0.121-0.121l0.117-0.117v-0.119h0.119v-0.12l0.121-0.12v-0.238l0.119-0.238v-0.12l0.117-0.236l0.121-0.238
	V37.527z M26.638,38.123v-0.117l0.119-0.119v-0.24h0.119v-0.715l-0.119-0.118v-0.358l-0.119-0.12v-0.118l-2.027-6.438v-0.238h-0.117
	v-0.357h0.117v-0.119h0.119v0.119h0.121v0.119l2.146,6.676v0.597l0.117,0.118v0.715l-0.117,0.119v0.239h-0.121v0.12l-0.119,0.119
	L26.638,38.123h-0.119H26.638z M36.292,33.951h0.121l0.117,0.121h0.119v0.117h0.119v0.121l0.121,0.119v0.119l0.117,0.117v1.909
	l-0.117,0.118v0.356h-0.121v0.12l-0.119,0.119v0.119H36.53v0.119v-0.357l0.119-0.12v-0.595l0.119-0.12v-1.192l-0.119-0.237v-0.476
	H36.53v-0.24l-0.117-0.117h-0.121V33.951 M37.962,35.263l0.119-0.121v-0.713H38.2v-0.24h0.119v-0.117h0.119v-0.121h0.119h0.119
	v-0.118h0.119h0.117v-0.477h-0.117h-0.119v-0.12h-0.119v0.12h-0.119h-2.742h-0.238v-0.12h-0.117H35.22v0.12h-0.117l-0.121,0.118
	v0.239h0.121v0.119l0.117,0.118h0.121h0.117l0.119,0.121h0.119h0.119l0.119,0.117h0.119l0.119,0.121l0.119,0.119v0.119l0.121,0.117
	v0.477l0.117,0.121v0.953l-0.117,0.118v0.597l-0.121,0.118v0.239l-0.119,0.119v0.119l-0.119,0.119h-0.119l-0.119,0.12l-0.119,0.12
	h-0.119l-0.119,0.119l-0.117,0.117h-0.238l-0.121,0.121h-1.311l-0.24-0.121l-0.236-0.236l-0.359-0.24l-0.238-0.238l-0.238-0.358
	l-0.119-0.356l-0.236-0.358l-0.121-0.477l-0.238-0.476l-0.119-0.596V34.31l-0.119-0.597V31.33l0.119-0.477v-0.479l0.119-0.478
	l0.238-0.356l0.121-0.357l0.236-0.356l0.119-0.358l0.238-0.238l0.238-0.237l0.359-0.239l0.236-0.119l0.24-0.119h0.357l0.357-0.119
	h0.238l0.238,0.119h0.24l0.117,0.119l0.238,0.119l0.238,0.119l0.238,0.12l0.238,0.118l0.24,0.238l0.117,0.238l0.238,0.239
	l0.121,0.119l0.117,0.237l0.121,0.357l0.119,0.238l0.117,0.24l0.119,0.119v0.355l0.119,0.119v0.359h0.119v0.119l0.121,0.119h0.119
	v-3.814h-0.119h-0.121v0.238h-0.119v0.119h-0.119H37.36h-0.117l-0.119-0.119H36.89l-0.121-0.119l-0.238-0.119l-0.238-0.119
	l-0.238-0.119l-0.238-0.119l-0.238-0.119L35.341,26.8h-0.359l-0.24-0.119h-0.953L33.312,26.8l-0.357,0.119l-0.477,0.238
	l-0.357,0.238l-0.357,0.357l-0.357,0.477l-0.357,0.357l-0.357,0.596l-0.238,0.478l-0.238,0.595l-0.119,0.598l-0.119,0.594
	l-0.119,0.598l-0.121,0.715v1.313l0.121,0.594v0.598l0.119,0.477l0.238,0.477l0.119,0.477l0.238,0.477l0.357,0.357l0.238,0.359
	l0.357,0.357l0.357,0.236l0.357,0.24l0.357,0.238l0.357,0.118h0.477l0.479,0.12l0.119-0.12h0.596l0.238-0.118h0.24l0.238-0.121
	h0.236l0.119-0.117l0.238-0.121l0.238-0.119l0.24-0.119l0.236-0.117l0.24-0.121l0.238-0.117l0.236-0.119v-0.12h0.119H37.6v-0.12
	h0.119l0.121-0.119l0.119-0.119v-0.119l0.119-0.119v-0.356h-0.119v-1.312v-0.242H37.962z M36.413,27.753l0.236,0.119l0.119,0.12
	l0.121,0.118h0.117l0.121,0.119l0.119,0.119l0.117,0.119v0.119l0.119,0.12v0.119l0.119,0.119V29.3l0.119,0.238v0.238h-0.119v-0.118
	l-0.119-0.12V29.3l-0.119-0.119l-0.117-0.119v-0.118l-0.119-0.119l-0.121-0.119v-0.12l-0.117-0.119l-0.121-0.119l-0.119-0.119
	L36.53,28.11v-0.118l-0.117-0.12l-0.121-0.119l0,0H36.413z M32.954,38.837l-0.357-0.238L32.24,38.48l-0.357-0.236l-0.238-0.238
	l-0.357-0.359l-0.238-0.238l-0.238-0.358l-0.119-0.356l-0.238-0.358l-0.119-0.477l-0.119-0.476l-0.119-0.357l-0.119-0.596v-1.79
	l0.119-0.475v-0.358l0.119-0.359v-0.475l0.119-0.359l0.119-0.357l0.238-0.358l0.119-0.236l0.119-0.358l0.238-0.356l0.119-0.238
	l0.238-0.239l0.238-0.238l0.24-0.357v0.12l-0.121,0.237l-0.238,0.238l-0.238,0.358l-0.119,0.237l-0.119,0.358l-0.119,0.238
	l-0.238,0.358l-0.119,0.355l-0.119,0.359v0.357l-0.119,0.355l-0.119,0.359v1.072l-0.119,0.478l0.119,0.477v0.954l0.119,0.355
	l0.119,0.478l0.119,0.358l0.238,0.356l0.119,0.358l0.238,0.356l0.238,0.358l0.238,0.238l0.24,0.359l0.355,0.238l0.238,0.236
	l0.357,0.119l0.357,0.238v0.121L32.954,38.837z M41.895,27.039H40.94l-0.117-0.119h-0.955h-0.119H39.63h-0.121v0.715l-0.117,0.238
	v0.954l-0.119,0.237v1.074h0.119v0.117h0.117v-0.117h0.121v-0.119l0.119-0.122v-0.236l0.119-0.12v-0.477l0.119-0.118v-0.119
	l0.119-0.119v-0.12l0.119-0.119V28.35h0.121v-0.12l0.119-0.119h0.238l0.119-0.118h0.475l0.121-0.12h0.834l0.119,0.12h0.119h0.119
	v0.118h0.119v9.059l-0.119,0.119v0.119l-0.119,0.119v0.119l-0.119,0.12l-0.119,0.12v0.119h-0.238v0.117h-0.121h-0.119v0.121H41.54
	l-0.12,0.117l-0.121,0.119v0.357h0.121v0.121h0.119h0.119h0.234h0.358l0.119-0.121h2.621l0.12,0.121h0.238h0.119h0.117h0.119v-0.121
	h0.119v-0.477H45.71v-0.117h-0.237l-0.119-0.121h-0.119h-0.117h-0.121v-0.117h-0.119v-0.119h-0.119l-0.117-0.12v-0.12l-0.119-0.119
	v-0.119H44.4v-0.595l-0.119-0.12v-8.225l0.119-0.119V28.11h0.119v-0.118h0.355l0.119-0.12h0.717l0.119,0.12h0.597l0.118,0.118h0.238
	v0.119l0.117,0.119l0.119,0.119v0.119l0.119,0.12v0.238l0.118,0.118V29.3l0.119,0.12v0.118l0.117,0.12h0.118h0.119V29.18
	l-0.119-1.787v-0.357h-0.118v-0.119h-0.117h-0.119h-0.118H47.02h-0.834l-0.24,0.119h-4.053 M39.63,28.468l0.119-0.119v-0.356
	l0.119-0.12l0.119-0.119v-0.119h0.238v-0.119h0.357h0.121h0.119h0.117v0.119h-0.117l-0.119,0.119h-0.121l-0.117,0.119h-0.119
	l-0.121,0.12l-0.119,0.118v0.119h-0.119v0.119l-0.119,0.119v0.119l-0.119,0.12v0.238H39.63V28.468z M42.968,27.753h0.117v0.119
	l0.121,0.12v0.356l0.119,0.238v8.462l-0.119,0.12v0.357l-0.121,0.119v0.12l-0.117,0.12l-0.118,0.119H42.73l-0.119,0.117v-0.117
	h0.119v-0.119h0.119v-0.359h0.116v-9.654H42.85v-0.119l-0.119-0.119h0.119L42.968,27.753z M46.188,27.515h0.117h0.12h0.119h0.238
	l0.118,0.119h0.119l0.119,0.119l0.117,0.119v0.238l0.119,0.119v0.357l-0.119-0.119v-0.119h-0.115l-0.119-0.119V28.11l-0.119-0.118
	l-0.119-0.12h-0.119v-0.119h-0.359l-0.117-0.119h-0.121v-0.119H46.188z M49.046,27.515h0.119l0.121,0.119h0.116l0.121,0.119v0.119
	h0.119v0.12l0.119,0.118v0.238l0.115,0.119v8.82l-0.115,0.119v0.238l-0.119,0.12v0.12h-0.119v0.119l-0.121,0.117h-0.116
	l-0.121,0.121V38.12h0.121v-0.117l0.116-0.119v-0.24l0.121-0.119v-0.238l0.119-0.239v-8.7l-0.119-0.119V28.11l-0.121-0.118v-0.12
	l-0.116-0.119l-0.121-0.119L49.046,27.515L49.046,27.515 M50.952,28.587l0.118-0.119v-0.357h0.121v-0.238h0.119v-0.119h0.115
	l0.121-0.119h0.119l0.119-0.119H51.9v-0.119l0.119-0.119V27.04H51.9v-0.119h-0.115h-0.119h-0.834l-0.24,0.119h-1.549l-0.119-0.119
	H48.45h-0.119h-0.119h-0.119v0.119h-0.12v0.357l0.12,0.119l0.119,0.119h0.356l0.119,0.119h0.236v0.119h0.119l0.119,0.12v0.118h0.121
	v0.238l0.115,0.119v8.701l-0.115,0.119v0.357h-0.121v0.12l-0.119,0.12l-0.119,0.119h-0.113v0.117h-0.121l-0.119,0.121l-0.119,0.117
	h-0.119v0.477h0.119v0.121h0.119h0.119h0.121h0.233l0.119-0.121h2.385l0.119,0.121H51.9h0.119h0.121h0.119v-0.121h0.121V38.72H52.5
	v-0.24h-0.117v-0.119l-0.121-0.117h-0.119l-0.121-0.121h-0.119h-0.114l-0.119-0.117H51.55l-0.12-0.119l-0.117-0.12h-0.119v-0.239
	h-0.119V37.29l-0.119-0.119v-7.629L50.952,28.587L50.952,28.587z M62.396,29.422v-0.715l0.119-0.12V28.23l0.115-0.119v-0.118
	l0.121-0.12h0.117v-0.119h0.117l0.119-0.119h0.121l0.117-0.119h0.118v-0.119h0.121V27.04h-0.121v-0.119h-0.118H63.23h-0.121h-0.118
	h-0.119h-0.238v0.119h-0.116h-0.238H62.16v-0.119h-0.12h-0.12H61.8h-0.118h-0.119v0.119h-0.119v0.238l-3.098,8.225v0.118h-0.121
	v0.12h-0.119v-0.12h-0.119v-0.118l-2.859-8.105V27.16l-0.117-0.119v-0.119h-0.119H54.77H54.65h-0.119h-0.235l-0.121,0.119h-0.478
	l-0.118-0.119H52.98h-0.117h-0.118v0.596h0.118h0.117v0.119h0.236v0.119h0.119l0.119,0.119l0.119,0.12v0.118l0.117,0.119v0.119
	l0.121,0.119v0.358l0.119,0.237v2.146l-0.119,3.814v0.715l-0.121,0.238v0.715l-0.117,0.12v0.476l-0.119,0.119v0.238h-0.119v0.12
	h-0.119v0.239H53.1v0.117H52.98v0.121h-0.117l-0.118,0.117l-0.121,0.119v0.357h0.121v0.121h0.118h0.117H53.1l0.119-0.121h0.357
	h0.717h0.355h0.356l0.117,0.121h0.121h0.116h0.119H55.6v-0.121h0.119V38.48L55.6,38.361v-0.117H55.48h-0.119v-0.121h-0.117h-0.121
	v-0.117h-0.117l-0.119-0.119h-0.119v-0.12h-0.119v-0.239l-0.119-0.119v-0.358l-0.118-0.118v-1.43l0.118-4.291v-0.357h0.119h0.119
	v0.238h0.119l2.385,7.389h0.119v0.24h0.121v0.117h0.117h0.117V38.72l0.119-0.121V38.48l2.74-7.27v-0.238h0.119v-0.238h0.118v0.238
	h0.119v0.238l0.121,5.244v1.072h-0.121v0.239h-0.119v0.12h-0.118v0.119h-0.119v0.117h-0.119v0.121H60.37l-0.119,0.117v0.119h-0.119
	v0.24h0.119v0.238h0.119h0.118h0.119h0.238v-0.121h2.146l0.118,0.121h0.121h0.117h0.117h0.121l0.119-0.121V38.72l0.115-0.121V38.48
	h-0.115v-0.119l-0.119-0.117h-0.121h-0.117v-0.121H63.23h-0.121v-0.117h-0.118v-0.119h-0.119v-0.24h-0.117v-0.238h-0.121v-0.715
	l-0.116-0.118v-0.358L62.396,29.422 M54.055,37.766l-0.119,0.12v0.119h-0.119v0.117h-0.121v0.121h-0.236v0.117H53.34v-0.238h0.119
	v-0.117h0.119v-0.119l0.117-0.12v-0.239l0.121-0.119v-0.477l0.119-0.118v-0.597h0.119V37.766z M53.693,27.515l0.24,0.238
	l0.234,0.239l0.121,0.237l0.234,0.357l0.238,0.358l0.118,0.477l0.238,0.597v0.119l2.267,6.793l0.12,0.118v0.358h0.119v0.358h-0.119
	h-0.118v-0.12l-0.119-0.119l-2.623-7.866v-0.12h-0.119v-0.118l-0.117-0.358l-0.117-0.237l-0.121-0.358l-0.115-0.238l-0.119-0.237
	l-0.119-0.12l-0.121-0.238l-0.118-0.119v-0.119L53.693,27.515z M61.563,28.349l-0.119,0.119v2.861l0.119,4.887v1.43h-0.119v0.24
	l-0.117,0.119l-0.119,0.117l-0.117,0.121h-0.121l0.121-0.121v-0.117h0.117v-0.359h0.119v-1.668l-0.236-5.484v-0.475l0.117-0.122
	v-1.07l0.119-0.119V28.35l0.117-0.119v-0.237h0.119V28.349z M66.809,28.708v-0.239l0.116-0.119v-0.356h0.119v-0.12h0.119v-0.119
	h0.599l0.118-0.119l0.238,0.119h0.952l0.119,0.119h0.119l0.119,0.12h0.119l0.119,0.118l0.117,0.119v0.119H69.9v0.119l0.119,0.239
	v0.356l0.119,0.119v0.357l0.119,0.12h0.118h0.119v-2.622H70.38v-0.119h-0.118h-0.119h-0.238h-1.549l-0.236,0.119h-2.979l-0.24-0.119
	h-0.596h-0.119h-0.119h-0.119v0.596h0.238v0.119h0.355l0.119,0.119h0.117l0.119,0.119l0.119,0.12l0.119,0.118v0.238h0.118v0.597
	l0.119,0.237v7.63l-0.119,0.118v0.477l-0.118,0.119v0.119l-0.119,0.12l-0.119,0.12l-0.119,0.119H64.66v0.117h-0.119l-0.119,0.121
	l-0.119,0.117v0.238h-0.119l0.119,0.121v0.238h0.119h0.119h0.238h0.119l0.119-0.121h3.1l0.119,0.121h0.477h0.596l0.24-0.121h0.236
	V38.72h0.119l0.119-0.121h0.119l0.119-0.119v-0.119h0.116l0.119-0.117v-0.121l0.119-0.117v-0.119l0.116-0.12v-0.12l0.119-0.119
	V37.29l0.119-0.119v-0.356l0.119-0.238V35.86h-0.119v-0.12h-0.119v0.118h-0.119v0.238H70.62v0.12l-0.119,0.118v0.24l-0.119,0.118
	h-0.118v0.12l-0.119,0.118v0.118h-0.119l-0.117,0.12l-0.119,0.119l-0.117,0.119l-0.119,0.119H69.43l-0.119,0.119l-0.238,0.12h-0.116
	l-0.119,0.12H68.48l-0.119,0.119h-0.955v-0.119h-0.238l-0.119-0.12v-0.12l-0.119-0.119v-0.478l-0.117-0.118v-3.575l0.117-0.12
	v-0.238h0.119v-0.119h0.119h0.119l0.119-0.119h0.479l0.119,0.119H68.6l0.119,0.119l0.119,0.119l0.119,0.119l0.119,0.12v0.237
	l0.119,0.12v0.476h0.119v0.359h0.119v0.117h0.121h0.116v-4.172H69.55h-0.12l-0.119,0.119l-0.119,0.121v0.119l-0.119,0.119v0.238
	l-0.117,0.119v0.117l-0.119,0.121v0.119h-0.119v0.119H68.6v0.119H68.48h-0.119L68.24,32.04h-0.954h-0.119l-0.119-0.119H66.93v-0.357
	l-0.117-0.121v-2.735 M69.07,27.396h0.119h0.119h0.238h0.119l0.117,0.119H69.9l0.119,0.119l0.119,0.119v0.477l0.119,0.119v0.119
	h-0.119v-0.119L70.02,28.23v-0.119L69.9,27.993l-0.117-0.12l-0.117-0.119H69.55l-0.12-0.119h-0.119l-0.119-0.119h-0.236v-0.119
	L69.07,27.396L69.07,27.396z M68.596,32.401v-0.118h0.118v-0.118h0.119v-0.12h0.119v-0.238h0.118v1.072l-0.118-0.119l-0.119-0.12
	h-0.119v-0.118h-0.118h-0.119v-0.12L68.596,32.401L68.596,32.401z M68.833,38.123h0.119l0.118-0.117h0.238l0.119-0.119h0.119
	l0.119-0.12l0.117-0.12H69.9l0.119-0.119l0.119-0.119l0.119-0.119l0.118-0.119l0.119-0.12v-0.118l0.118-0.118h0.119l-0.119,0.236
	v0.12l-0.118,0.119v0.238l-0.119,0.119l-0.118,0.12l-0.119,0.12l-0.119,0.119L69.9,38.123h-0.117l-0.117,0.121h-0.479l-0.119,0.117
	h-0.117v-0.117h-0.119h-0.119h-0.117L68.833,38.123z M65.139,27.515l0.118,0.119l0.119,0.119l0.121,0.119l0.116,0.12v0.118
	l0.119,0.119v0.238l0.119,0.119v8.226l-0.119,0.236v0.478l-0.119,0.119v0.12l-0.116,0.12v0.119h-0.121l-0.119,0.117h-0.118
	l0.118-0.117v-0.239l0.119-0.12v-0.119l0.121-0.119v-0.595l0.116-0.238v-7.748l-0.116-0.119V28.23l-0.121-0.119v-0.238l-0.119-0.119
	l-0.118-0.119V27.515H65.02H65.139z M76.581,35.62h1.431v-0.715h-2.146v0.715h0.118l-0.239,1.073l-0.354,0.953l-0.479,0.834
	l-0.598,0.717L73.6,39.793l-0.834,0.476l-0.834,0.24l-1.074,0.118H11.022l-1.07-0.118l-0.955-0.36l-0.834-0.475l-0.717-0.597
	l-0.594-0.833l-0.479-0.955l-0.357-0.954v-1.192H5.897v-0.237H3.872v0.715h1.43l0.238,1.193l0.357,0.953l0.477,0.954l0.717,0.833
	l0.717,0.595l0.951,0.597l0.953,0.24l1.074,0.117h60.312l1.073-0.117l0.953-0.24l0.953-0.597l0.834-0.595l0.598-0.833l0.597-0.954
	l0.356-0.953L76.581,35.62 M35.341,44.083h0.832l-0.119-0.237l-0.119-0.24l-0.119-0.233l-0.119-0.12l-0.238-0.236l-0.117-0.117
	l-0.238-0.24l-0.24-0.118l-0.238-0.119L34.507,42.3l-0.238-0.118h-0.238l-0.24-0.119h-1.549l-0.119,0.119h-0.357L31.647,42.3
	l-0.119,0.119H31.29l-0.119,0.119l-0.119,0.118l-0.119,0.119l-0.119,0.121l-0.238,0.117l-0.119,0.118l-0.119,0.118l-0.119,0.12
	L30.1,43.605l-0.119,0.121v0.117l-0.119,0.237L29.741,44.2l-0.117,0.237v0.117l-0.119,0.239v0.356l-0.119,0.119v1.072l0.119,0.356
	v0.354l0.119,0.357l0.117,0.355l0.24,0.356l0.238,0.237l0.238,0.357l0.238,0.237l0.238,0.239l0.357,0.238l0.357,0.116l0.238,0.12
	l0.357,0.116h1.549l0.24-0.116h0.238l0.119-0.12l0.238-0.116l0.238-0.119l0.24-0.119l0.117-0.12l0.238-0.239l0.119-0.117l0.119-0.24
	l0.238-0.236l0.119-0.236l0.119-0.118h-0.832l-0.121,0.118l-0.117,0.118l-0.121,0.118l-0.119,0.119l-0.121,0.117l-0.117,0.119
	l-0.119,0.121l-0.238,0.117h-0.119l-0.119,0.12h-0.24l-0.117,0.119H32.36l-0.24-0.114l-0.238-0.121l-0.238-0.117L31.406,48.6
	l-0.238-0.235l-0.238-0.12l-0.119-0.235l-0.238-0.356l-0.119-0.238l-0.119-0.238l-0.119-0.355v-0.237l-0.119-0.354v-0.601
	l0.119-0.354V45.04l0.119-0.356l0.119-0.238l0.119-0.237l0.238-0.237l0.119-0.236l0.238-0.237l0.238-0.239l0.238-0.117l0.238-0.121
	L32.12,42.9l0.238-0.12h1.313l0.238,0.12h0.119l0.119,0.117l0.119,0.121h0.238l0.119,0.116l0.117,0.12l0.121,0.119l0.119,0.115
	l0.121,0.121l0.117,0.236L35.341,44.083 M40.823,46.706H38.2l1.309-3.813L40.823,46.706 M37.843,47.301h3.219l0.833,2.385h0.717
	l-2.74-7.51h-0.834l-2.742,7.51h0.715L37.843,47.301z M43.206,49.686h0.597v-3.338h2.86v-0.834h-2.86v-2.621h2.86v-0.717h-3.457
	V49.686 M48.688,45.514v-2.621h2.98v-0.717h-3.697v7.51h3.697v-0.715h-2.98v-2.623h2.98v-0.834H48.688"/>
</svg>
