<?xml version="1.0" encoding="utf-8"?>
<!-- Generator: Adobe Illustrator 16.0.0, SVG Export Plug-In . SVG Version: 6.00 Build 0)  -->
<!DOCTYPE svg PUBLIC "-//W3C//DTD SVG 1.1//EN" "http://www.w3.org/Graphics/SVG/1.1/DTD/svg11.dtd">
<svg version="1.1" id="Layer_1" xmlns="http://www.w3.org/2000/svg" xmlns:xlink="http://www.w3.org/1999/xlink" x="0px" y="0px"
	 width="160px" height="80px" viewBox="0 0 160 80" enable-background="new 0 0 160 80" xml:space="preserve">
<g>
	<g>
		<path d="M85.193,31.163c0.688,0.448,1.092,1.23,1.092,2.201v10.78L78.014,30.67h-7.055v0.491c0.689,0.448,1.109,1.23,1.109,2.201
			v15.583h2.619V35.491l8.29,13.456h5.944V30.672h-3.729v0.491H85.193z M66.087,46.743h-6.145v-6.127h6.945v-2.199h-6.945v-5.563
			h5.926c0.969,0,1.754,0.42,2.199,1.11h0.473v-3.292H53.615v0.491c0.689,0.448,1.09,1.23,1.09,2.201v15.583h14.07v-3.383h-0.488
			C67.878,46.327,67.167,46.743,66.087,46.743z M51.232,47.343l-4.488-6.745c2.232-0.707,3.982-2.579,3.982-4.979
			c0-3.167-2.402-4.946-6.109-4.946h-11.6v0.491c0.689,0.448,1.109,1.23,1.109,2.201v15.583h5.234v-7.767h1.963l4.33,7.767h6.98
			v-0.494C52.076,48.247,51.585,47.874,51.232,47.343z M41.634,39.162h-2.273V32.71h2.273c1.902,0,3.545,0.999,3.545,3.163
			C45.179,38.053,43.666,39.162,41.634,39.162z M109.572,47.091l-7.035-16.419h-4.068l-7.947,18.273h3.072l1.713-4.186h7.707
			l1.615,4.186h6.309v-0.493C110.359,48.23,109.843,47.717,109.572,47.091z M96.208,42.563l3.037-7.104l2.896,7.104H96.208z
			 M142.352,30.67v3.513h0.491c0.406-0.82,1.214-1.329,2.199-1.329h3.472v16.091h5.239V32.854h3.472
			c0.985,0,1.791,0.508,2.198,1.328h0.492V30.67H142.352z M142.936,46.743h-5.603V30.672h-6.342v0.491
			c0.687,0.448,1.108,1.23,1.108,2.201v15.583h13.506v-3.512h-0.473C144.723,46.253,143.921,46.743,142.936,46.743z M124.371,31.163
			c0.689,0.448,1.092,1.23,1.092,2.201v7.016c0,3.54-1.217,5.474-4.434,5.474c-3.223,0-4.422-1.934-4.422-5.474v-9.708h-6.346v0.491
			c0.688,0.448,1.108,1.23,1.108,2.201v7.963c0,4.442,2.772,7.979,8.217,7.979c6.021,0,8.511-2.713,8.511-8.652v-9.982h-3.729
			L124.371,31.163L124.371,31.163z M14.957,25.413c-0.426,0-0.77,0.544-4.436,7.052c-2.189,3.883-4.193,7.239-4.461,7.469
			l-0.488,0.417l3.139,5.056c1.725,2.78,3.086,5.14,3.023,5.241C11.67,50.75,10.14,48.416,8.33,45.46l-3.289-5.371l3.102-5.455
			c5.896-10.37,5.314-9.251,4.773-9.188c-0.424,0.049-0.881,0.771-4.531,7.204c-2.232,3.932-4.191,7.299-4.357,7.48
			c-0.285,0.317-0.143,0.579,3.318,6.149c1.988,3.199,3.555,5.882,3.477,5.959c-0.076,0.078-1.857-2.652-3.951-6.066l-3.814-6.209
			l4.121-7.208c2.268-3.964,4.123-7.239,4.123-7.275c0-0.038-0.182-0.068-0.4-0.068c-0.34,0-0.953,0.969-4.234,6.701
			c-2.11,3.687-4.063,7.047-4.34,7.467l-0.504,0.764l4.045,6.573c2.225,3.616,4.021,6.7,3.99,6.854
			c-0.027,0.151-1.936-2.793-4.24-6.553c-2.301-3.755-4.285-6.907-4.404-7.003c-0.168-0.135,0.766-1.897,3.947-7.446
			c3.605-6.293,4.119-7.279,3.818-7.33c-0.191-0.032-0.414,0.007-0.494,0.087c-0.26,0.264-8.4,14.604-8.4,14.802
			c0,0.104,1.943,3.338,4.32,7.188l4.318,6.996l0.871-0.056l0.877-0.053l3.83-6.744c2.111-3.71,4.025-6.902,4.256-7.099l0.422-0.35
			l-3.146-5.066c-1.73-2.786-3.082-5.128-3.004-5.205c0.074-0.077,1.617,2.269,3.426,5.214l3.283,5.354l-3.941,6.9
			c-2.172,3.796-3.949,6.964-3.949,7.041c0,0.076,0.164,0.141,0.361,0.141c0.289,0,1.143-1.373,4.391-7.057
			c2.217-3.881,4.139-7.115,4.268-7.189c0.176-0.1-0.674-1.597-3.35-5.891c-1.971-3.166-3.559-5.884-3.529-6.041
			c0.041-0.21,7.289,11.263,7.645,12.102c0.031,0.076-1.723,3.24-3.9,7.03c-2.176,3.79-3.957,6.937-3.957,6.991
			c0,0.054,0.205,0.045,0.455-0.023c0.373-0.1,1.15-1.324,4.463-7.035c2.207-3.805,4.057-7.001,4.113-7.11
			c0.055-0.107-1.689-3.099-3.875-6.646c-3.662-5.936-4.627-7.65-3.889-6.91c0.145,0.144,2.016,3.14,4.162,6.657
			c2.143,3.517,4.053,6.531,4.244,6.699c0.342,0.299,0.277,0.428-3.602,7.186c-2.174,3.781-3.955,6.955-3.959,7.049
			c-0.006,0.095,0.148,0.171,0.344,0.171c0.281,0,1.186-1.451,4.461-7.162c2.354-4.103,4.055-7.25,3.982-7.367
			c-0.066-0.115-2.135-3.454-4.59-7.42C15.828,26.068,15.378,25.413,14.957,25.413z M14.826,35.82l2.795,4.472l-2.402,4.166
			c-1.32,2.293-2.488,4.298-2.596,4.456c-0.156,0.238-0.658-0.471-2.93-4.153l-2.74-4.438l1.572-2.771
			c0.865-1.521,2.006-3.54,2.539-4.485l0.969-1.718L14.826,35.82z"/>
	</g>
</g>
</svg>
