<?xml version="1.0" encoding="utf-8"?>
<!-- Generator: Adobe Illustrator 16.0.0, SVG Export Plug-In . SVG Version: 6.00 Build 0)  -->
<!DOCTYPE svg PUBLIC "-//W3C//DTD SVG 1.1//EN" "http://www.w3.org/Graphics/SVG/1.1/DTD/svg11.dtd">
<svg version="1.1" id="Layer_1" xmlns="http://www.w3.org/2000/svg" xmlns:xlink="http://www.w3.org/1999/xlink" x="0px" y="0px"
	 width="152px" height="80px" viewBox="0 0 152 80" enable-background="new 0 0 152 80" xml:space="preserve">
<g>
	<g>
		<path d="M6.26,31.162c-2.646,0.143-4.115-0.894-4.932-2.583c-0.148-3.674,1.73-5.316,4.229-6.34
			c-0.027-0.287-0.071-0.558-0.471-0.47c-2.329,1.505-4.601,3.071-4.226,7.28C1.962,30.245,4.272,32.376,6.26,31.162z
			 M120.154,29.752c-1.76,1.805,1.531,3.313,2.349,1.409c-0.196-1.926,1.188-5.212-1.644-5.872c0.154,0.936-1.385,0.182-1.176,1.176
			c1.226-0.581,2.57,0.072,2.349,1.643c-0.023,0.677-1,0.408-0.938,1.174c0.533,0.323,0.883-0.605,0.938,0
			c-0.228,0.399-0.646,0.604-1.406,0.471c-0.76,0.839,0.679,1.289,0.233,1.645C119.909,31.175,120.521,30.094,120.154,29.752z
			 M117.336,42.668c0.342-1.29,0.104-4.384,0.939-5.871c-0.279-1.287-0.197-2.932-0.705-3.991c-1.775-0.829-2.992,0.485-3.99,1.173
			c-0.398-1.087-0.631-2.344-1.645-2.817c-0.672,0.03,0.203,1.612-0.474,1.645c-0.129-1.046-0.188-2.165-0.7-2.818
			c0.104,2.544,1.055,5.174,1.174,7.982c0.125,2.938-0.554,5.625,1.174,7.281c1.367-2.591-0.342-9.962,2.818-11.507
			c0.508,0.354,0.854,0.864,1.172,1.409c-0.672,6.847-1.603,16,2.815,19.021c-1.019-2.664-2.892-5.72-2.108-9.396
			c0.018,3.035,0.887,5.22,1.877,7.279c1.137,1.998,2.225,4.041,4.463,4.935c-3.117-3.382-5.521-7.474-6.104-13.388
			C117.702,43.527,117.547,43.369,117.336,42.668z M114.051,34.918c-0.779-0.229,0.26-0.464,0.234-0.703
			C114.965,34.346,113.924,34.581,114.051,34.918z M37.024,40.085c-0.159-0.872,0.903-0.872,0.938-2.115
			c-2.314-0.141-3.955,2.69-6.104,1.175c0.141-2.99,1.686-4.576,4.228-5.166c-0.995-0.354-1.86,0.624-2.113,0.236
			c0.847-0.472,2.237-1.025,3.052-0.236c-0.125-0.735-0.875-0.846-1.644-0.939c-3.423,0.258-4.741,3.867-4.695,6.811
			c0.392-0.551-0.022,0.087,0,0.471c0.664,0.82,2.194,0.777,3.287,1.174c-2.946,1.04-4.991-1.346-3.758-4.228
			c-1.529,0.905-0.815,3.818,0,4.931C32.919,43.417,35.166,41.163,37.024,40.085z M32.328,40.789
			c0.102-0.524,1.157-0.096,1.645-0.232C33.871,41.08,32.815,40.65,32.328,40.789z M120.859,41.964
			c1.451-1.446,0.371-5.422,0.705-7.985h-0.705c-0.021,0.369-0.602,0.184-0.469,0.705C120.827,37.209,119.109,40.825,120.859,41.964
			z M20.119,52.532c0.478-0.462,1.465-0.409,1.642-1.175c-2.115,1.041-5.188,0.941-7.749,0.469c-3.825-0.708-7.298-2.784-7.751-6.34
			c-0.183-5.024,5.416-4.594,9.159-4.463c-3.862-1.377-8.882-0.673-9.861,2.816C5.532,51.617,12.196,52.701,20.119,52.532z
			 M44.775,41.023c0.421,2.479,1.783,5.262,4.695,4.463C46.835,45.068,45.895,42.954,44.775,41.023z M8.376,42.668
			c5.719-2.813,10.518,2.13,13.384,5.167C19.881,44.402,13.012,38.678,8.376,42.668z M139.176,42.198
			c-0.334,0.786-0.334,2.268,0,3.054c0.9,0.657,3.346,0.701,3.76-0.471c-0.897,0.199-1.887,0.309-3.053,0.234
			C138.926,44.357,139.572,43.02,139.176,42.198z M149.745,34.684c0.274,0.036,0.666-0.041,0.705,0.234
			c-0.406,1.789-2.007,3.629-3.054,3.992c-1.871-9.065,1.879-16.385,1.646-25.361c-0.649-0.566-0.231-0.241-0.235,0.234
			c-0.023,1.657-0.375,5.271-0.705,7.045c-1.025-0.2-0.5,1.603-1.174,0.47c-0.968,3.981-2.104,8.988-1.88,13.386
			c-3.504-0.207-5.021,4.229-3.286,7.044c1.639,0.201,2.323,0.127,3.758-0.233c0.315,0.856-0.006,2.354,0.938,2.583
			c0.813-0.754-0.873-2.238,0-3.055c0.39,3.059,1.541,5.351,3.054,7.277c0.323-0.531-0.604-0.882,0-0.938
			c0.081-1.182-1.037-1.153-1.175-2.114c-0.26-1.619-0.719-3.036-1.174-4.463c0.354,0.578,0.967-0.361,1.646-0.938
			c0.94-0.802,2.244-1.885,2.352-3.053C151.193,36.337,151.361,33.753,149.745,34.684z M141.76,40.321
			c-0.061-2.098,0.805-3.264,1.879-4.229c-0.688,0.016-0.873,0.539-1.176,0.94c-0.139-0.618,1.273-1.695,2.35-1.879
			c-0.006,2.214,0.355,3.048,0.474,5.402C144.159,40.912,142.454,41.443,141.76,40.321z M145.752,33.04
			c0.416-0.627,0.17,1.377,0.234,1.879C145.223,34.495,145.924,34.057,145.752,33.04z M145.752,35.154
			c0.521,1.232,0.361,2.838,0.469,4.932C145.543,39.077,145.686,36.139,145.752,35.154z M148.568,39.381
			c-0.018-0.806,1.818-1.779,2.115-3.053C151.068,36.618,149.469,38.829,148.568,39.381z M26.692,52.532
			c2.75-1.037,4.851-3.125,4.459-6.341c-0.311-2.582-2.599-4.418-3.988-5.873c-0.468-0.542,0.058-0.262,0.235-0.706
			c-2.475-0.856-3.886-2.481-6.105-4.227c-1.546-1.214-4.905-3.142-5.168-5.167c-0.257-1.987,1.343-3.164,2.114-4.226
			c2.186-3.008,6.144-8.938,0.704-10.567c-5.463,0.032-8.353,3.838-7.28,9.627c-1.908-3.3-9.624-2.414-8.924,1.879
			c0.026-4.879,9.464-4.297,8.924,0c-0.532-1.502-1.205-2.866-3.286-2.818c-0.082,0.845,0.853-0.083,1.407,0.471
			c1.162,1.423,2.441,2.726,2.349,5.401c-1.536,0.562-3.375,2.082-5.636,2.348c-2.056,0.241-3.805-0.501-5.401-0.704
			c3.023,2.214,8.377,0.834,11.037-0.705c-1.408,4.307-4.717,6.711-8.22,8.924c3.606-1.405,5.876-4.145,7.984-7.044
			c0.328-0.927,0.254-2.253,1.173-2.585c0.698,1.418,1.688,2.543,2.586,3.758c0.186,1.618,0.797,4.053,1.877,3.991
			c-0.708-0.933-1.248-2.038-1.408-3.521c1.532,1.278,3.491,2.692,5.871,3.759c3.264,1.459,7.586,4.313,7.982,8.218
			c0.304,2.966-1.385,4.767-3.989,5.638c-2.072-1.627-4.291-3.576-6.576-5.399c-2.056-1.642-4.663-4.157-7.985-3.054
			c1.18-0.42,2.04,0.109,3.289,0.232c1.924,1.285,3.938,2.481,5.635,3.993c0.797,0.853,1.905,1.381,2.584,2.351
			c0.685,0.703,2.479,1.354,2.114,2.349c-2.35,0.614-5.965,0.957-8.925,0.938c-0.658-0.007-1.666-0.402-1.88,0.231
			c4.294,0.063,8.494,0.461,11.744-0.938c3.472,2.476,8.946,6.984,15.027,6.34c2.362-0.25,5.057-1.74,5.168-3.285
			C41.101,61.943,30.199,56.538,26.692,52.532z M12.368,28.813c0.254,0.058,0.16,0.467,0.47,0.469
			C12.737,29.932,12.098,29.295,12.368,28.813z M20.822,18.01c0.228,1.874-0.702,2.586-0.94,3.992
			c-0.253-1.566-0.109-4.877-2.583-4.933C18.316,15.848,20.499,17.028,20.822,18.01z M14.245,27.874
			c-1.422-3.039-0.679-10.441,2.819-10.567c1.451,0.114,1.745,1.386,2.349,2.349c0.148,1.558-0.338,2.481-0.47,3.758
			c-0.813,0.832-1.308,1.979-2.352,2.583C16.079,26.795,15.018,28.088,14.245,27.874z M14.95,29.282
			c0.181-0.758,0.65-1.228,1.41-1.408c-0.278,0.66-0.529,1.351-0.704,2.114C15.115,30.059,15.394,29.309,14.95,29.282z
			 M15.89,32.571c1.009,0.011,2.031,2.035,3.287,2.583C18.165,35.145,16.984,33.278,15.89,32.571z M91.973,20.124
			c0.107-0.746-0.166-2.317-0.467-1.878c0.051,0.44,0.604,1.556,0,1.878c-1.688-0.207-2.508,0.052-4.461,0
			c-0.43-0.986-1.17-2.895-2.115-2.583c0.93,0.637,1.523,1.609,1.877,2.818c-4.104,0.981-6.787,4.38-5.869,9.629
			c0.773,0.483,1.082,2.67,2.113,2.112c-4.041-3.057-0.391-10.625,3.756-10.331c-0.777,0.323-2.397,1.032-2.113,1.644
			c0.729-0.762,1.699-1.276,2.818-1.644c0.758,2.169-0.074,4.583,0.236,6.574c0.398-2.376,0.549-4.537,0-6.811
			c1.391,0.218,2.275-0.52,3.289,0c0.814,6.864-0.715,13.939,0,20.665c-2.504,0.49-6.1,0.4-7.283-1.174
			c-0.107,1.438,1.436,1.228,2.113,1.879c-0.855,0.312-2.084-0.986-2.113,0c1.643,0.236,3.158,0.599,4.699,0.938
			c-2.256,0.521-5.945,0.067-7.516,0c1.334,1.016,3.658,1.037,6.104,0.938c-0.071,0.316-0.338,0.449-0.235,0.941
			c1.563-0.164,2.596-0.852,4.465-0.707c0.188,0.59-0.457,2.022,0.469,1.879c-0.168-0.56-0.621-2.18,0.232-2.349
			c1.146,0.501,0.313,2.974,1.407,3.522c0.179-1.584-0.377-2.439-0.233-3.991c0.498,0.517,0.694-0.304,1.41-0.235
			c4.104-3.848,9.104-9.867,7.045-17.611C98.648,23.938,96.411,20.933,91.973,20.124z M87.749,43.373
			c0.25-0.533,1.476-0.089,2.112-0.236C89.611,43.671,88.383,43.229,87.749,43.373z M91.271,38.676v-3.522
			c0.445,1.978,0.162,4.688,0.47,6.811C90.717,41.734,91.529,39.668,91.271,38.676z M91.741,23.177
			c-0.039-0.665-0.433-0.978-0.47-1.645c0.188,0.125,0.381,0.247,0.701,0.236C92.066,22.414,91.9,24.921,91.741,23.177z
			 M100.428,34.215c-0.35-0.521,0.318-2.023,0.471-2.818c-2.444,3.58-3.203,8.851-7.981,10.098
			c-0.207-2.014-0.185-2.903-0.231-5.166c0.348,0.354,0.377,1.029,0.467,1.642c-0.188-4.509-1.316-10.108-0.938-15.968
			c2.197,0.463,3.767,1.559,5.166,2.817c-0.282-1.201-1.481-1.49-2.112-2.347c-0.738,0.112-0.918-0.335-1.408-0.471
			c0.021-0.547,1.865,0.882,2.815,0.939c0.498,1.148,2.063,1.229,2.351,2.583c-0.853,0.244-1.459,0.735-1.881,1.409
			c0.52,0.271,1.252-1.247,2.354-1.174C101.051,27.597,101.631,31.579,100.428,34.215z M100.898,26.465
			C100.848,25.715,101.695,28.579,100.898,26.465L100.898,26.465z M40.078,45.016c0.151-1.101-0.308-2.811,0.234-3.521
			c0.756-0.208,0.323,0.772,0.938,0.703c-0.538-1.808-0.829-3.865-0.701-6.34c0.177-1.078,2.102-1.646,1.875-2.348
			c-0.739,0.209-1.478,1.639-2.112,1.174c0.813-0.909,1.809-1.637,3.288-1.878c0.45,3.632-1.393,9.492,1.878,11.271
			c-1.951-2.642-1.264-8.106-0.939-11.271c1.134,0.432,0.984,2.147,1.646,3.052c0.646-3.998-2.744-4.324-5.635-3.522
			c0.053-2.837,2.251-6.165,1.174-8.453c-0.224,0.771,0.042,2.062-0.707,2.816c-0.005-1.313,0.851-2.07,0-3.052
			c0.14,1.627-0.407,2.567-0.938,3.522c-0.217-2.593,0.55-6.672-0.703-7.749c-0.938,7.891-0.322,18.682,0.468,27.005
			c0.041-0.351-0.083-0.866,0.235-0.938c3.807,0.89,6.228,3.164,7.045,7.048C46.802,47.999,43.525,46.421,40.078,45.016z
			 M87.277,28.579c-0.334,0.998-0.771,1.891-1.409,2.583C86.695,30.807,87.568,29.268,87.277,28.579z M82.346,30.926
			c0.957,0.687,1.658,1.631,3.289,1.645c1.529-0.662,2.113-2.271,2.584-3.992c-1.145,1.049-1.117,3.268-3.053,3.521
			C84.004,32.081,83.012,30.663,82.346,30.926z M91.506,49.479c1.588,1.313,3.313,2.683,3.051,5.166
			c-0.561,5.342-10.928,4.696-14.326,1.646c0.816-4.174,4.563-6.482,9.162-6.105c-4.795-1.19-8.731,1.902-9.629,6.105
			c-2.166-0.891-4.125-1.98-5.87-3.289c0.17-0.719-0.405-0.689-0.235-1.41c0.461,0.106,1.172,1.149,1.409,0.705
			c-2.087-2.066-2.513-6.318-2.818-10.802c-0.248-3.635,1.57-7.469,1.173-9.629c-0.171-0.934-0.885-0.813-1.173-1.174
			c-2.173,1.073-1.182,5.057-1.174,7.749c-0.681,0.885-1.369,1.764-2.82,1.88c-2.39-1.132-0.84-6.204-1.642-8.924
			c-1.551,3.586-1.065,9.721,2.348,11.037c0.502-0.518-1.162-0.857-1.174-1.646c1.16,0.603,2.803-0.106,3.522-0.703
			c-0.592,5.133,1.494,8.838,1.644,12.445c-1.918-0.433-3.877-2.07-5.635-1.88c0.811,0.207,1.624,0.41,2.112,0.938
			c-4.245-1.85-10.739-1.824-13.854,1.646c-1.943,2.162-2.883,5.572-0.706,7.748c1.961,1.25,3.89,2.531,6.812,2.817
			c0.247-0.013,0.185-0.302-0.235-0.233c-3.946-0.561-9.157-3.198-6.81-7.748c0.135,0.412-0.283,1.38,0.233,1.406
			c-0.124-1.22,0.312-1.883,0.471-2.815c5.409-3.86,14.074-0.692,18.553,2.349c0.013,1.006,0.314,1.723,0.469,2.583
			c-2.543,1.841-5.729,3.037-10.334,2.818c-0.465-0.554-0.465,0.021,0,0.231c4.608,0.459,8.203-1.347,10.334-2.582
			c0.457,1.379,0.754,4.049,0.236,5.637c-1.741,0.56-2.558-1.038-3.289-0.704c1.258,0.934,2.471,1.916,4.697,1.879
			c1.123-2.41-1.191-5.175-0.939-7.517c-0.09-0.58,1.466-0.692,0.705-1.174c-0.208,0.344-0.354,0.743-0.939,0.705
			c0.271-0.764-0.719-1.443,0-1.88c5.384,2.283,11.522,3.819,19.255,3.759c-0.123-0.513-3.178-0.104-4.463-0.234
			c-0.602-0.415-1.861-0.174-2.348-0.703c3.654-0.262,6.449-1.383,7.75-3.992C95.441,52.115,93.189,50.064,91.506,49.479z
			 M70.373,40.321c0.067-0.48,0.632-0.461,0.703-0.939C71.473,39.422,70.965,40.497,70.373,40.321z M71.545,33.745
			c-0.184,0.428-0.252-0.141-0.235-0.471C71.492,32.846,71.561,33.416,71.545,33.745z M71.779,32.571
			c-0.195,0.746-0.308-0.418-0.233-0.705C71.744,31.121,71.854,32.284,71.779,32.571z M73.422,55.115
			c-2.713-0.699-5.887-3.094-9.627-3.289c-2.688-0.139-6.289,0.83-7.515,1.41c3.051-3.129,8.57-2.48,12.916-0.939
			C70.881,52.895,73.604,53.302,73.422,55.115z M75.301,64.038c0.428,0.276,0.185,1.224,0.472,1.644
			c-0.279,0.271-0.83,0.27-1.41,0.236C74.667,65.281,75.408,65.082,75.301,64.038z M74.363,55.584
			c0.193-0.665-0.332-0.609-0.234-1.175c2.594,1.397,5.146,2.836,7.984,3.993C79.34,58.589,77.122,56.191,74.363,55.584z
			 M55.544,59.754c0.033,0.075,0.049,0.167,0.032,0.292c3.077,2.786,10.563,4.161,15.264,1.879
			C65.095,63.762,58.073,62.016,55.544,59.754z M70.84,61.924C71.816,62.148,70.886,61.221,70.84,61.924L70.84,61.924z
			 M132.368,40.085c1.354,1.063,4.094,2.063,5.868,0.703c0.058,0.336,0.388,0.397,0.472,0.706c-0.938,0.721-1.328,2.973,0,3.521
			c-0.888-2.029,1.498-3.521,0.938-5.167c-1.15-0.104-0.5-4.035-1.408-5.166c-0.207,1,0.719,2.084,0,2.818
			c-0.213-1.273,0.063-3.037-0.705-3.758c0.07-0.958,1.332-1.947,0.939-2.583c-0.693,0.792-0.812,2.165-1.646,2.817
			c-0.06-0.414-0.406-0.535-0.938-0.469C133.709,34.61,131.25,36.446,132.368,40.085z M137.768,39.85
			c-0.063,1.033-1.395,0.798-2.115,1.173C136.174,40.449,136.941,40.12,137.768,39.85z M137.063,34.215v0.938
			c-0.762-0.024-0.5-1.063-1.645-0.705C135.424,33.766,136.745,33.893,137.063,34.215z M136.124,34.684
			C135.607,35.401,134.62,34.414,136.124,34.684L136.124,34.684z M136.829,35.623c0.024,1.147-0.127,2.476,0.233,3.288
			c-1.024,0.383-1.475,1.348-3.057,1.175C132.941,38.195,133.738,34.842,136.829,35.623z M53.462,34.684
			c-1.479,0.03-2.307-1.678-4.695-1.41c-2.766,2.275-3.024,8.869,1.174,8.924c1.223,0.018,1.495-0.854,2.817-1.175
			c0.414-0.369,0.336-1.94,1.175-1.173C54.348,37.795,53.925,36.399,53.462,34.684z M49.705,41.023
			c-1.633-1.505-2.478-5.222,0.236-5.872c0.021,0.333,0.038,0.665-0.236,0.704c0.146,0.5,1.023-0.201,0.705-0.939
			c0.985,0.031,0.872,1.163,1.88,1.174C53.103,38.635,51.865,40.718,49.705,41.023z M53.228,35.858
			c-0.316-0.154-0.438-0.502-0.47-0.939C53.171,34.975,53.292,35.322,53.228,35.858z M108.413,34.449
			c-0.183,0.6,0.918,1.08,0.231,1.409c-0.393-1.797-1.869-2.51-3.987-2.584c-4.066,2.002-2.414,11.671,3.286,8.221
			c0.785-0.39,0.496-1.854,1.646-1.88C109.861,37.569,109.848,35.368,108.413,34.449z M105.359,41.023
			c-1.633-1.505-2.479-5.222,0.232-5.872c0.021,0.333,0.041,0.665-0.232,0.704c0.146,0.5,1.021-0.201,0.705-0.939
			c1.354,0.188,0.523,1.142,1.879,1.174C108.713,38.681,107.551,40.688,105.359,41.023z M94.088,54.879
			c0.674-1.445-0.721-2.675-1.174-3.758c-1.252-1.37-5.623-2.7-7.514-1.408C90.165,48.574,93.932,51.425,94.088,54.879z
			 M60.04,41.495c0.305,0.944,0.066,2.437,1.173,2.583c0.177-1.102-0.97-2.631,0-3.055c0.01,0.771-0.096,1.662,0.703,1.646
			c0.719-0.435-0.27-1.116,0-1.88c0.425,0.482,0.813-0.39,1.176-0.703c0.974-0.848,1.954-1.673,2.112-3.053
			c-0.315-0.78,0.154-2.349-1.175-2.114c0.819,0.847-0.685,3.497-2.113,4.227c-1.983-8.971,2.436-17.603,1.411-25.596
			c0.089,3.301-0.19,6.229-1.411,8.22c-0.31-0.003-0.214-0.413-0.469-0.471c-0.854,4.234-1.948,8.229-1.88,13.386
			c-3.387-0.037-4.773,3.683-3.521,6.811C56.931,41.788,58.613,42.085,60.04,41.495z M64.029,37.97
			c0.363,0.303-0.458,1.408-1.173,1.411C63.14,38.805,63.95,38.752,64.029,37.97z M60.976,40.085
			c-0.923-0.742-0.598-3.091-0.703-4.932C61.315,35.991,60.306,38.878,60.976,40.085z M60.273,32.335
			c0.269-0.315,0.47,2.36,0.234,2.583C59.97,34.516,60.421,33.125,60.273,32.335z M57.455,36.797
			c-1.109-0.111,0.923-1.232,1.645-1.644c0.749,0.976,0.385,3.426,0.704,5.402c-1.034,0.443-2.887,0.828-3.522-0.235
			C56.915,37.818,56.316,37.257,57.455,36.797z M136.592,46.895c-3.652-2.451-7.256-7.938-10.096-10.098
			c1.41-1.402,2.266-3.148,3.52-4.697c1.213-1.496,3.193-2.613,3.758-4.695c-2.451,0.071-3.354,3.676-5.396,4.931
			c0.229-1.103,1.992-1.914,1.644-2.817c-1.545,1.349-2.545,4.496-4.228,4.931c0.021-4.169,1.256-9.66-0.233-13.15
			c0.028,3.081-0.181,5.925-0.701,8.454c-0.344-3.102,0.76-7.645-0.707-9.629c-0.605,3.701-0.623,8.152-0.469,10.803
			c0.834,0.364,0.141-0.798,0.703-0.705c-0.238,3.022,0.692,5.781-0.703,7.516c0.985,2.767,0.287,7.226,2.348,8.924
			c0.109-0.603-0.83-1.332-0.234-1.646c-0.072,0.617,0.324,0.771,0.939,0.707c0.08-1.925-1.346-5.509-0.705-7.985
			c3.609,2.877,8.094,10.444,13.619,11.741c2.604,0.607,5.451-0.467,5.399-2.584C142.995,49.758,139.186,48.634,136.592,46.895z
			 M124.146,29.282c-0.448,0.512-0.147-1.715-0.233-2.348C124.361,26.424,124.061,28.652,124.146,29.282z M124.383,25.76
			c-0.5,0.1-0.113-2.699-0.236-3.758C124.645,21.904,124.26,24.701,124.383,25.76z M124.618,40.321
			c0.565,1.031,0.545,2.736,0.938,4.46C124.941,43.598,124.717,42.021,124.618,40.321z"/>
	</g>
</g>
</svg>
