<?xml version="1.0" encoding="utf-8"?>
<!-- Generator: Adobe Illustrator 16.0.0, SVG Export Plug-In . SVG Version: 6.00 Build 0)  -->
<!DOCTYPE svg PUBLIC "-//W3C//DTD SVG 1.1//EN" "http://www.w3.org/Graphics/SVG/1.1/DTD/svg11.dtd">
<svg version="1.1" id="Layer_1" xmlns="http://www.w3.org/2000/svg" xmlns:xlink="http://www.w3.org/1999/xlink" x="0px" y="0px"
	 width="40px" height="80px" viewBox="0 0 40 80" enable-background="new 0 0 40 80" xml:space="preserve">
<path d="M19.995,20.375C9.452,20.377,0.905,28.926,0.908,39.47c0,0.003,0,0.006,0,0.008c0.002,10.543,8.551,19.09,19.097,19.086
	c10.543-0.002,19.089-8.551,19.087-19.096c0-0.002,0-0.006,0-0.007C39.09,28.918,30.54,20.372,19.995,20.375z M13.815,38.079H12.03
	v3.295c0,0.452,0.085,0.72,0.255,0.806c0.171,0.084,0.347,0.127,0.527,0.127c0.281,0,0.615-0.051,1.003-0.147v2.493
	c-0.692,0.138-1.371,0.203-2.039,0.203c-1.078,0-1.872-0.229-2.378-0.693c-0.506-0.463-0.758-1.2-0.758-2.217l0.008-1.047V38.08
	H7.313v-2.276h1.335L8.7,32.895l3.33-0.053v2.961h1.785V38.079z M20.24,44.739h-2.618l-3.34-8.938h3.603l1.275,3.796
	c0.104,0.311,0.198,0.619,0.28,0.92c0.029-0.104,0.072-0.237,0.131-0.401c0.014-0.023,0.051-0.135,0.114-0.334l1.319-3.981h2.512
	L20.24,44.739z M32.688,44.739h-3.506v-5.623c0-0.463-0.072-0.759-0.215-0.888c-0.145-0.129-0.324-0.193-0.543-0.193
	c-0.637,0-0.957,0.445-0.957,1.336v5.367h-3.506V35.8h3.251v1.267c0.479-0.967,1.341-1.451,2.575-1.451
	c0.65,0,1.199,0.125,1.648,0.373c0.444,0.25,0.77,0.572,0.963,0.967c0.188,0.395,0.289,1.082,0.289,2.06V44.739L32.688,44.739z"/>
</svg>
